<svg width="956" height="956" viewBox="0 0 956 956" fill="none" xmlns="http://www.w3.org/2000/svg">
<path d="M786.702 713.56C786.702 842.42 720.416 946.881 638.649 946.881C491.783 946.881 491.783 946.881 491.783 713.538C491.783 480.195 491.783 480.238 638.649 480.238C720.416 480.238 786.702 584.7 786.702 713.56Z" fill="#2E5DAB"/>
<circle cx="306.993" cy="147.993" r="139.993" fill="#7BAAF7"/>
<path d="M167 382.789C167 355.175 189.386 332.789 217 332.789H396.986C424.6 332.789 446.986 355.175 446.986 382.789V936.891C446.986 942.414 442.509 946.891 436.986 946.891H217C189.386 946.891 167 924.506 167 896.891V382.789Z" fill="#4285F4"/>
</svg>
