<svg width="2829" height="941" viewBox="0 0 2829 941" fill="none" xmlns="http://www.w3.org/2000/svg">
<path d="M619.702 707.56C619.702 836.42 553.416 940.881 471.649 940.881C324.783 940.881 324.783 940.881 324.783 707.538C324.783 474.195 324.783 474.238 471.649 474.238C553.416 474.238 619.702 578.7 619.702 707.56Z" fill="#2E5DAB"/>
<circle cx="139.993" cy="141.993" r="139.993" fill="#7BAAF7"/>
<path d="M0 376.789C0 349.175 22.3858 326.789 50 326.789H229.986C257.6 326.789 279.986 349.175 279.986 376.789V930.891C279.986 936.414 275.509 940.891 269.986 940.891H50C22.3858 940.891 0 918.506 0 890.891V376.789Z" fill="#4285F4"/>
<path d="M801.5 488C799.167 488 798 486.833 798 484.5L798.7 3.59998C798.7 1.73331 799.633 0.799972 801.5 0.799972H879.9C881.767 0.799972 882.7 1.73331 882.7 3.59998L883.4 484.5C883.4 486.833 882.467 488 880.6 488H801.5ZM955.473 488C952.806 488 951.473 486.833 951.473 484.5L950.973 144C950.973 141.333 952.306 140 954.973 140H999.973L1084.47 337L1081.97 144C1081.97 141.333 1083.47 140 1086.47 140H1135.97C1137.97 140 1138.97 141.333 1138.97 144L1139.47 485C1139.47 487 1138.64 488 1136.97 488H1092.97L1006.47 304L1009.97 484C1009.97 486.667 1008.47 488 1005.47 488H955.473ZM1277.91 493C1259.91 493 1243.41 488.5 1228.41 479.5C1213.74 470.167 1201.91 458 1192.91 443C1184.24 427.667 1179.91 410.833 1179.91 392.5V369.5C1179.91 367.833 1180.74 367 1182.41 367H1238.41C1239.74 367 1240.41 367.833 1240.41 369.5V392.5C1240.41 403.5 1244.07 413 1251.41 421C1258.74 428.667 1267.57 432.5 1277.91 432.5C1288.24 432.5 1297.07 428.5 1304.41 420.5C1311.74 412.5 1315.41 403.167 1315.41 392.5C1315.41 380.167 1307.41 369.5 1291.41 360.5C1286.07 357.5 1277.74 352.833 1266.41 346.5C1255.07 340.167 1244.41 334.167 1234.41 328.5C1216.07 317.833 1202.41 304.5 1193.41 288.5C1184.74 272.167 1180.41 253.833 1180.41 233.5C1180.41 214.833 1184.91 198.167 1193.91 183.5C1202.91 168.5 1214.74 156.667 1229.41 148C1244.41 139.333 1260.57 135 1277.91 135C1295.57 135 1311.74 139.5 1326.41 148.5C1341.41 157.167 1353.24 169 1361.91 184C1370.91 198.667 1375.41 215.167 1375.41 233.5V274.5C1375.41 275.833 1374.74 276.5 1373.41 276.5H1317.41C1316.07 276.5 1315.41 275.833 1315.41 274.5L1314.91 233.5C1314.91 221.833 1311.24 212.333 1303.91 205C1296.57 197.667 1287.91 194 1277.91 194C1267.57 194 1258.74 198 1251.41 206C1244.07 213.667 1240.41 222.833 1240.41 233.5C1240.41 244.5 1242.74 253.667 1247.41 261C1252.07 268.333 1260.57 275.333 1272.91 282C1274.57 283 1277.74 284.833 1282.41 287.5C1287.41 289.833 1292.74 292.667 1298.41 296C1304.07 299 1309.07 301.667 1313.41 304C1318.07 306.333 1320.91 307.833 1321.91 308.5C1338.57 317.833 1351.74 329.333 1361.41 343C1371.07 356.333 1375.91 372.833 1375.91 392.5C1375.91 411.5 1371.41 428.667 1362.41 444C1353.74 459 1341.91 471 1326.91 480C1312.24 488.667 1295.91 493 1277.91 493ZM1512.68 493C1495.01 493 1478.68 488.5 1463.68 479.5C1448.68 470.167 1436.68 457.833 1427.68 442.5C1419.01 427.167 1414.68 410.333 1414.68 392L1415.68 142C1415.68 140.667 1416.35 140 1417.68 140H1473.68C1475.01 140 1475.68 140.667 1475.68 142V392C1475.68 403.333 1479.18 413 1486.18 421C1493.51 428.667 1502.35 432.5 1512.68 432.5C1523.35 432.5 1532.18 428.667 1539.18 421C1546.51 413 1550.18 403.333 1550.18 392V142C1550.18 140.667 1550.85 140 1552.18 140H1608.18C1609.51 140 1610.18 140.667 1610.18 142L1611.18 392C1611.18 410.667 1606.68 427.667 1597.68 443C1589.01 458.333 1577.18 470.5 1562.18 479.5C1547.51 488.5 1531.01 493 1512.68 493ZM1662.66 488C1661.33 488 1660.66 487.167 1660.66 485.5L1661.66 142C1661.66 140.667 1662.33 140 1663.66 140H1764.66C1782.66 140 1799.16 144.5 1814.16 153.5C1829.49 162.167 1841.66 174 1850.66 189C1859.66 203.667 1864.16 220.333 1864.16 239C1864.16 251.333 1862.33 262.5 1858.66 272.5C1854.99 282.167 1850.66 290.5 1845.66 297.5C1840.66 304.167 1836.16 309.167 1832.16 312.5C1850.16 332.5 1859.16 356 1859.16 383L1859.66 485.5C1859.66 487.167 1858.83 488 1857.16 488H1800.66C1799.33 488 1798.66 487.5 1798.66 486.5V383C1798.66 371 1794.33 360.667 1785.66 352C1777.33 343 1766.99 338.5 1754.66 338.5H1721.66L1721.16 485.5C1721.16 487.167 1720.49 488 1719.16 488H1662.66ZM1721.66 278.5H1764.66C1774.99 278.5 1784.16 274.667 1792.16 267C1800.16 259.333 1804.16 250 1804.16 239C1804.16 228.333 1800.16 219.167 1792.16 211.5C1784.49 203.833 1775.33 200 1764.66 200H1721.66V278.5ZM1894.87 485.5L1956.87 142C1957.2 140.667 1958.04 140 1959.37 140H2031.87C2033.2 140 2034.04 140.667 2034.37 142L2093.87 485.5C2094.2 487.167 2093.54 488 2091.87 488H2036.37C2035.04 488 2034.2 487.167 2033.87 485.5L2028.37 449H1960.37L1954.87 485.5C1954.54 487.167 1953.7 488 1952.37 488H1896.87C1895.54 488 1894.87 487.167 1894.87 485.5ZM1970.37 395.5H2018.37L1997.87 255L1994.87 236.5L1992.87 255L1970.37 395.5ZM2139.75 488C2137.08 488 2135.75 486.833 2135.75 484.5L2135.25 144C2135.25 141.333 2136.58 140 2139.25 140H2184.25L2268.75 337L2266.25 144C2266.25 141.333 2267.75 140 2270.75 140H2320.25C2322.25 140 2323.25 141.333 2323.25 144L2323.75 485C2323.75 487 2322.92 488 2321.25 488H2277.25L2190.75 304L2194.25 484C2194.25 486.667 2192.75 488 2189.75 488H2139.75ZM2469.18 493C2450.85 493 2434.18 488.5 2419.18 479.5C2404.52 470.167 2392.85 457.833 2384.18 442.5C2375.52 427.167 2371.18 410 2371.18 391L2371.68 235C2371.68 216.667 2375.85 200 2384.18 185C2392.85 169.667 2404.52 157.5 2419.18 148.5C2434.18 139.167 2450.85 134.5 2469.18 134.5C2487.52 134.5 2504.02 139 2518.68 148C2533.35 157 2545.02 169.167 2553.68 184.5C2562.35 199.5 2566.68 216.333 2566.68 235V258C2566.68 259.333 2566.02 260 2564.68 260H2508.68C2507.35 260 2506.68 259.333 2506.68 258V235C2506.68 224 2503.02 214.5 2495.68 206.5C2488.68 198.5 2479.85 194.5 2469.18 194.5C2457.18 194.5 2448.02 198.667 2441.68 207C2435.35 215 2432.18 224.333 2432.18 235V391C2432.18 403.333 2435.68 413.333 2442.68 421C2450.02 428.667 2458.85 432.5 2469.18 432.5C2479.85 432.5 2488.68 428.333 2495.68 420C2503.02 411.333 2506.68 401.667 2506.68 391V368C2506.68 366.667 2507.35 366 2508.68 366H2565.18C2566.52 366 2567.18 366.667 2567.18 368V391C2567.18 410 2562.68 427.167 2553.68 442.5C2545.02 457.833 2533.35 470.167 2518.68 479.5C2504.02 488.5 2487.52 493 2469.18 493ZM2615.75 488C2614.41 488 2613.75 487.167 2613.75 485.5L2614.25 142C2614.25 140.667 2614.91 140 2616.25 140H2776.75C2778.08 140 2778.75 140.833 2778.75 142.5V198.5C2778.75 199.833 2778.08 200.5 2776.75 200.5H2674.25V278.5H2776.75C2778.08 278.5 2778.75 279.167 2778.75 280.5L2779.25 337C2779.25 338.333 2778.58 339 2777.25 339H2674.25V426.5H2777.25C2778.58 426.5 2779.25 427.333 2779.25 429V486C2779.25 487.333 2778.58 488 2777.25 488H2615.75ZM792 938C790.667 938 790 937.167 790 935.5L791 592C791 590.667 791.667 590 793 590H889C908 590 925 594.667 940 604C955 613 966.833 625 975.5 640C984.167 655 988.5 671.333 988.5 689C988.5 703.333 985.167 716.667 978.5 729C972.167 741.333 964.5 751.333 955.5 759C965.167 768.667 972.667 779.833 978 792.5C983.333 805.167 986 818.5 986 832.5C986 851.833 981.333 869.5 972 885.5C962.667 901.5 950 914.333 934 924C918.333 933.333 900.833 938 881.5 938H792ZM851 728H889C900.667 728 910 724 917 716C924.333 707.667 928 698.667 928 689C928 678.333 924.167 669.167 916.5 661.5C908.833 653.5 899.667 649.5 889 649.5H851V728ZM850.5 877H881.5C893.5 877 903.833 872.667 912.5 864C921.167 855 925.5 844.5 925.5 832.5C925.5 820.5 921.167 810.167 912.5 801.5C903.833 792.833 893.5 788.5 881.5 788.5H851L850.5 877ZM1033.93 938C1032.6 938 1031.93 937.167 1031.93 935.5L1032.43 592C1032.43 590.667 1033.27 590 1034.93 590H1090.43C1092.1 590 1092.93 590.667 1092.93 592L1092.43 728H1167.43V592C1167.43 590.667 1168.1 590 1169.43 590H1224.93C1226.6 590 1227.43 590.667 1227.43 592L1228.43 935.5C1228.43 937.167 1227.6 938 1225.93 938H1169.93C1168.27 938 1167.43 937.167 1167.43 935.5V788.5H1092.43V935.5C1092.43 937.167 1091.77 938 1090.43 938H1033.93ZM1262.24 935.5L1324.24 592C1324.57 590.667 1325.4 590 1326.74 590H1399.24C1400.57 590 1401.4 590.667 1401.74 592L1461.24 935.5C1461.57 937.167 1460.9 938 1459.24 938H1403.74C1402.4 938 1401.57 937.167 1401.24 935.5L1395.74 899H1327.74L1322.24 935.5C1321.9 937.167 1321.07 938 1319.74 938H1264.24C1262.9 938 1262.24 937.167 1262.24 935.5ZM1337.74 845.5H1385.74L1365.24 705L1362.24 686.5L1360.24 705L1337.74 845.5ZM1505.12 938C1503.45 938 1502.62 937.167 1502.62 935.5L1503.12 592C1503.12 590.667 1503.78 590 1505.12 590H1561.12C1562.45 590 1563.12 590.667 1563.12 592L1563.62 935.5C1563.62 937.167 1562.95 938 1561.62 938H1505.12ZM1664.1 938C1663.1 938 1662.6 937.333 1662.6 936L1663.1 794L1596.1 592C1595.76 590.667 1596.26 590 1597.6 590H1653.1C1654.76 590 1655.76 590.667 1656.1 592L1693.1 726.5L1730.6 592C1730.93 590.667 1731.76 590 1733.1 590H1789.1C1790.43 590 1790.93 590.667 1790.6 592L1723.1 792L1723.6 936C1723.6 937.333 1722.93 938 1721.6 938H1664.1ZM1781.5 935.5L1843.5 592C1843.83 590.667 1844.66 590 1846 590H1918.5C1919.83 590 1920.66 590.667 1921 592L1980.5 935.5C1980.83 937.167 1980.16 938 1978.5 938H1923C1921.66 938 1920.83 937.167 1920.5 935.5L1915 899H1847L1841.5 935.5C1841.16 937.167 1840.33 938 1839 938H1783.5C1782.16 938 1781.5 937.167 1781.5 935.5ZM1857 845.5H1905L1884.5 705L1881.5 686.5L1879.5 705L1857 845.5Z" fill="white"/>
</svg>
