<svg width="620" height="939" viewBox="0 0 620 939" fill="none" xmlns="http://www.w3.org/2000/svg">
<path d="M619.702 705.56C619.702 834.42 553.416 938.881 471.649 938.881C324.783 938.881 324.783 938.881 324.783 705.538C324.783 472.195 324.783 472.238 471.649 472.238C553.416 472.238 619.702 576.7 619.702 705.56Z" fill="#2E5DAB"/>
<circle cx="139.993" cy="139.993" r="139.993" fill="#7BAAF7"/>
<path d="M0 374.789C0 347.175 22.3858 324.789 50 324.789H229.986C257.6 324.789 279.986 347.175 279.986 374.789V928.891C279.986 934.414 275.509 938.891 269.986 938.891H50C22.3858 938.891 0 916.506 0 888.891V374.789Z" fill="#4285F4"/>
</svg>
