<svg width="1021" height="1021" viewBox="0 0 1021 1021" fill="none" xmlns="http://www.w3.org/2000/svg">
<path d="M820.702 747.56C820.702 876.42 754.416 980.881 672.649 980.881C525.783 980.881 525.783 980.881 525.783 747.538C525.783 514.195 525.783 514.238 672.649 514.238C754.416 514.238 820.702 618.7 820.702 747.56Z" fill="#2E5DAB"/>
<circle cx="340.993" cy="181.993" r="139.993" fill="#7BAAF7"/>
<path d="M201 416.789C201 389.175 223.386 366.789 251 366.789H430.986C458.6 366.789 480.986 389.175 480.986 416.789V970.891C480.986 976.414 476.509 980.891 470.986 980.891H251C223.386 980.891 201 958.506 201 930.891V416.789Z" fill="#4285F4"/>
</svg>
