<svg width="3792" height="493" viewBox="0 0 3792 493" fill="none" xmlns="http://www.w3.org/2000/svg">
<path d="M322.096 366.725C322.096 433.701 287.643 487.996 245.144 487.996C168.809 487.996 168.809 487.996 168.809 366.714C168.809 245.431 168.809 245.453 245.144 245.453C287.643 245.453 322.096 299.748 322.096 366.725Z" fill="#2E5DAB"/>
<circle cx="72.763" cy="72.763" r="72.763" fill="#7BAAF7"/>
<path d="M0 218.816C0 191.202 22.3858 168.816 50 168.816H95.5259C123.14 168.816 145.526 191.202 145.526 218.816V478.003C145.526 483.526 141.049 488.003 135.526 488.003H50C22.3858 488.003 0 465.618 0 438.003V218.816Z" fill="#4285F4"/>
<path d="M503.596 488C501.262 488 500.096 486.833 500.096 484.5L500.796 3.59998C500.796 1.73331 501.729 0.799972 503.596 0.799972H581.996C583.862 0.799972 584.796 1.73331 584.796 3.59998L585.496 484.5C585.496 486.833 584.562 488 582.696 488H503.596ZM643.568 488C640.902 488 639.568 486.833 639.568 484.5L639.068 144C639.068 141.333 640.402 140 643.068 140H688.068L772.568 337L770.068 144C770.068 141.333 771.568 140 774.568 140H824.068C826.068 140 827.068 141.333 827.068 144L827.568 485C827.568 487 826.735 488 825.068 488H781.068L694.568 304L698.068 484C698.068 486.667 696.568 488 693.568 488H643.568ZM956.002 493C938.002 493 921.502 488.5 906.502 479.5C891.835 470.167 880.002 458 871.002 443C862.335 427.667 858.002 410.833 858.002 392.5V369.5C858.002 367.833 858.835 367 860.502 367H916.502C917.835 367 918.502 367.833 918.502 369.5V392.5C918.502 403.5 922.169 413 929.502 421C936.835 428.667 945.669 432.5 956.002 432.5C966.335 432.5 975.169 428.5 982.502 420.5C989.835 412.5 993.502 403.167 993.502 392.5C993.502 380.167 985.502 369.5 969.502 360.5C964.169 357.5 955.835 352.833 944.502 346.5C933.169 340.167 922.502 334.167 912.502 328.5C894.169 317.833 880.502 304.5 871.502 288.5C862.835 272.167 858.502 253.833 858.502 233.5C858.502 214.833 863.002 198.167 872.002 183.5C881.002 168.5 892.835 156.667 907.502 148C922.502 139.333 938.669 135 956.002 135C973.669 135 989.835 139.5 1004.5 148.5C1019.5 157.167 1031.34 169 1040 184C1049 198.667 1053.5 215.167 1053.5 233.5V274.5C1053.5 275.833 1052.84 276.5 1051.5 276.5H995.502C994.169 276.5 993.502 275.833 993.502 274.5L993.002 233.5C993.002 221.833 989.335 212.333 982.002 205C974.669 197.667 966.002 194 956.002 194C945.669 194 936.835 198 929.502 206C922.169 213.667 918.502 222.833 918.502 233.5C918.502 244.5 920.835 253.667 925.502 261C930.169 268.333 938.669 275.333 951.002 282C952.669 283 955.835 284.833 960.502 287.5C965.502 289.833 970.835 292.667 976.502 296C982.169 299 987.169 301.667 991.502 304C996.169 306.333 999.002 307.833 1000 308.5C1016.67 317.833 1029.84 329.333 1039.5 343C1049.17 356.333 1054 372.833 1054 392.5C1054 411.5 1049.5 428.667 1040.5 444C1031.84 459 1020 471 1005 480C990.335 488.667 974.002 493 956.002 493ZM1180.78 493C1163.11 493 1146.78 488.5 1131.78 479.5C1116.78 470.167 1104.78 457.833 1095.78 442.5C1087.11 427.167 1082.78 410.333 1082.78 392L1083.78 142C1083.78 140.667 1084.44 140 1085.78 140H1141.78C1143.11 140 1143.78 140.667 1143.78 142V392C1143.78 403.333 1147.28 413 1154.28 421C1161.61 428.667 1170.44 432.5 1180.78 432.5C1191.44 432.5 1200.28 428.667 1207.28 421C1214.61 413 1218.28 403.333 1218.28 392V142C1218.28 140.667 1218.94 140 1220.28 140H1276.28C1277.61 140 1278.28 140.667 1278.28 142L1279.28 392C1279.28 410.667 1274.78 427.667 1265.78 443C1257.11 458.333 1245.28 470.5 1230.28 479.5C1215.61 488.5 1199.11 493 1180.78 493ZM1320.76 488C1319.42 488 1318.76 487.167 1318.76 485.5L1319.76 142C1319.76 140.667 1320.42 140 1321.76 140H1422.76C1440.76 140 1457.26 144.5 1472.26 153.5C1487.59 162.167 1499.76 174 1508.76 189C1517.76 203.667 1522.26 220.333 1522.26 239C1522.26 251.333 1520.42 262.5 1516.76 272.5C1513.09 282.167 1508.76 290.5 1503.76 297.5C1498.76 304.167 1494.26 309.167 1490.26 312.5C1508.26 332.5 1517.26 356 1517.26 383L1517.76 485.5C1517.76 487.167 1516.92 488 1515.26 488H1458.76C1457.42 488 1456.76 487.5 1456.76 486.5V383C1456.76 371 1452.42 360.667 1443.76 352C1435.42 343 1425.09 338.5 1412.76 338.5H1379.76L1379.26 485.5C1379.26 487.167 1378.59 488 1377.26 488H1320.76ZM1379.76 278.5H1422.76C1433.09 278.5 1442.26 274.667 1450.26 267C1458.26 259.333 1462.26 250 1462.26 239C1462.26 228.333 1458.26 219.167 1450.26 211.5C1442.59 203.833 1433.42 200 1422.76 200H1379.76V278.5ZM1542.97 485.5L1604.97 142C1605.3 140.667 1606.13 140 1607.47 140H1679.97C1681.3 140 1682.13 140.667 1682.47 142L1741.97 485.5C1742.3 487.167 1741.63 488 1739.97 488H1684.47C1683.13 488 1682.3 487.167 1681.97 485.5L1676.47 449H1608.47L1602.97 485.5C1602.63 487.167 1601.8 488 1600.47 488H1544.97C1543.63 488 1542.97 487.167 1542.97 485.5ZM1618.47 395.5H1666.47L1645.97 255L1642.97 236.5L1640.97 255L1618.47 395.5ZM1777.85 488C1775.18 488 1773.85 486.833 1773.85 484.5L1773.35 144C1773.35 141.333 1774.68 140 1777.35 140H1822.35L1906.85 337L1904.35 144C1904.35 141.333 1905.85 140 1908.85 140H1958.35C1960.35 140 1961.35 141.333 1961.35 144L1961.85 485C1961.85 487 1961.01 488 1959.35 488H1915.35L1828.85 304L1832.35 484C1832.35 486.667 1830.85 488 1827.85 488H1777.85ZM2097.28 493C2078.95 493 2062.28 488.5 2047.28 479.5C2032.61 470.167 2020.95 457.833 2012.28 442.5C2003.61 427.167 1999.28 410 1999.28 391L1999.78 235C1999.78 216.667 2003.95 200 2012.28 185C2020.95 169.667 2032.61 157.5 2047.28 148.5C2062.28 139.167 2078.95 134.5 2097.28 134.5C2115.61 134.5 2132.11 139 2146.78 148C2161.45 157 2173.11 169.167 2181.78 184.5C2190.45 199.5 2194.78 216.333 2194.78 235V258C2194.78 259.333 2194.11 260 2192.78 260H2136.78C2135.45 260 2134.78 259.333 2134.78 258V235C2134.78 224 2131.11 214.5 2123.78 206.5C2116.78 198.5 2107.95 194.5 2097.28 194.5C2085.28 194.5 2076.11 198.667 2069.78 207C2063.45 215 2060.28 224.333 2060.28 235V391C2060.28 403.333 2063.78 413.333 2070.78 421C2078.11 428.667 2086.95 432.5 2097.28 432.5C2107.95 432.5 2116.78 428.333 2123.78 420C2131.11 411.333 2134.78 401.667 2134.78 391V368C2134.78 366.667 2135.45 366 2136.78 366H2193.28C2194.61 366 2195.28 366.667 2195.28 368V391C2195.28 410 2190.78 427.167 2181.78 442.5C2173.11 457.833 2161.45 470.167 2146.78 479.5C2132.11 488.5 2115.61 493 2097.28 493ZM2233.84 488C2232.51 488 2231.84 487.167 2231.84 485.5L2232.34 142C2232.34 140.667 2233.01 140 2234.34 140H2394.84C2396.18 140 2396.84 140.833 2396.84 142.5V198.5C2396.84 199.833 2396.18 200.5 2394.84 200.5H2292.34V278.5H2394.84C2396.18 278.5 2396.84 279.167 2396.84 280.5L2397.34 337C2397.34 338.333 2396.68 339 2395.34 339H2292.34V426.5H2395.34C2396.68 426.5 2397.34 427.333 2397.34 429V486C2397.34 487.333 2396.68 488 2395.34 488H2233.84ZM2556.51 488C2554.64 488 2553.71 486.833 2553.71 484.5L2555.11 3.59998C2555.11 1.73331 2556.04 0.799972 2557.91 0.799972H2692.31C2718.91 0.799972 2742.71 7.3333 2763.71 20.4C2784.71 33 2801.28 49.8 2813.41 70.8C2825.54 91.8 2831.61 114.667 2831.61 139.4C2831.61 159.467 2826.94 178.133 2817.61 195.4C2808.74 212.667 2798.01 226.667 2785.41 237.4C2798.94 250.933 2809.44 266.567 2816.91 284.3C2824.38 302.033 2828.11 320.7 2828.11 340.3C2828.11 367.367 2821.58 392.1 2808.51 414.5C2795.44 436.9 2777.71 454.867 2755.31 468.4C2733.38 481.467 2708.88 488 2681.81 488H2556.51ZM2639.11 194H2692.31C2708.64 194 2721.71 188.4 2731.51 177.2C2741.78 165.533 2746.91 152.933 2746.91 139.4C2746.91 124.467 2741.54 111.633 2730.81 100.9C2720.08 89.7 2707.24 84.1 2692.31 84.1H2639.11V194ZM2638.41 402.6H2681.81C2698.61 402.6 2713.08 396.533 2725.21 384.4C2737.34 371.8 2743.41 357.1 2743.41 340.3C2743.41 323.5 2737.34 309.033 2725.21 296.9C2713.08 284.767 2698.61 278.7 2681.81 278.7H2639.11L2638.41 402.6ZM2872.42 488C2871.08 488 2870.42 487.167 2870.42 485.5L2870.92 142C2870.92 140.667 2871.75 140 2873.42 140H2928.92C2930.58 140 2931.42 140.667 2931.42 142L2930.92 278H3005.92V142C3005.92 140.667 3006.58 140 3007.92 140H3063.42C3065.08 140 3065.92 140.667 3065.92 142L3066.92 485.5C3066.92 487.167 3066.08 488 3064.42 488H3008.42C3006.75 488 3005.92 487.167 3005.92 485.5V338.5H2930.92V485.5C2930.92 487.167 2930.25 488 2928.92 488H2872.42ZM3090.72 485.5L3152.72 142C3153.05 140.667 3153.89 140 3155.22 140H3227.72C3229.05 140 3229.89 140.667 3230.22 142L3289.72 485.5C3290.05 487.167 3289.39 488 3287.72 488H3232.22C3230.89 488 3230.05 487.167 3229.72 485.5L3224.22 449H3156.22L3150.72 485.5C3150.39 487.167 3149.55 488 3148.22 488H3092.72C3091.39 488 3090.72 487.167 3090.72 485.5ZM3166.22 395.5H3214.22L3193.72 255L3190.72 236.5L3188.72 255L3166.22 395.5ZM3323.6 488C3321.93 488 3321.1 487.167 3321.1 485.5L3321.6 142C3321.6 140.667 3322.27 140 3323.6 140H3379.6C3380.93 140 3381.6 140.667 3381.6 142L3382.1 485.5C3382.1 487.167 3381.43 488 3380.1 488H3323.6ZM3472.58 488C3471.58 488 3471.08 487.333 3471.08 486L3471.58 344L3404.58 142C3404.25 140.667 3404.75 140 3406.08 140H3461.58C3463.25 140 3464.25 140.667 3464.58 142L3501.58 276.5L3539.08 142C3539.41 140.667 3540.25 140 3541.58 140H3597.58C3598.91 140 3599.41 140.667 3599.08 142L3531.58 342L3532.08 486C3532.08 487.333 3531.41 488 3530.08 488H3472.58ZM3579.98 485.5L3641.98 142C3642.31 140.667 3643.15 140 3644.48 140H3716.98C3718.31 140 3719.15 140.667 3719.48 142L3778.98 485.5C3779.31 487.167 3778.65 488 3776.98 488H3721.48C3720.15 488 3719.31 487.167 3718.98 485.5L3713.48 449H3645.48L3639.98 485.5C3639.65 487.167 3638.81 488 3637.48 488H3581.98C3580.65 488 3579.98 487.167 3579.98 485.5ZM3655.48 395.5H3703.48L3682.98 255L3679.98 236.5L3677.98 255L3655.48 395.5Z" fill="#0D1A2E"/>
</svg>
