<svg width="3873" height="493" viewBox="0 0 3873 493" fill="none" xmlns="http://www.w3.org/2000/svg">
<path d="M322.096 366.725C322.096 433.701 287.643 487.996 245.144 487.996C168.809 487.996 168.809 487.996 168.809 366.714C168.809 245.431 168.809 245.453 245.144 245.453C287.643 245.453 322.096 299.748 322.096 366.725Z" fill="#2E5DAB"/>
<circle cx="72.763" cy="72.763" r="72.763" fill="#7BAAF7"/>
<path d="M0 218.816C0 191.202 22.3858 168.816 50 168.816H95.5259C123.14 168.816 145.526 191.202 145.526 218.816V478.003C145.526 483.526 141.049 488.003 135.526 488.003H50C22.3858 488.003 0 465.618 0 438.003V218.816Z" fill="#4285F4"/>
<path d="M503.596 488C501.262 488 500.096 486.833 500.096 484.5L500.796 3.59998C500.796 1.73331 501.729 0.799972 503.596 0.799972H581.996C583.862 0.799972 584.796 1.73331 584.796 3.59998L585.496 484.5C585.496 486.833 584.562 488 582.696 488H503.596ZM650.568 488C647.902 488 646.568 486.833 646.568 484.5L646.068 144C646.068 141.333 647.402 140 650.068 140H695.068L779.568 337L777.068 144C777.068 141.333 778.568 140 781.568 140H831.068C833.068 140 834.068 141.333 834.068 144L834.568 485C834.568 487 833.735 488 832.068 488H788.068L701.568 304L705.068 484C705.068 486.667 703.568 488 700.568 488H650.568ZM968.002 493C950.002 493 933.502 488.5 918.502 479.5C903.835 470.167 892.002 458 883.002 443C874.335 427.667 870.002 410.833 870.002 392.5V369.5C870.002 367.833 870.835 367 872.502 367H928.502C929.835 367 930.502 367.833 930.502 369.5V392.5C930.502 403.5 934.169 413 941.502 421C948.835 428.667 957.669 432.5 968.002 432.5C978.335 432.5 987.169 428.5 994.502 420.5C1001.84 412.5 1005.5 403.167 1005.5 392.5C1005.5 380.167 997.502 369.5 981.502 360.5C976.169 357.5 967.835 352.833 956.502 346.5C945.169 340.167 934.502 334.167 924.502 328.5C906.169 317.833 892.502 304.5 883.502 288.5C874.835 272.167 870.502 253.833 870.502 233.5C870.502 214.833 875.002 198.167 884.002 183.5C893.002 168.5 904.835 156.667 919.502 148C934.502 139.333 950.669 135 968.002 135C985.669 135 1001.84 139.5 1016.5 148.5C1031.5 157.167 1043.34 169 1052 184C1061 198.667 1065.5 215.167 1065.5 233.5V274.5C1065.5 275.833 1064.84 276.5 1063.5 276.5H1007.5C1006.17 276.5 1005.5 275.833 1005.5 274.5L1005 233.5C1005 221.833 1001.34 212.333 994.002 205C986.669 197.667 978.002 194 968.002 194C957.669 194 948.835 198 941.502 206C934.169 213.667 930.502 222.833 930.502 233.5C930.502 244.5 932.835 253.667 937.502 261C942.169 268.333 950.669 275.333 963.002 282C964.669 283 967.835 284.833 972.502 287.5C977.502 289.833 982.835 292.667 988.502 296C994.169 299 999.169 301.667 1003.5 304C1008.17 306.333 1011 307.833 1012 308.5C1028.67 317.833 1041.84 329.333 1051.5 343C1061.17 356.333 1066 372.833 1066 392.5C1066 411.5 1061.5 428.667 1052.5 444C1043.84 459 1032 471 1017 480C1002.34 488.667 986.002 493 968.002 493ZM1197.78 493C1180.11 493 1163.78 488.5 1148.78 479.5C1133.78 470.167 1121.78 457.833 1112.78 442.5C1104.11 427.167 1099.78 410.333 1099.78 392L1100.78 142C1100.78 140.667 1101.44 140 1102.78 140H1158.78C1160.11 140 1160.78 140.667 1160.78 142V392C1160.78 403.333 1164.28 413 1171.28 421C1178.61 428.667 1187.44 432.5 1197.78 432.5C1208.44 432.5 1217.28 428.667 1224.28 421C1231.61 413 1235.28 403.333 1235.28 392V142C1235.28 140.667 1235.94 140 1237.28 140H1293.28C1294.61 140 1295.28 140.667 1295.28 142L1296.28 392C1296.28 410.667 1291.78 427.667 1282.78 443C1274.11 458.333 1262.28 470.5 1247.28 479.5C1232.61 488.5 1216.11 493 1197.78 493ZM1342.76 488C1341.42 488 1340.76 487.167 1340.76 485.5L1341.76 142C1341.76 140.667 1342.42 140 1343.76 140H1444.76C1462.76 140 1479.26 144.5 1494.26 153.5C1509.59 162.167 1521.76 174 1530.76 189C1539.76 203.667 1544.26 220.333 1544.26 239C1544.26 251.333 1542.42 262.5 1538.76 272.5C1535.09 282.167 1530.76 290.5 1525.76 297.5C1520.76 304.167 1516.26 309.167 1512.26 312.5C1530.26 332.5 1539.26 356 1539.26 383L1539.76 485.5C1539.76 487.167 1538.92 488 1537.26 488H1480.76C1479.42 488 1478.76 487.5 1478.76 486.5V383C1478.76 371 1474.42 360.667 1465.76 352C1457.42 343 1447.09 338.5 1434.76 338.5H1401.76L1401.26 485.5C1401.26 487.167 1400.59 488 1399.26 488H1342.76ZM1401.76 278.5H1444.76C1455.09 278.5 1464.26 274.667 1472.26 267C1480.26 259.333 1484.26 250 1484.26 239C1484.26 228.333 1480.26 219.167 1472.26 211.5C1464.59 203.833 1455.42 200 1444.76 200H1401.76V278.5ZM1569.97 485.5L1631.97 142C1632.3 140.667 1633.13 140 1634.47 140H1706.97C1708.3 140 1709.13 140.667 1709.47 142L1768.97 485.5C1769.3 487.167 1768.63 488 1766.97 488H1711.47C1710.13 488 1709.3 487.167 1708.97 485.5L1703.47 449H1635.47L1629.97 485.5C1629.63 487.167 1628.8 488 1627.47 488H1571.97C1570.63 488 1569.97 487.167 1569.97 485.5ZM1645.47 395.5H1693.47L1672.97 255L1669.97 236.5L1667.97 255L1645.47 395.5ZM1809.85 488C1807.18 488 1805.85 486.833 1805.85 484.5L1805.35 144C1805.35 141.333 1806.68 140 1809.35 140H1854.35L1938.85 337L1936.35 144C1936.35 141.333 1937.85 140 1940.85 140H1990.35C1992.35 140 1993.35 141.333 1993.35 144L1993.85 485C1993.85 487 1993.01 488 1991.35 488H1947.35L1860.85 304L1864.35 484C1864.35 486.667 1862.85 488 1859.85 488H1809.85ZM2134.28 493C2115.95 493 2099.28 488.5 2084.28 479.5C2069.61 470.167 2057.95 457.833 2049.28 442.5C2040.61 427.167 2036.28 410 2036.28 391L2036.78 235C2036.78 216.667 2040.95 200 2049.28 185C2057.95 169.667 2069.61 157.5 2084.28 148.5C2099.28 139.167 2115.95 134.5 2134.28 134.5C2152.61 134.5 2169.11 139 2183.78 148C2198.45 157 2210.11 169.167 2218.78 184.5C2227.45 199.5 2231.78 216.333 2231.78 235V258C2231.78 259.333 2231.11 260 2229.78 260H2173.78C2172.45 260 2171.78 259.333 2171.78 258V235C2171.78 224 2168.11 214.5 2160.78 206.5C2153.78 198.5 2144.95 194.5 2134.28 194.5C2122.28 194.5 2113.11 198.667 2106.78 207C2100.45 215 2097.28 224.333 2097.28 235V391C2097.28 403.333 2100.78 413.333 2107.78 421C2115.11 428.667 2123.95 432.5 2134.28 432.5C2144.95 432.5 2153.78 428.333 2160.78 420C2168.11 411.333 2171.78 401.667 2171.78 391V368C2171.78 366.667 2172.45 366 2173.78 366H2230.28C2231.61 366 2232.28 366.667 2232.28 368V391C2232.28 410 2227.78 427.167 2218.78 442.5C2210.11 457.833 2198.45 470.167 2183.78 479.5C2169.11 488.5 2152.61 493 2134.28 493ZM2275.84 488C2274.51 488 2273.84 487.167 2273.84 485.5L2274.34 142C2274.34 140.667 2275.01 140 2276.34 140H2436.84C2438.18 140 2438.84 140.833 2438.84 142.5V198.5C2438.84 199.833 2438.18 200.5 2436.84 200.5H2334.34V278.5H2436.84C2438.18 278.5 2438.84 279.167 2438.84 280.5L2439.34 337C2439.34 338.333 2438.68 339 2437.34 339H2334.34V426.5H2437.34C2438.68 426.5 2439.34 427.333 2439.34 429V486C2439.34 487.333 2438.68 488 2437.34 488H2275.84ZM2610.51 488C2608.64 488 2607.71 486.833 2607.71 484.5L2609.11 3.59998C2609.11 1.73331 2610.04 0.799972 2611.91 0.799972H2746.31C2772.91 0.799972 2796.71 7.3333 2817.71 20.4C2838.71 33 2855.28 49.8 2867.41 70.8C2879.54 91.8 2885.61 114.667 2885.61 139.4C2885.61 159.467 2880.94 178.133 2871.61 195.4C2862.74 212.667 2852.01 226.667 2839.41 237.4C2852.94 250.933 2863.44 266.567 2870.91 284.3C2878.38 302.033 2882.11 320.7 2882.11 340.3C2882.11 367.367 2875.58 392.1 2862.51 414.5C2849.44 436.9 2831.71 454.867 2809.31 468.4C2787.38 481.467 2762.88 488 2735.81 488H2610.51ZM2693.11 194H2746.31C2762.64 194 2775.71 188.4 2785.51 177.2C2795.78 165.533 2800.91 152.933 2800.91 139.4C2800.91 124.467 2795.54 111.633 2784.81 100.9C2774.08 89.7 2761.24 84.1 2746.31 84.1H2693.11V194ZM2692.41 402.6H2735.81C2752.61 402.6 2767.08 396.533 2779.21 384.4C2791.34 371.8 2797.41 357.1 2797.41 340.3C2797.41 323.5 2791.34 309.033 2779.21 296.9C2767.08 284.767 2752.61 278.7 2735.81 278.7H2693.11L2692.41 402.6ZM2933.42 488C2932.08 488 2931.42 487.167 2931.42 485.5L2931.92 142C2931.92 140.667 2932.75 140 2934.42 140H2989.92C2991.58 140 2992.42 140.667 2992.42 142L2991.92 278H3066.92V142C3066.92 140.667 3067.58 140 3068.92 140H3124.42C3126.08 140 3126.92 140.667 3126.92 142L3127.92 485.5C3127.92 487.167 3127.08 488 3125.42 488H3069.42C3067.75 488 3066.92 487.167 3066.92 485.5V338.5H2991.92V485.5C2991.92 487.167 2991.25 488 2989.92 488H2933.42ZM3156.72 485.5L3218.72 142C3219.05 140.667 3219.89 140 3221.22 140H3293.72C3295.05 140 3295.89 140.667 3296.22 142L3355.72 485.5C3356.05 487.167 3355.39 488 3353.72 488H3298.22C3296.89 488 3296.05 487.167 3295.72 485.5L3290.22 449H3222.22L3216.72 485.5C3216.39 487.167 3215.55 488 3214.22 488H3158.72C3157.39 488 3156.72 487.167 3156.72 485.5ZM3232.22 395.5H3280.22L3259.72 255L3256.72 236.5L3254.72 255L3232.22 395.5ZM3394.6 488C3392.93 488 3392.1 487.167 3392.1 485.5L3392.6 142C3392.6 140.667 3393.27 140 3394.6 140H3450.6C3451.93 140 3452.6 140.667 3452.6 142L3453.1 485.5C3453.1 487.167 3452.43 488 3451.1 488H3394.6ZM3548.58 488C3547.58 488 3547.08 487.333 3547.08 486L3547.58 344L3480.58 142C3480.25 140.667 3480.75 140 3482.08 140H3537.58C3539.25 140 3540.25 140.667 3540.58 142L3577.58 276.5L3615.08 142C3615.41 140.667 3616.25 140 3617.58 140H3673.58C3674.91 140 3675.41 140.667 3675.08 142L3607.58 342L3608.08 486C3608.08 487.333 3607.41 488 3606.08 488H3548.58ZM3660.98 485.5L3722.98 142C3723.31 140.667 3724.15 140 3725.48 140H3797.98C3799.31 140 3800.15 140.667 3800.48 142L3859.98 485.5C3860.31 487.167 3859.65 488 3857.98 488H3802.48C3801.15 488 3800.31 487.167 3799.98 485.5L3794.48 449H3726.48L3720.98 485.5C3720.65 487.167 3719.81 488 3718.48 488H3662.98C3661.65 488 3660.98 487.167 3660.98 485.5ZM3736.48 395.5H3784.48L3763.98 255L3760.98 236.5L3758.98 255L3736.48 395.5Z" fill="#0D1A2E"/>
</svg>
