<svg width="2809" height="942" viewBox="0 0 2809 942" fill="none" xmlns="http://www.w3.org/2000/svg">
<path d="M619.702 705.56C619.702 834.42 553.416 938.881 471.649 938.881C324.783 938.881 324.783 938.881 324.783 705.538C324.783 472.195 324.783 472.238 471.649 472.238C553.416 472.238 619.702 576.7 619.702 705.56Z" fill="#2E5DAB"/>
<circle cx="139.993" cy="139.993" r="139.993" fill="#7BAAF7"/>
<path d="M0 374.789C0 347.175 22.3858 324.789 50 324.789H229.986C257.6 324.789 279.986 347.175 279.986 374.789V928.891C279.986 934.414 275.509 938.891 269.986 938.891H50C22.3858 938.891 0 916.506 0 888.891V374.789Z" fill="#4285F4"/>
<path d="M801.5 492C799.167 492 798 490.833 798 488.5L798.7 7.59998C798.7 5.73331 799.633 4.79997 801.5 4.79997H879.9C881.767 4.79997 882.7 5.73331 882.7 7.59998L883.4 488.5C883.4 490.833 882.467 492 880.6 492H801.5ZM955.473 492C952.806 492 951.473 490.833 951.473 488.5L950.973 148C950.973 145.333 952.306 144 954.973 144H999.973L1084.47 341L1081.97 148C1081.97 145.333 1083.47 144 1086.47 144H1135.97C1137.97 144 1138.97 145.333 1138.97 148L1139.47 489C1139.47 491 1138.64 492 1136.97 492H1092.97L1006.47 308L1009.97 488C1009.97 490.667 1008.47 492 1005.47 492H955.473ZM1277.91 497C1259.91 497 1243.41 492.5 1228.41 483.5C1213.74 474.167 1201.91 462 1192.91 447C1184.24 431.667 1179.91 414.833 1179.91 396.5V373.5C1179.91 371.833 1180.74 371 1182.41 371H1238.41C1239.74 371 1240.41 371.833 1240.41 373.5V396.5C1240.41 407.5 1244.07 417 1251.41 425C1258.74 432.667 1267.57 436.5 1277.91 436.5C1288.24 436.5 1297.07 432.5 1304.41 424.5C1311.74 416.5 1315.41 407.167 1315.41 396.5C1315.41 384.167 1307.41 373.5 1291.41 364.5C1286.07 361.5 1277.74 356.833 1266.41 350.5C1255.07 344.167 1244.41 338.167 1234.41 332.5C1216.07 321.833 1202.41 308.5 1193.41 292.5C1184.74 276.167 1180.41 257.833 1180.41 237.5C1180.41 218.833 1184.91 202.167 1193.91 187.5C1202.91 172.5 1214.74 160.667 1229.41 152C1244.41 143.333 1260.57 139 1277.91 139C1295.57 139 1311.74 143.5 1326.41 152.5C1341.41 161.167 1353.24 173 1361.91 188C1370.91 202.667 1375.41 219.167 1375.41 237.5V278.5C1375.41 279.833 1374.74 280.5 1373.41 280.5H1317.41C1316.07 280.5 1315.41 279.833 1315.41 278.5L1314.91 237.5C1314.91 225.833 1311.24 216.333 1303.91 209C1296.57 201.667 1287.91 198 1277.91 198C1267.57 198 1258.74 202 1251.41 210C1244.07 217.667 1240.41 226.833 1240.41 237.5C1240.41 248.5 1242.74 257.667 1247.41 265C1252.07 272.333 1260.57 279.333 1272.91 286C1274.57 287 1277.74 288.833 1282.41 291.5C1287.41 293.833 1292.74 296.667 1298.41 300C1304.07 303 1309.07 305.667 1313.41 308C1318.07 310.333 1320.91 311.833 1321.91 312.5C1338.57 321.833 1351.74 333.333 1361.41 347C1371.07 360.333 1375.91 376.833 1375.91 396.5C1375.91 415.5 1371.41 432.667 1362.41 448C1353.74 463 1341.91 475 1326.91 484C1312.24 492.667 1295.91 497 1277.91 497ZM1512.68 497C1495.01 497 1478.68 492.5 1463.68 483.5C1448.68 474.167 1436.68 461.833 1427.68 446.5C1419.01 431.167 1414.68 414.333 1414.68 396L1415.68 146C1415.68 144.667 1416.35 144 1417.68 144H1473.68C1475.01 144 1475.68 144.667 1475.68 146V396C1475.68 407.333 1479.18 417 1486.18 425C1493.51 432.667 1502.35 436.5 1512.68 436.5C1523.35 436.5 1532.18 432.667 1539.18 425C1546.51 417 1550.18 407.333 1550.18 396V146C1550.18 144.667 1550.85 144 1552.18 144H1608.18C1609.51 144 1610.18 144.667 1610.18 146L1611.18 396C1611.18 414.667 1606.68 431.667 1597.68 447C1589.01 462.333 1577.18 474.5 1562.18 483.5C1547.51 492.5 1531.01 497 1512.68 497ZM1662.66 492C1661.33 492 1660.66 491.167 1660.66 489.5L1661.66 146C1661.66 144.667 1662.33 144 1663.66 144H1764.66C1782.66 144 1799.16 148.5 1814.16 157.5C1829.49 166.167 1841.66 178 1850.66 193C1859.66 207.667 1864.16 224.333 1864.16 243C1864.16 255.333 1862.33 266.5 1858.66 276.5C1854.99 286.167 1850.66 294.5 1845.66 301.5C1840.66 308.167 1836.16 313.167 1832.16 316.5C1850.16 336.5 1859.16 360 1859.16 387L1859.66 489.5C1859.66 491.167 1858.83 492 1857.16 492H1800.66C1799.33 492 1798.66 491.5 1798.66 490.5V387C1798.66 375 1794.33 364.667 1785.66 356C1777.33 347 1766.99 342.5 1754.66 342.5H1721.66L1721.16 489.5C1721.16 491.167 1720.49 492 1719.16 492H1662.66ZM1721.66 282.5H1764.66C1774.99 282.5 1784.16 278.667 1792.16 271C1800.16 263.333 1804.16 254 1804.16 243C1804.16 232.333 1800.16 223.167 1792.16 215.5C1784.49 207.833 1775.33 204 1764.66 204H1721.66V282.5ZM1894.87 489.5L1956.87 146C1957.2 144.667 1958.04 144 1959.37 144H2031.87C2033.2 144 2034.04 144.667 2034.37 146L2093.87 489.5C2094.2 491.167 2093.54 492 2091.87 492H2036.37C2035.04 492 2034.2 491.167 2033.87 489.5L2028.37 453H1960.37L1954.87 489.5C1954.54 491.167 1953.7 492 1952.37 492H1896.87C1895.54 492 1894.87 491.167 1894.87 489.5ZM1970.37 399.5H2018.37L1997.87 259L1994.87 240.5L1992.87 259L1970.37 399.5ZM2139.75 492C2137.08 492 2135.75 490.833 2135.75 488.5L2135.25 148C2135.25 145.333 2136.58 144 2139.25 144H2184.25L2268.75 341L2266.25 148C2266.25 145.333 2267.75 144 2270.75 144H2320.25C2322.25 144 2323.25 145.333 2323.25 148L2323.75 489C2323.75 491 2322.92 492 2321.25 492H2277.25L2190.75 308L2194.25 488C2194.25 490.667 2192.75 492 2189.75 492H2139.75ZM2469.18 497C2450.85 497 2434.18 492.5 2419.18 483.5C2404.52 474.167 2392.85 461.833 2384.18 446.5C2375.52 431.167 2371.18 414 2371.18 395L2371.68 239C2371.68 220.667 2375.85 204 2384.18 189C2392.85 173.667 2404.52 161.5 2419.18 152.5C2434.18 143.167 2450.85 138.5 2469.18 138.5C2487.52 138.5 2504.02 143 2518.68 152C2533.35 161 2545.02 173.167 2553.68 188.5C2562.35 203.5 2566.68 220.333 2566.68 239V262C2566.68 263.333 2566.02 264 2564.68 264H2508.68C2507.35 264 2506.68 263.333 2506.68 262V239C2506.68 228 2503.02 218.5 2495.68 210.5C2488.68 202.5 2479.85 198.5 2469.18 198.5C2457.18 198.5 2448.02 202.667 2441.68 211C2435.35 219 2432.18 228.333 2432.18 239V395C2432.18 407.333 2435.68 417.333 2442.68 425C2450.02 432.667 2458.85 436.5 2469.18 436.5C2479.85 436.5 2488.68 432.333 2495.68 424C2503.02 415.333 2506.68 405.667 2506.68 395V372C2506.68 370.667 2507.35 370 2508.68 370H2565.18C2566.52 370 2567.18 370.667 2567.18 372V395C2567.18 414 2562.68 431.167 2553.68 446.5C2545.02 461.833 2533.35 474.167 2518.68 483.5C2504.02 492.5 2487.52 497 2469.18 497ZM2615.75 492C2614.41 492 2613.75 491.167 2613.75 489.5L2614.25 146C2614.25 144.667 2614.91 144 2616.25 144H2776.75C2778.08 144 2778.75 144.833 2778.75 146.5V202.5C2778.75 203.833 2778.08 204.5 2776.75 204.5H2674.25V282.5H2776.75C2778.08 282.5 2778.75 283.167 2778.75 284.5L2779.25 341C2779.25 342.333 2778.58 343 2777.25 343H2674.25V430.5H2777.25C2778.58 430.5 2779.25 431.333 2779.25 433V490C2779.25 491.333 2778.58 492 2777.25 492H2615.75ZM792 942C790.667 942 790 941.167 790 939.5L791 596C791 594.667 791.667 594 793 594H889C908 594 925 598.667 940 608C955 617 966.833 629 975.5 644C984.167 659 988.5 675.333 988.5 693C988.5 707.333 985.167 720.667 978.5 733C972.167 745.333 964.5 755.333 955.5 763C965.167 772.667 972.667 783.833 978 796.5C983.333 809.167 986 822.5 986 836.5C986 855.833 981.333 873.5 972 889.5C962.667 905.5 950 918.333 934 928C918.333 937.333 900.833 942 881.5 942H792ZM851 732H889C900.667 732 910 728 917 720C924.333 711.667 928 702.667 928 693C928 682.333 924.167 673.167 916.5 665.5C908.833 657.5 899.667 653.5 889 653.5H851V732ZM850.5 881H881.5C893.5 881 903.833 876.667 912.5 868C921.167 859 925.5 848.5 925.5 836.5C925.5 824.5 921.167 814.167 912.5 805.5C903.833 796.833 893.5 792.5 881.5 792.5H851L850.5 881ZM1033.93 942C1032.6 942 1031.93 941.167 1031.93 939.5L1032.43 596C1032.43 594.667 1033.27 594 1034.93 594H1090.43C1092.1 594 1092.93 594.667 1092.93 596L1092.43 732H1167.43V596C1167.43 594.667 1168.1 594 1169.43 594H1224.93C1226.6 594 1227.43 594.667 1227.43 596L1228.43 939.5C1228.43 941.167 1227.6 942 1225.93 942H1169.93C1168.27 942 1167.43 941.167 1167.43 939.5V792.5H1092.43V939.5C1092.43 941.167 1091.77 942 1090.43 942H1033.93ZM1262.24 939.5L1324.24 596C1324.57 594.667 1325.4 594 1326.74 594H1399.24C1400.57 594 1401.4 594.667 1401.74 596L1461.24 939.5C1461.57 941.167 1460.9 942 1459.24 942H1403.74C1402.4 942 1401.57 941.167 1401.24 939.5L1395.74 903H1327.74L1322.24 939.5C1321.9 941.167 1321.07 942 1319.74 942H1264.24C1262.9 942 1262.24 941.167 1262.24 939.5ZM1337.74 849.5H1385.74L1365.24 709L1362.24 690.5L1360.24 709L1337.74 849.5ZM1505.12 942C1503.45 942 1502.62 941.167 1502.62 939.5L1503.12 596C1503.12 594.667 1503.78 594 1505.12 594H1561.12C1562.45 594 1563.12 594.667 1563.12 596L1563.62 939.5C1563.62 941.167 1562.95 942 1561.62 942H1505.12ZM1664.1 942C1663.1 942 1662.6 941.333 1662.6 940L1663.1 798L1596.1 596C1595.76 594.667 1596.26 594 1597.6 594H1653.1C1654.76 594 1655.76 594.667 1656.1 596L1693.1 730.5L1730.6 596C1730.93 594.667 1731.76 594 1733.1 594H1789.1C1790.43 594 1790.93 594.667 1790.6 596L1723.1 796L1723.6 940C1723.6 941.333 1722.93 942 1721.6 942H1664.1ZM1781.5 939.5L1843.5 596C1843.83 594.667 1844.66 594 1846 594H1918.5C1919.83 594 1920.66 594.667 1921 596L1980.5 939.5C1980.83 941.167 1980.16 942 1978.5 942H1923C1921.66 942 1920.83 941.167 1920.5 939.5L1915 903H1847L1841.5 939.5C1841.16 941.167 1840.33 942 1839 942H1783.5C1782.16 942 1781.5 941.167 1781.5 939.5ZM1857 849.5H1905L1884.5 709L1881.5 690.5L1879.5 709L1857 849.5Z" fill="#1A1A1A"/>
</svg>
