<svg width="3954" height="493" viewBox="0 0 3954 493" fill="none" xmlns="http://www.w3.org/2000/svg">
<path d="M322.096 366.725C322.096 433.701 287.643 487.996 245.144 487.996C168.809 487.996 168.809 487.996 168.809 366.714C168.809 245.431 168.809 245.453 245.144 245.453C287.643 245.453 322.096 299.748 322.096 366.725Z" fill="#2E5DAB"/>
<circle cx="72.763" cy="72.763" r="72.763" fill="#7BAAF7"/>
<path d="M0 218.816C0 191.202 22.3858 168.816 50 168.816H95.5259C123.14 168.816 145.526 191.202 145.526 218.816V478.003C145.526 483.526 141.049 488.003 135.526 488.003H50C22.3858 488.003 0 465.618 0 438.003V218.816Z" fill="#4285F4"/>
<path d="M503.596 488C501.262 488 500.096 486.833 500.096 484.5L500.796 3.59998C500.796 1.73331 501.729 0.799972 503.596 0.799972H581.996C583.862 0.799972 584.796 1.73331 584.796 3.59998L585.496 484.5C585.496 486.833 584.562 488 582.696 488H503.596ZM657.568 488C654.902 488 653.568 486.833 653.568 484.5L653.068 144C653.068 141.333 654.402 140 657.068 140H702.068L786.568 337L784.068 144C784.068 141.333 785.568 140 788.568 140H838.068C840.068 140 841.068 141.333 841.068 144L841.568 485C841.568 487 840.735 488 839.068 488H795.068L708.568 304L712.068 484C712.068 486.667 710.568 488 707.568 488H657.568ZM980.002 493C962.002 493 945.502 488.5 930.502 479.5C915.835 470.167 904.002 458 895.002 443C886.335 427.667 882.002 410.833 882.002 392.5V369.5C882.002 367.833 882.835 367 884.502 367H940.502C941.835 367 942.502 367.833 942.502 369.5V392.5C942.502 403.5 946.169 413 953.502 421C960.835 428.667 969.669 432.5 980.002 432.5C990.335 432.5 999.169 428.5 1006.5 420.5C1013.84 412.5 1017.5 403.167 1017.5 392.5C1017.5 380.167 1009.5 369.5 993.502 360.5C988.169 357.5 979.835 352.833 968.502 346.5C957.169 340.167 946.502 334.167 936.502 328.5C918.169 317.833 904.502 304.5 895.502 288.5C886.835 272.167 882.502 253.833 882.502 233.5C882.502 214.833 887.002 198.167 896.002 183.5C905.002 168.5 916.835 156.667 931.502 148C946.502 139.333 962.669 135 980.002 135C997.669 135 1013.84 139.5 1028.5 148.5C1043.5 157.167 1055.34 169 1064 184C1073 198.667 1077.5 215.167 1077.5 233.5V274.5C1077.5 275.833 1076.84 276.5 1075.5 276.5H1019.5C1018.17 276.5 1017.5 275.833 1017.5 274.5L1017 233.5C1017 221.833 1013.34 212.333 1006 205C998.669 197.667 990.002 194 980.002 194C969.669 194 960.835 198 953.502 206C946.169 213.667 942.502 222.833 942.502 233.5C942.502 244.5 944.835 253.667 949.502 261C954.169 268.333 962.669 275.333 975.002 282C976.669 283 979.835 284.833 984.502 287.5C989.502 289.833 994.835 292.667 1000.5 296C1006.17 299 1011.17 301.667 1015.5 304C1020.17 306.333 1023 307.833 1024 308.5C1040.67 317.833 1053.84 329.333 1063.5 343C1073.17 356.333 1078 372.833 1078 392.5C1078 411.5 1073.5 428.667 1064.5 444C1055.84 459 1044 471 1029 480C1014.34 488.667 998.002 493 980.002 493ZM1214.78 493C1197.11 493 1180.78 488.5 1165.78 479.5C1150.78 470.167 1138.78 457.833 1129.78 442.5C1121.11 427.167 1116.78 410.333 1116.78 392L1117.78 142C1117.78 140.667 1118.44 140 1119.78 140H1175.78C1177.11 140 1177.78 140.667 1177.78 142V392C1177.78 403.333 1181.28 413 1188.28 421C1195.61 428.667 1204.44 432.5 1214.78 432.5C1225.44 432.5 1234.28 428.667 1241.28 421C1248.61 413 1252.28 403.333 1252.28 392V142C1252.28 140.667 1252.94 140 1254.28 140H1310.28C1311.61 140 1312.28 140.667 1312.28 142L1313.28 392C1313.28 410.667 1308.78 427.667 1299.78 443C1291.11 458.333 1279.28 470.5 1264.28 479.5C1249.61 488.5 1233.11 493 1214.78 493ZM1364.76 488C1363.42 488 1362.76 487.167 1362.76 485.5L1363.76 142C1363.76 140.667 1364.42 140 1365.76 140H1466.76C1484.76 140 1501.26 144.5 1516.26 153.5C1531.59 162.167 1543.76 174 1552.76 189C1561.76 203.667 1566.26 220.333 1566.26 239C1566.26 251.333 1564.42 262.5 1560.76 272.5C1557.09 282.167 1552.76 290.5 1547.76 297.5C1542.76 304.167 1538.26 309.167 1534.26 312.5C1552.26 332.5 1561.26 356 1561.26 383L1561.76 485.5C1561.76 487.167 1560.92 488 1559.26 488H1502.76C1501.42 488 1500.76 487.5 1500.76 486.5V383C1500.76 371 1496.42 360.667 1487.76 352C1479.42 343 1469.09 338.5 1456.76 338.5H1423.76L1423.26 485.5C1423.26 487.167 1422.59 488 1421.26 488H1364.76ZM1423.76 278.5H1466.76C1477.09 278.5 1486.26 274.667 1494.26 267C1502.26 259.333 1506.26 250 1506.26 239C1506.26 228.333 1502.26 219.167 1494.26 211.5C1486.59 203.833 1477.42 200 1466.76 200H1423.76V278.5ZM1596.97 485.5L1658.97 142C1659.3 140.667 1660.13 140 1661.47 140H1733.97C1735.3 140 1736.13 140.667 1736.47 142L1795.97 485.5C1796.3 487.167 1795.63 488 1793.97 488H1738.47C1737.13 488 1736.3 487.167 1735.97 485.5L1730.47 449H1662.47L1656.97 485.5C1656.63 487.167 1655.8 488 1654.47 488H1598.97C1597.63 488 1596.97 487.167 1596.97 485.5ZM1672.47 395.5H1720.47L1699.97 255L1696.97 236.5L1694.97 255L1672.47 395.5ZM1841.85 488C1839.18 488 1837.85 486.833 1837.85 484.5L1837.35 144C1837.35 141.333 1838.68 140 1841.35 140H1886.35L1970.85 337L1968.35 144C1968.35 141.333 1969.85 140 1972.85 140H2022.35C2024.35 140 2025.35 141.333 2025.35 144L2025.85 485C2025.85 487 2025.01 488 2023.35 488H1979.35L1892.85 304L1896.35 484C1896.35 486.667 1894.85 488 1891.85 488H1841.85ZM2171.28 493C2152.95 493 2136.28 488.5 2121.28 479.5C2106.61 470.167 2094.95 457.833 2086.28 442.5C2077.61 427.167 2073.28 410 2073.28 391L2073.78 235C2073.78 216.667 2077.95 200 2086.28 185C2094.95 169.667 2106.61 157.5 2121.28 148.5C2136.28 139.167 2152.95 134.5 2171.28 134.5C2189.61 134.5 2206.11 139 2220.78 148C2235.45 157 2247.11 169.167 2255.78 184.5C2264.45 199.5 2268.78 216.333 2268.78 235V258C2268.78 259.333 2268.11 260 2266.78 260H2210.78C2209.45 260 2208.78 259.333 2208.78 258V235C2208.78 224 2205.11 214.5 2197.78 206.5C2190.78 198.5 2181.95 194.5 2171.28 194.5C2159.28 194.5 2150.11 198.667 2143.78 207C2137.45 215 2134.28 224.333 2134.28 235V391C2134.28 403.333 2137.78 413.333 2144.78 421C2152.11 428.667 2160.95 432.5 2171.28 432.5C2181.95 432.5 2190.78 428.333 2197.78 420C2205.11 411.333 2208.78 401.667 2208.78 391V368C2208.78 366.667 2209.45 366 2210.78 366H2267.28C2268.61 366 2269.28 366.667 2269.28 368V391C2269.28 410 2264.78 427.167 2255.78 442.5C2247.11 457.833 2235.45 470.167 2220.78 479.5C2206.11 488.5 2189.61 493 2171.28 493ZM2317.84 488C2316.51 488 2315.84 487.167 2315.84 485.5L2316.34 142C2316.34 140.667 2317.01 140 2318.34 140H2478.84C2480.18 140 2480.84 140.833 2480.84 142.5V198.5C2480.84 199.833 2480.18 200.5 2478.84 200.5H2376.34V278.5H2478.84C2480.18 278.5 2480.84 279.167 2480.84 280.5L2481.34 337C2481.34 338.333 2480.68 339 2479.34 339H2376.34V426.5H2479.34C2480.68 426.5 2481.34 427.333 2481.34 429V486C2481.34 487.333 2480.68 488 2479.34 488H2317.84ZM2664.51 488C2662.64 488 2661.71 486.833 2661.71 484.5L2663.11 3.59998C2663.11 1.73331 2664.04 0.799972 2665.91 0.799972H2800.31C2826.91 0.799972 2850.71 7.3333 2871.71 20.4C2892.71 33 2909.28 49.8 2921.41 70.8C2933.54 91.8 2939.61 114.667 2939.61 139.4C2939.61 159.467 2934.94 178.133 2925.61 195.4C2916.74 212.667 2906.01 226.667 2893.41 237.4C2906.94 250.933 2917.44 266.567 2924.91 284.3C2932.38 302.033 2936.11 320.7 2936.11 340.3C2936.11 367.367 2929.58 392.1 2916.51 414.5C2903.44 436.9 2885.71 454.867 2863.31 468.4C2841.38 481.467 2816.88 488 2789.81 488H2664.51ZM2747.11 194H2800.31C2816.64 194 2829.71 188.4 2839.51 177.2C2849.78 165.533 2854.91 152.933 2854.91 139.4C2854.91 124.467 2849.54 111.633 2838.81 100.9C2828.08 89.7 2815.24 84.1 2800.31 84.1H2747.11V194ZM2746.41 402.6H2789.81C2806.61 402.6 2821.08 396.533 2833.21 384.4C2845.34 371.8 2851.41 357.1 2851.41 340.3C2851.41 323.5 2845.34 309.033 2833.21 296.9C2821.08 284.767 2806.61 278.7 2789.81 278.7H2747.11L2746.41 402.6ZM2994.42 488C2993.08 488 2992.42 487.167 2992.42 485.5L2992.92 142C2992.92 140.667 2993.75 140 2995.42 140H3050.92C3052.58 140 3053.42 140.667 3053.42 142L3052.92 278H3127.92V142C3127.92 140.667 3128.58 140 3129.92 140H3185.42C3187.08 140 3187.92 140.667 3187.92 142L3188.92 485.5C3188.92 487.167 3188.08 488 3186.42 488H3130.42C3128.75 488 3127.92 487.167 3127.92 485.5V338.5H3052.92V485.5C3052.92 487.167 3052.25 488 3050.92 488H2994.42ZM3222.72 485.5L3284.72 142C3285.05 140.667 3285.89 140 3287.22 140H3359.72C3361.05 140 3361.89 140.667 3362.22 142L3421.72 485.5C3422.05 487.167 3421.39 488 3419.72 488H3364.22C3362.89 488 3362.05 487.167 3361.72 485.5L3356.22 449H3288.22L3282.72 485.5C3282.39 487.167 3281.55 488 3280.22 488H3224.72C3223.39 488 3222.72 487.167 3222.72 485.5ZM3298.22 395.5H3346.22L3325.72 255L3322.72 236.5L3320.72 255L3298.22 395.5ZM3465.6 488C3463.93 488 3463.1 487.167 3463.1 485.5L3463.6 142C3463.6 140.667 3464.27 140 3465.6 140H3521.6C3522.93 140 3523.6 140.667 3523.6 142L3524.1 485.5C3524.1 487.167 3523.43 488 3522.1 488H3465.6ZM3624.58 488C3623.58 488 3623.08 487.333 3623.08 486L3623.58 344L3556.58 142C3556.25 140.667 3556.75 140 3558.08 140H3613.58C3615.25 140 3616.25 140.667 3616.58 142L3653.58 276.5L3691.08 142C3691.41 140.667 3692.25 140 3693.58 140H3749.58C3750.91 140 3751.41 140.667 3751.08 142L3683.58 342L3684.08 486C3684.08 487.333 3683.41 488 3682.08 488H3624.58ZM3741.98 485.5L3803.98 142C3804.31 140.667 3805.15 140 3806.48 140H3878.98C3880.31 140 3881.15 140.667 3881.48 142L3940.98 485.5C3941.31 487.167 3940.65 488 3938.98 488H3883.48C3882.15 488 3881.31 487.167 3880.98 485.5L3875.48 449H3807.48L3801.98 485.5C3801.65 487.167 3800.81 488 3799.48 488H3743.98C3742.65 488 3741.98 487.167 3741.98 485.5ZM3817.48 395.5H3865.48L3844.98 255L3841.98 236.5L3839.98 255L3817.48 395.5Z" fill="white"/>
</svg>
