<svg width="854" height="854" viewBox="0 0 854 854" fill="none" xmlns="http://www.w3.org/2000/svg">
<path d="M643.982 591.97C643.982 682.004 597.669 754.991 540.538 754.991C437.924 754.991 437.924 754.991 437.924 591.955C437.924 428.919 437.924 428.949 540.538 428.949C597.669 428.949 643.982 501.936 643.982 591.97Z" fill="#2E5DAB"/>
<circle cx="308.812" cy="196.812" r="97.8125" fill="#7BAAF7"/>
<path d="M211 375.93C211 348.315 233.386 325.93 261 325.93H356.625C384.239 325.93 406.625 348.315 406.625 375.93V745.001C406.625 750.523 402.148 755.001 396.625 755.001H261C233.386 755.001 211 732.615 211 705.001V375.93Z" fill="#4285F4"/>
</svg>
