<svg width="2737" height="941" viewBox="0 0 2737 941" fill="none" xmlns="http://www.w3.org/2000/svg">
<path d="M619.702 707.56C619.702 836.42 553.416 940.881 471.649 940.881C324.783 940.881 324.783 940.881 324.783 707.538C324.783 474.195 324.783 474.238 471.649 474.238C553.416 474.238 619.702 578.7 619.702 707.56Z" fill="#2E5DAB"/>
<circle cx="139.993" cy="141.993" r="139.993" fill="#7BAAF7"/>
<path d="M0 376.789C0 349.175 22.3858 326.789 50 326.789H229.986C257.6 326.789 279.986 349.175 279.986 376.789V930.891C279.986 936.414 275.509 940.891 269.986 940.891H50C22.3858 940.891 0 918.506 0 890.891V376.789Z" fill="#4285F4"/>
<path d="M801.201 488C798.868 488 797.701 486.833 797.701 484.5L798.401 3.59998C798.401 1.73331 799.335 0.799972 801.201 0.799972H879.601C881.468 0.799972 882.401 1.73331 882.401 3.59998L883.101 484.5C883.101 486.833 882.168 488 880.301 488H801.201ZM941.174 488C938.507 488 937.174 486.833 937.174 484.5L936.674 144C936.674 141.333 938.007 140 940.674 140H985.674L1070.17 337L1067.67 144C1067.67 141.333 1069.17 140 1072.17 140H1121.67C1123.67 140 1124.67 141.333 1124.67 144L1125.17 485C1125.17 487 1124.34 488 1122.67 488H1078.67L992.174 304L995.674 484C995.674 486.667 994.174 488 991.174 488H941.174ZM1253.61 493C1235.61 493 1219.11 488.5 1204.11 479.5C1189.44 470.167 1177.61 458 1168.61 443C1159.94 427.667 1155.61 410.833 1155.61 392.5V369.5C1155.61 367.833 1156.44 367 1158.11 367H1214.11C1215.44 367 1216.11 367.833 1216.11 369.5V392.5C1216.11 403.5 1219.77 413 1227.11 421C1234.44 428.667 1243.27 432.5 1253.61 432.5C1263.94 432.5 1272.77 428.5 1280.11 420.5C1287.44 412.5 1291.11 403.167 1291.11 392.5C1291.11 380.167 1283.11 369.5 1267.11 360.5C1261.77 357.5 1253.44 352.833 1242.11 346.5C1230.77 340.167 1220.11 334.167 1210.11 328.5C1191.77 317.833 1178.11 304.5 1169.11 288.5C1160.44 272.167 1156.11 253.833 1156.11 233.5C1156.11 214.833 1160.61 198.167 1169.61 183.5C1178.61 168.5 1190.44 156.667 1205.11 148C1220.11 139.333 1236.27 135 1253.61 135C1271.27 135 1287.44 139.5 1302.11 148.5C1317.11 157.167 1328.94 169 1337.61 184C1346.61 198.667 1351.11 215.167 1351.11 233.5V274.5C1351.11 275.833 1350.44 276.5 1349.11 276.5H1293.11C1291.77 276.5 1291.11 275.833 1291.11 274.5L1290.61 233.5C1290.61 221.833 1286.94 212.333 1279.61 205C1272.27 197.667 1263.61 194 1253.61 194C1243.27 194 1234.44 198 1227.11 206C1219.77 213.667 1216.11 222.833 1216.11 233.5C1216.11 244.5 1218.44 253.667 1223.11 261C1227.77 268.333 1236.27 275.333 1248.61 282C1250.27 283 1253.44 284.833 1258.11 287.5C1263.11 289.833 1268.44 292.667 1274.11 296C1279.77 299 1284.77 301.667 1289.11 304C1293.77 306.333 1296.61 307.833 1297.61 308.5C1314.27 317.833 1327.44 329.333 1337.11 343C1346.77 356.333 1351.61 372.833 1351.61 392.5C1351.61 411.5 1347.11 428.667 1338.11 444C1329.44 459 1317.61 471 1302.61 480C1287.94 488.667 1271.61 493 1253.61 493ZM1478.38 493C1460.71 493 1444.38 488.5 1429.38 479.5C1414.38 470.167 1402.38 457.833 1393.38 442.5C1384.71 427.167 1380.38 410.333 1380.38 392L1381.38 142C1381.38 140.667 1382.05 140 1383.38 140H1439.38C1440.71 140 1441.38 140.667 1441.38 142V392C1441.38 403.333 1444.88 413 1451.88 421C1459.21 428.667 1468.05 432.5 1478.38 432.5C1489.05 432.5 1497.88 428.667 1504.88 421C1512.21 413 1515.88 403.333 1515.88 392V142C1515.88 140.667 1516.55 140 1517.88 140H1573.88C1575.21 140 1575.88 140.667 1575.88 142L1576.88 392C1576.88 410.667 1572.38 427.667 1563.38 443C1554.71 458.333 1542.88 470.5 1527.88 479.5C1513.21 488.5 1496.71 493 1478.38 493ZM1618.36 488C1617.03 488 1616.36 487.167 1616.36 485.5L1617.36 142C1617.36 140.667 1618.03 140 1619.36 140H1720.36C1738.36 140 1754.86 144.5 1769.86 153.5C1785.19 162.167 1797.36 174 1806.36 189C1815.36 203.667 1819.86 220.333 1819.86 239C1819.86 251.333 1818.03 262.5 1814.36 272.5C1810.69 282.167 1806.36 290.5 1801.36 297.5C1796.36 304.167 1791.86 309.167 1787.86 312.5C1805.86 332.5 1814.86 356 1814.86 383L1815.36 485.5C1815.36 487.167 1814.53 488 1812.86 488H1756.36C1755.03 488 1754.36 487.5 1754.36 486.5V383C1754.36 371 1750.03 360.667 1741.36 352C1733.03 343 1722.69 338.5 1710.36 338.5H1677.36L1676.86 485.5C1676.86 487.167 1676.19 488 1674.86 488H1618.36ZM1677.36 278.5H1720.36C1730.69 278.5 1739.86 274.667 1747.86 267C1755.86 259.333 1759.86 250 1759.86 239C1759.86 228.333 1755.86 219.167 1747.86 211.5C1740.19 203.833 1731.03 200 1720.36 200H1677.36V278.5ZM1840.57 485.5L1902.57 142C1902.91 140.667 1903.74 140 1905.07 140H1977.57C1978.91 140 1979.74 140.667 1980.07 142L2039.57 485.5C2039.91 487.167 2039.24 488 2037.57 488H1982.07C1980.74 488 1979.91 487.167 1979.57 485.5L1974.07 449H1906.07L1900.57 485.5C1900.24 487.167 1899.41 488 1898.07 488H1842.57C1841.24 488 1840.57 487.167 1840.57 485.5ZM1916.07 395.5H1964.07L1943.57 255L1940.57 236.5L1938.57 255L1916.07 395.5ZM2075.45 488C2072.78 488 2071.45 486.833 2071.45 484.5L2070.95 144C2070.95 141.333 2072.28 140 2074.95 140H2119.95L2204.45 337L2201.95 144C2201.95 141.333 2203.45 140 2206.45 140H2255.95C2257.95 140 2258.95 141.333 2258.95 144L2259.45 485C2259.45 487 2258.62 488 2256.95 488H2212.95L2126.45 304L2129.95 484C2129.95 486.667 2128.45 488 2125.45 488H2075.45ZM2394.88 493C2376.55 493 2359.88 488.5 2344.88 479.5C2330.22 470.167 2318.55 457.833 2309.88 442.5C2301.22 427.167 2296.88 410 2296.88 391L2297.38 235C2297.38 216.667 2301.55 200 2309.88 185C2318.55 169.667 2330.22 157.5 2344.88 148.5C2359.88 139.167 2376.55 134.5 2394.88 134.5C2413.22 134.5 2429.72 139 2444.38 148C2459.05 157 2470.72 169.167 2479.38 184.5C2488.05 199.5 2492.38 216.333 2492.38 235V258C2492.38 259.333 2491.72 260 2490.38 260H2434.38C2433.05 260 2432.38 259.333 2432.38 258V235C2432.38 224 2428.72 214.5 2421.38 206.5C2414.38 198.5 2405.55 194.5 2394.88 194.5C2382.88 194.5 2373.72 198.667 2367.38 207C2361.05 215 2357.88 224.333 2357.88 235V391C2357.88 403.333 2361.38 413.333 2368.38 421C2375.72 428.667 2384.55 432.5 2394.88 432.5C2405.55 432.5 2414.38 428.333 2421.38 420C2428.72 411.333 2432.38 401.667 2432.38 391V368C2432.38 366.667 2433.05 366 2434.38 366H2490.88C2492.22 366 2492.88 366.667 2492.88 368V391C2492.88 410 2488.38 427.167 2479.38 442.5C2470.72 457.833 2459.05 470.167 2444.38 479.5C2429.72 488.5 2413.22 493 2394.88 493ZM2531.45 488C2530.11 488 2529.45 487.167 2529.45 485.5L2529.95 142C2529.95 140.667 2530.61 140 2531.95 140H2692.45C2693.78 140 2694.45 140.833 2694.45 142.5V198.5C2694.45 199.833 2693.78 200.5 2692.45 200.5H2589.95V278.5H2692.45C2693.78 278.5 2694.45 279.167 2694.45 280.5L2694.95 337C2694.95 338.333 2694.28 339 2692.95 339H2589.95V426.5H2692.95C2694.28 426.5 2694.95 427.333 2694.95 429V486C2694.95 487.333 2694.28 488 2692.95 488H2531.45ZM791.701 938C790.368 938 789.701 937.167 789.701 935.5L790.701 592C790.701 590.667 791.368 590 792.701 590H888.701C907.701 590 924.701 594.667 939.701 604C954.701 613 966.535 625 975.201 640C983.868 655 988.201 671.333 988.201 689C988.201 703.333 984.868 716.667 978.201 729C971.868 741.333 964.201 751.333 955.201 759C964.868 768.667 972.368 779.833 977.701 792.5C983.035 805.167 985.701 818.5 985.701 832.5C985.701 851.833 981.035 869.5 971.701 885.5C962.368 901.5 949.701 914.333 933.701 924C918.035 933.333 900.535 938 881.201 938H791.701ZM850.701 728H888.701C900.368 728 909.701 724 916.701 716C924.035 707.667 927.701 698.667 927.701 689C927.701 678.333 923.868 669.167 916.201 661.5C908.535 653.5 899.368 649.5 888.701 649.5H850.701V728ZM850.201 877H881.201C893.201 877 903.535 872.667 912.201 864C920.868 855 925.201 844.5 925.201 832.5C925.201 820.5 920.868 810.167 912.201 801.5C903.535 792.833 893.201 788.5 881.201 788.5H850.701L850.201 877ZM1023.63 938C1022.3 938 1021.63 937.167 1021.63 935.5L1022.13 592C1022.13 590.667 1022.97 590 1024.63 590H1080.13C1081.8 590 1082.63 590.667 1082.63 592L1082.13 728H1157.13V592C1157.13 590.667 1157.8 590 1159.13 590H1214.63C1216.3 590 1217.13 590.667 1217.13 592L1218.13 935.5C1218.13 937.167 1217.3 938 1215.63 938H1159.63C1157.97 938 1157.13 937.167 1157.13 935.5V788.5H1082.13V935.5C1082.13 937.167 1081.47 938 1080.13 938H1023.63ZM1241.94 935.5L1303.94 592C1304.27 590.667 1305.11 590 1306.44 590H1378.94C1380.27 590 1381.11 590.667 1381.44 592L1440.94 935.5C1441.27 937.167 1440.61 938 1438.94 938H1383.44C1382.11 938 1381.27 937.167 1380.94 935.5L1375.44 899H1307.44L1301.94 935.5C1301.61 937.167 1300.77 938 1299.44 938H1243.94C1242.61 938 1241.94 937.167 1241.94 935.5ZM1317.44 845.5H1365.44L1344.94 705L1341.94 686.5L1339.94 705L1317.44 845.5ZM1474.82 938C1473.15 938 1472.32 937.167 1472.32 935.5L1472.82 592C1472.82 590.667 1473.49 590 1474.82 590H1530.82C1532.15 590 1532.82 590.667 1532.82 592L1533.32 935.5C1533.32 937.167 1532.65 938 1531.32 938H1474.82ZM1623.8 938C1622.8 938 1622.3 937.333 1622.3 936L1622.8 794L1555.8 592C1555.47 590.667 1555.97 590 1557.3 590H1612.8C1614.47 590 1615.47 590.667 1615.8 592L1652.8 726.5L1690.3 592C1690.63 590.667 1691.47 590 1692.8 590H1748.8C1750.13 590 1750.63 590.667 1750.3 592L1682.8 792L1683.3 936C1683.3 937.333 1682.63 938 1681.3 938H1623.8ZM1731.2 935.5L1793.2 592C1793.53 590.667 1794.36 590 1795.7 590H1868.2C1869.53 590 1870.36 590.667 1870.7 592L1930.2 935.5C1930.53 937.167 1929.86 938 1928.2 938H1872.7C1871.36 938 1870.53 937.167 1870.2 935.5L1864.7 899H1796.7L1791.2 935.5C1790.86 937.167 1790.03 938 1788.7 938H1733.2C1731.86 938 1731.2 937.167 1731.2 935.5ZM1806.7 845.5H1854.7L1834.2 705L1831.2 686.5L1829.2 705L1806.7 845.5Z" fill="white"/>
</svg>
