<svg width="2726" height="942" viewBox="0 0 2726 942" fill="none" xmlns="http://www.w3.org/2000/svg">
<path d="M619.702 705.56C619.702 834.42 553.416 938.881 471.649 938.881C324.783 938.881 324.783 938.881 324.783 705.538C324.783 472.195 324.783 472.238 471.649 472.238C553.416 472.238 619.702 576.7 619.702 705.56Z" fill="#2E5DAB"/>
<circle cx="139.993" cy="139.993" r="139.993" fill="#7BAAF7"/>
<path d="M0 374.789C0 347.175 22.3858 324.789 50 324.789H229.986C257.6 324.789 279.986 347.175 279.986 374.789V928.891C279.986 934.414 275.509 938.891 269.986 938.891H50C22.3858 938.891 0 916.506 0 888.891V374.789Z" fill="#4285F4"/>
<path d="M801.201 492C798.868 492 797.701 490.833 797.701 488.5L798.401 7.59998C798.401 5.73331 799.335 4.79997 801.201 4.79997H879.601C881.468 4.79997 882.401 5.73331 882.401 7.59998L883.101 488.5C883.101 490.833 882.168 492 880.301 492H801.201ZM941.174 492C938.507 492 937.174 490.833 937.174 488.5L936.674 148C936.674 145.333 938.007 144 940.674 144H985.674L1070.17 341L1067.67 148C1067.67 145.333 1069.17 144 1072.17 144H1121.67C1123.67 144 1124.67 145.333 1124.67 148L1125.17 489C1125.17 491 1124.34 492 1122.67 492H1078.67L992.174 308L995.674 488C995.674 490.667 994.174 492 991.174 492H941.174ZM1253.61 497C1235.61 497 1219.11 492.5 1204.11 483.5C1189.44 474.167 1177.61 462 1168.61 447C1159.94 431.667 1155.61 414.833 1155.61 396.5V373.5C1155.61 371.833 1156.44 371 1158.11 371H1214.11C1215.44 371 1216.11 371.833 1216.11 373.5V396.5C1216.11 407.5 1219.77 417 1227.11 425C1234.44 432.667 1243.27 436.5 1253.61 436.5C1263.94 436.5 1272.77 432.5 1280.11 424.5C1287.44 416.5 1291.11 407.167 1291.11 396.5C1291.11 384.167 1283.11 373.5 1267.11 364.5C1261.77 361.5 1253.44 356.833 1242.11 350.5C1230.77 344.167 1220.11 338.167 1210.11 332.5C1191.77 321.833 1178.11 308.5 1169.11 292.5C1160.44 276.167 1156.11 257.833 1156.11 237.5C1156.11 218.833 1160.61 202.167 1169.61 187.5C1178.61 172.5 1190.44 160.667 1205.11 152C1220.11 143.333 1236.27 139 1253.61 139C1271.27 139 1287.44 143.5 1302.11 152.5C1317.11 161.167 1328.94 173 1337.61 188C1346.61 202.667 1351.11 219.167 1351.11 237.5V278.5C1351.11 279.833 1350.44 280.5 1349.11 280.5H1293.11C1291.77 280.5 1291.11 279.833 1291.11 278.5L1290.61 237.5C1290.61 225.833 1286.94 216.333 1279.61 209C1272.27 201.667 1263.61 198 1253.61 198C1243.27 198 1234.44 202 1227.11 210C1219.77 217.667 1216.11 226.833 1216.11 237.5C1216.11 248.5 1218.44 257.667 1223.11 265C1227.77 272.333 1236.27 279.333 1248.61 286C1250.27 287 1253.44 288.833 1258.11 291.5C1263.11 293.833 1268.44 296.667 1274.11 300C1279.77 303 1284.77 305.667 1289.11 308C1293.77 310.333 1296.61 311.833 1297.61 312.5C1314.27 321.833 1327.44 333.333 1337.11 347C1346.77 360.333 1351.61 376.833 1351.61 396.5C1351.61 415.5 1347.11 432.667 1338.11 448C1329.44 463 1317.61 475 1302.61 484C1287.94 492.667 1271.61 497 1253.61 497ZM1478.38 497C1460.71 497 1444.38 492.5 1429.38 483.5C1414.38 474.167 1402.38 461.833 1393.38 446.5C1384.71 431.167 1380.38 414.333 1380.38 396L1381.38 146C1381.38 144.667 1382.05 144 1383.38 144H1439.38C1440.71 144 1441.38 144.667 1441.38 146V396C1441.38 407.333 1444.88 417 1451.88 425C1459.21 432.667 1468.05 436.5 1478.38 436.5C1489.05 436.5 1497.88 432.667 1504.88 425C1512.21 417 1515.88 407.333 1515.88 396V146C1515.88 144.667 1516.55 144 1517.88 144H1573.88C1575.21 144 1575.88 144.667 1575.88 146L1576.88 396C1576.88 414.667 1572.38 431.667 1563.38 447C1554.71 462.333 1542.88 474.5 1527.88 483.5C1513.21 492.5 1496.71 497 1478.38 497ZM1618.36 492C1617.03 492 1616.36 491.167 1616.36 489.5L1617.36 146C1617.36 144.667 1618.03 144 1619.36 144H1720.36C1738.36 144 1754.86 148.5 1769.86 157.5C1785.19 166.167 1797.36 178 1806.36 193C1815.36 207.667 1819.86 224.333 1819.86 243C1819.86 255.333 1818.03 266.5 1814.36 276.5C1810.69 286.167 1806.36 294.5 1801.36 301.5C1796.36 308.167 1791.86 313.167 1787.86 316.5C1805.86 336.5 1814.86 360 1814.86 387L1815.36 489.5C1815.36 491.167 1814.53 492 1812.86 492H1756.36C1755.03 492 1754.36 491.5 1754.36 490.5V387C1754.36 375 1750.03 364.667 1741.36 356C1733.03 347 1722.69 342.5 1710.36 342.5H1677.36L1676.86 489.5C1676.86 491.167 1676.19 492 1674.86 492H1618.36ZM1677.36 282.5H1720.36C1730.69 282.5 1739.86 278.667 1747.86 271C1755.86 263.333 1759.86 254 1759.86 243C1759.86 232.333 1755.86 223.167 1747.86 215.5C1740.19 207.833 1731.03 204 1720.36 204H1677.36V282.5ZM1840.57 489.5L1902.57 146C1902.91 144.667 1903.74 144 1905.07 144H1977.57C1978.91 144 1979.74 144.667 1980.07 146L2039.57 489.5C2039.91 491.167 2039.24 492 2037.57 492H1982.07C1980.74 492 1979.91 491.167 1979.57 489.5L1974.07 453H1906.07L1900.57 489.5C1900.24 491.167 1899.41 492 1898.07 492H1842.57C1841.24 492 1840.57 491.167 1840.57 489.5ZM1916.07 399.5H1964.07L1943.57 259L1940.57 240.5L1938.57 259L1916.07 399.5ZM2075.45 492C2072.78 492 2071.45 490.833 2071.45 488.5L2070.95 148C2070.95 145.333 2072.28 144 2074.95 144H2119.95L2204.45 341L2201.95 148C2201.95 145.333 2203.45 144 2206.45 144H2255.95C2257.95 144 2258.95 145.333 2258.95 148L2259.45 489C2259.45 491 2258.62 492 2256.95 492H2212.95L2126.45 308L2129.95 488C2129.95 490.667 2128.45 492 2125.45 492H2075.45ZM2394.88 497C2376.55 497 2359.88 492.5 2344.88 483.5C2330.22 474.167 2318.55 461.833 2309.88 446.5C2301.22 431.167 2296.88 414 2296.88 395L2297.38 239C2297.38 220.667 2301.55 204 2309.88 189C2318.55 173.667 2330.22 161.5 2344.88 152.5C2359.88 143.167 2376.55 138.5 2394.88 138.5C2413.22 138.5 2429.72 143 2444.38 152C2459.05 161 2470.72 173.167 2479.38 188.5C2488.05 203.5 2492.38 220.333 2492.38 239V262C2492.38 263.333 2491.72 264 2490.38 264H2434.38C2433.05 264 2432.38 263.333 2432.38 262V239C2432.38 228 2428.72 218.5 2421.38 210.5C2414.38 202.5 2405.55 198.5 2394.88 198.5C2382.88 198.5 2373.72 202.667 2367.38 211C2361.05 219 2357.88 228.333 2357.88 239V395C2357.88 407.333 2361.38 417.333 2368.38 425C2375.72 432.667 2384.55 436.5 2394.88 436.5C2405.55 436.5 2414.38 432.333 2421.38 424C2428.72 415.333 2432.38 405.667 2432.38 395V372C2432.38 370.667 2433.05 370 2434.38 370H2490.88C2492.22 370 2492.88 370.667 2492.88 372V395C2492.88 414 2488.38 431.167 2479.38 446.5C2470.72 461.833 2459.05 474.167 2444.38 483.5C2429.72 492.5 2413.22 497 2394.88 497ZM2531.45 492C2530.11 492 2529.45 491.167 2529.45 489.5L2529.95 146C2529.95 144.667 2530.61 144 2531.95 144H2692.45C2693.78 144 2694.45 144.833 2694.45 146.5V202.5C2694.45 203.833 2693.78 204.5 2692.45 204.5H2589.95V282.5H2692.45C2693.78 282.5 2694.45 283.167 2694.45 284.5L2694.95 341C2694.95 342.333 2694.28 343 2692.95 343H2589.95V430.5H2692.95C2694.28 430.5 2694.95 431.333 2694.95 433V490C2694.95 491.333 2694.28 492 2692.95 492H2531.45ZM791.701 942C790.368 942 789.701 941.167 789.701 939.5L790.701 596C790.701 594.667 791.368 594 792.701 594H888.701C907.701 594 924.701 598.667 939.701 608C954.701 617 966.535 629 975.201 644C983.868 659 988.201 675.333 988.201 693C988.201 707.333 984.868 720.667 978.201 733C971.868 745.333 964.201 755.333 955.201 763C964.868 772.667 972.368 783.833 977.701 796.5C983.035 809.167 985.701 822.5 985.701 836.5C985.701 855.833 981.035 873.5 971.701 889.5C962.368 905.5 949.701 918.333 933.701 928C918.035 937.333 900.535 942 881.201 942H791.701ZM850.701 732H888.701C900.368 732 909.701 728 916.701 720C924.035 711.667 927.701 702.667 927.701 693C927.701 682.333 923.868 673.167 916.201 665.5C908.535 657.5 899.368 653.5 888.701 653.5H850.701V732ZM850.201 881H881.201C893.201 881 903.535 876.667 912.201 868C920.868 859 925.201 848.5 925.201 836.5C925.201 824.5 920.868 814.167 912.201 805.5C903.535 796.833 893.201 792.5 881.201 792.5H850.701L850.201 881ZM1023.63 942C1022.3 942 1021.63 941.167 1021.63 939.5L1022.13 596C1022.13 594.667 1022.97 594 1024.63 594H1080.13C1081.8 594 1082.63 594.667 1082.63 596L1082.13 732H1157.13V596C1157.13 594.667 1157.8 594 1159.13 594H1214.63C1216.3 594 1217.13 594.667 1217.13 596L1218.13 939.5C1218.13 941.167 1217.3 942 1215.63 942H1159.63C1157.97 942 1157.13 941.167 1157.13 939.5V792.5H1082.13V939.5C1082.13 941.167 1081.47 942 1080.13 942H1023.63ZM1241.94 939.5L1303.94 596C1304.27 594.667 1305.11 594 1306.44 594H1378.94C1380.27 594 1381.11 594.667 1381.44 596L1440.94 939.5C1441.27 941.167 1440.61 942 1438.94 942H1383.44C1382.11 942 1381.27 941.167 1380.94 939.5L1375.44 903H1307.44L1301.94 939.5C1301.61 941.167 1300.77 942 1299.44 942H1243.94C1242.61 942 1241.94 941.167 1241.94 939.5ZM1317.44 849.5H1365.44L1344.94 709L1341.94 690.5L1339.94 709L1317.44 849.5ZM1474.82 942C1473.15 942 1472.32 941.167 1472.32 939.5L1472.82 596C1472.82 594.667 1473.49 594 1474.82 594H1530.82C1532.15 594 1532.82 594.667 1532.82 596L1533.32 939.5C1533.32 941.167 1532.65 942 1531.32 942H1474.82ZM1623.8 942C1622.8 942 1622.3 941.333 1622.3 940L1622.8 798L1555.8 596C1555.47 594.667 1555.97 594 1557.3 594H1612.8C1614.47 594 1615.47 594.667 1615.8 596L1652.8 730.5L1690.3 596C1690.63 594.667 1691.47 594 1692.8 594H1748.8C1750.13 594 1750.63 594.667 1750.3 596L1682.8 796L1683.3 940C1683.3 941.333 1682.63 942 1681.3 942H1623.8ZM1731.2 939.5L1793.2 596C1793.53 594.667 1794.36 594 1795.7 594H1868.2C1869.53 594 1870.36 594.667 1870.7 596L1930.2 939.5C1930.53 941.167 1929.86 942 1928.2 942H1872.7C1871.36 942 1870.53 941.167 1870.2 939.5L1864.7 903H1796.7L1791.2 939.5C1790.86 941.167 1790.03 942 1788.7 942H1733.2C1731.86 942 1731.2 941.167 1731.2 939.5ZM1806.7 849.5H1854.7L1834.2 709L1831.2 690.5L1829.2 709L1806.7 849.5Z" fill="#1A1A1A"/>
</svg>
