<svg width="408" height="180" xmlns="http://www.w3.org/2000/svg" xmlns:xlink="http://www.w3.org/1999/xlink" overflow="hidden"><defs><clipPath id="clip0"><path d="M0 0 408 0 408 180 0 180Z" fill-rule="evenodd" clip-rule="evenodd"/></clipPath></defs><g clip-path="url(#clip0)"><rect x="0" y="0" width="408" height="180" fill="#FFFFFF"/><text font-family="Calibri,Calibri_MSFontService,sans-serif" font-weight="700" font-size="5" transform="translate(411.009 150)">Advising red <tspan x="0" y="6">Calc, PM, RP, TX</tspan><tspan x="-9.15527e-05" y="-40">Financing tan </tspan><tspan x="-9.15527e-05" y="-34">HF, PF, SME</tspan><tspan font-weight="400" font-size="11" x="-219.425" y="-148">pixels</tspan></text><rect x="0" y="0" width="408" height="180" fill="#F2F2F2"/><path d="M268 106.796 316.021 56.538 347.301 73.7313 378.14 41.1077 368.448 41.5485 394 27 386.951 51.688 382.546 42.4301 347.741 89.1613 315.58 73.2905 292.231 109Z" fill="#7C7C7B" fill-rule="evenodd"/><path d="M61.5483 105.594C61.1293 105.594 60.7721 105.625 60.4769 105.685 60.1816 105.746 59.9412 105.837 59.7557 105.958 59.5703 106.079 59.4347 106.226 59.3488 106.398 59.2629 106.57 59.22 106.767 59.22 106.989 59.22 107.366 59.3419 107.662 59.5857 107.878 59.8296 108.094 60.1677 108.201 60.6004 108.201 60.9644 108.201 61.2993 108.11 61.6049 107.929 61.9106 107.747 62.2214 107.481 62.5373 107.13L62.5373 105.594ZM91.4834 101.633C91.1537 101.633 90.867 101.694 90.6231 101.815 90.3793 101.937 90.1767 102.1 90.0153 102.305 89.8539 102.511 89.7303 102.753 89.6445 103.033 89.5586 103.313 89.5088 103.611 89.4951 103.927L93.3687 103.927C93.3892 103.213 93.2434 102.652 92.9308 102.245 92.6183 101.837 92.1358 101.633 91.4834 101.633ZM40.4039 100.007C40.658 100.007 40.8675 100.015 41.0323 100.032 41.1971 100.049 41.3293 100.074 41.429 100.108 41.5285 100.141 41.5989 100.184 41.6401 100.234 41.6813 100.285 41.702 100.343 41.702 100.411L41.702 105.504C41.702 105.975 41.7329 106.335 41.7947 106.585 41.8565 106.834 41.9509 107.048 42.078 107.226 42.205 107.405 42.3664 107.543 42.5622 107.641 42.7579 107.738 42.9863 107.787 43.2473 107.787 43.5769 107.787 43.9083 107.669 44.2414 107.434 44.5745 107.198 44.93 106.854 45.3077 106.403L45.3077 100.411C45.3077 100.343 45.3266 100.285 45.3644 100.234 45.4021 100.184 45.4708 100.141 45.5704 100.108 45.6699 100.074 45.8022 100.049 45.967 100.032 46.1318 100.015 46.3413 100.007 46.5954 100.007 46.8495 100.007 47.059 100.015 47.2239 100.032 47.3887 100.049 47.5192 100.074 47.6153 100.108 47.7115 100.141 47.7802 100.184 47.8214 100.234 47.8626 100.285 47.8832 100.343 47.8832 100.411L47.8832 109.424C47.8832 109.491 47.866 109.55 47.8317 109.601 47.7974 109.651 47.7373 109.694 47.6514 109.727 47.5655 109.761 47.4522 109.786 47.3114 109.803 47.1706 109.82 46.9938 109.828 46.7809 109.828 46.5543 109.828 46.3705 109.82 46.2297 109.803 46.0889 109.786 45.9773 109.761 45.8949 109.727 45.8124 109.694 45.7541 109.651 45.7197 109.601 45.6854 109.55 45.6682 109.491 45.6682 109.424L45.6682 108.383C45.16 108.922 44.6432 109.326 44.1178 109.596 43.5924 109.865 43.0481 110 42.4849 110 41.853 110 41.3224 109.899 40.8932 109.697 40.4639 109.495 40.1171 109.219 39.8527 108.868 39.5882 108.518 39.3994 108.112 39.2861 107.651 39.1727 107.189 39.1161 106.615 39.1161 105.928L39.1161 100.411C39.1161 100.343 39.135 100.285 39.1727 100.234 39.2105 100.184 39.2792 100.141 39.3788 100.108 39.4784 100.074 39.6123 100.049 39.7806 100.032 39.9489 100.015 40.1566 100.007 40.4039 100.007ZM82.4204 99.845C82.6952 99.845 82.9647 99.8686 83.2291 99.9157 83.4936 99.9629 83.7408 100.027 83.9709 100.108 84.201 100.188 84.407 100.279 84.5891 100.381 84.771 100.482 84.8998 100.569 84.9753 100.643 85.0509 100.717 85.1041 100.78 85.135 100.83 85.166 100.881 85.19 100.946 85.2072 101.027 85.2243 101.108 85.2381 101.207 85.2483 101.325 85.2587 101.443 85.2638 101.586 85.2638 101.755 85.2638 102.145 85.2295 102.42 85.1608 102.578 85.0921 102.737 85.0029 102.816 84.893 102.816 84.7762 102.816 84.6526 102.769 84.5221 102.674 84.3916 102.58 84.2371 102.476 84.0585 102.361 83.8799 102.246 83.667 102.142 83.4197 102.048 83.1725 101.953 82.8771 101.906 82.5338 101.906 81.8607 101.906 81.3455 102.161 80.9884 102.669 80.6313 103.178 80.4528 103.924 80.4528 104.907 80.4528 105.392 80.4974 105.82 80.5866 106.191 80.676 106.561 80.8081 106.871 80.9833 107.12 81.1584 107.369 81.3782 107.556 81.6426 107.681 81.907 107.806 82.2144 107.868 82.5647 107.868 82.9218 107.868 83.2291 107.816 83.4867 107.711 83.7443 107.607 83.9692 107.491 84.1615 107.363 84.3538 107.235 84.5152 107.119 84.6457 107.014 84.7762 106.91 84.8861 106.858 84.9753 106.858 85.0372 106.858 85.0886 106.874 85.1299 106.908 85.1711 106.942 85.2037 107.004 85.2278 107.095 85.2518 107.186 85.2707 107.302 85.2844 107.444 85.2981 107.585 85.3051 107.767 85.3051 107.989 85.3051 108.164 85.2999 108.311 85.2896 108.429 85.2792 108.547 85.2655 108.646 85.2483 108.727 85.2312 108.808 85.2106 108.873 85.1865 108.924 85.1625 108.974 85.1093 109.038 85.0268 109.116 84.9444 109.193 84.8036 109.288 84.6045 109.399 84.4053 109.51 84.1786 109.609 83.9246 109.697 83.6704 109.785 83.394 109.855 83.0953 109.909 82.7964 109.963 82.4891 109.99 82.1731 109.99 81.4658 109.99 80.839 109.882 80.2931 109.667 79.747 109.451 79.2886 109.133 78.9177 108.712 78.5468 108.291 78.267 107.777 78.0781 107.171 77.8893 106.564 77.7947 105.871 77.7947 105.089 77.7947 104.187 77.9098 103.407 78.1399 102.75 78.3699 102.093 78.691 101.549 79.1031 101.118 79.5152 100.687 80.0029 100.367 80.566 100.158 81.1292 99.9494 81.7473 99.845 82.4204 99.845ZM91.5452 99.8349C92.3144 99.8349 92.9721 99.946 93.518 100.168 94.0641 100.391 94.5122 100.699 94.8625 101.093 95.2128 101.487 95.4703 101.953 95.6351 102.492 95.8 103.031 95.8824 103.617 95.8824 104.251L95.8824 104.655C95.8824 104.965 95.812 105.194 95.6712 105.342 95.5304 105.49 95.3364 105.564 95.0892 105.564L89.4951 105.564C89.4951 105.948 89.5414 106.297 89.6341 106.61 89.7268 106.923 89.8745 107.189 90.0771 107.408 90.2798 107.627 90.5407 107.794 90.8601 107.908 91.1794 108.023 91.5623 108.08 92.0088 108.08 92.4621 108.08 92.8605 108.048 93.2038 107.984 93.5472 107.92 93.8443 107.849 94.095 107.772 94.3456 107.695 94.5534 107.624 94.7183 107.56 94.8831 107.496 95.017 107.464 95.1201 107.464 95.1819 107.464 95.2334 107.476 95.2746 107.499 95.3157 107.523 95.3501 107.565 95.3775 107.625 95.4051 107.686 95.424 107.772 95.4343 107.883 95.4445 107.994 95.4497 108.134 95.4497 108.302 95.4497 108.451 95.4462 108.577 95.4394 108.681 95.4325 108.786 95.4223 108.875 95.4085 108.949 95.3947 109.023 95.3742 109.086 95.3466 109.136 95.3192 109.187 95.2831 109.235 95.2385 109.283 95.1939 109.33 95.072 109.394 94.8728 109.475 94.6736 109.555 94.4195 109.635 94.1104 109.712 93.8013 109.79 93.4477 109.857 93.0493 109.914 92.651 109.971 92.2252 110 91.7718 110 90.9545 110 90.2385 109.899 89.6239 109.697 89.0091 109.495 88.4958 109.188 88.0837 108.777 87.6715 108.367 87.3643 107.848 87.1617 107.221 86.959 106.595 86.8578 105.861 86.8578 105.019 86.8578 104.217 86.9642 103.494 87.177 102.851 87.39 102.208 87.6991 101.662 88.1042 101.214 88.5095 100.766 89.0023 100.424 89.5826 100.188 90.163 99.9527 90.8172 99.8349 91.5452 99.8349ZM72.7079 99.8349C73.3329 99.8349 73.8601 99.936 74.2893 100.138 74.7186 100.34 75.0654 100.615 75.3299 100.962 75.5943 101.308 75.7849 101.714 75.9016 102.179 76.0183 102.644 76.0768 103.203 76.0768 103.856L76.0768 109.424C76.0768 109.491 76.0561 109.55 76.015 109.601 75.9737 109.651 75.9051 109.694 75.8089 109.727 75.7128 109.761 75.5805 109.786 75.4122 109.803 75.244 109.82 75.0362 109.828 74.789 109.828 74.5349 109.828 74.3237 109.82 74.1554 109.803 73.9871 109.786 73.8549 109.761 73.7587 109.727 73.6626 109.694 73.594 109.651 73.5527 109.601 73.5115 109.55 73.4909 109.491 73.4909 109.424L73.4909 104.281C73.4909 103.843 73.4583 103.499 73.393 103.25 73.3279 103.001 73.2333 102.787 73.1097 102.609 72.9861 102.43 72.8264 102.292 72.6307 102.194 72.435 102.097 72.2066 102.048 71.9456 102.048 71.6159 102.048 71.2828 102.166 70.9463 102.401 70.6097 102.637 70.2595 102.981 69.8955 103.432L69.8955 109.424C69.8955 109.491 69.8748 109.55 69.8337 109.601 69.7924 109.651 69.7221 109.694 69.6225 109.727 69.5228 109.761 69.3907 109.786 69.2258 109.803 69.061 109.82 68.8516 109.828 68.5975 109.828 68.3432 109.828 68.1338 109.82 67.969 109.803 67.8041 109.786 67.672 109.761 67.5724 109.727 67.4727 109.694 67.4024 109.651 67.3611 109.601 67.32 109.55 67.2993 109.491 67.2993 109.424L67.2993 100.411C67.2993 100.343 67.3165 100.285 67.3509 100.234 67.3852 100.184 67.447 100.141 67.5363 100.108 67.6255 100.074 67.7406 100.049 67.8814 100.032 68.0222 100.015 68.1991 100.007 68.4119 100.007 68.6317 100.007 68.8138 100.015 68.958 100.032 69.1022 100.049 69.2138 100.074 69.2928 100.108 69.3718 100.141 69.4284 100.184 69.4628 100.234 69.4971 100.285 69.5143 100.343 69.5143 100.411L69.5143 101.452C70.0225 100.913 70.5394 100.508 71.0648 100.239 71.5902 99.9696 72.1379 99.8349 72.7079 99.8349ZM61.0229 99.8349C61.744 99.8349 62.3604 99.9039 62.8721 100.042 63.3837 100.18 63.8044 100.392 64.1341 100.679 64.4638 100.965 64.7042 101.334 64.8553 101.785 65.0064 102.236 65.0819 102.772 65.0819 103.392L65.0819 109.454C65.0819 109.549 65.0476 109.623 64.9789 109.677 64.9102 109.731 64.802 109.769 64.6544 109.793 64.5067 109.816 64.2887 109.828 64.0002 109.828 63.6911 109.828 63.4662 109.816 63.3254 109.793 63.1846 109.769 63.085 109.731 63.0266 109.677 62.9683 109.623 62.939 109.549 62.939 109.454L62.939 108.737C62.5613 109.134 62.1303 109.444 61.6462 109.667 61.1619 109.889 60.6245 110 60.0339 110 59.5463 110 59.0981 109.938 58.6894 109.813 58.2808 109.688 57.9271 109.503 57.6283 109.257 57.3296 109.011 57.0977 108.707 56.933 108.343 56.7681 107.979 56.6857 107.555 56.6857 107.07 56.6857 106.544 56.7904 106.088 56.9998 105.701 57.2093 105.313 57.5219 104.993 57.9374 104.741 58.3528 104.488 58.8697 104.301 59.4878 104.18 60.1059 104.059 60.8237 103.998 61.641 103.998L62.5373 103.998 62.5373 103.452C62.5373 103.169 62.508 102.922 62.4497 102.71 62.3914 102.497 62.2952 102.321 62.1612 102.179 62.0274 102.038 61.8488 101.933 61.6256 101.866 61.4023 101.799 61.1259 101.765 60.7962 101.765 60.3635 101.765 59.9772 101.812 59.6373 101.906 59.2972 102.001 58.9968 102.105 58.7358 102.22 58.4748 102.334 58.2567 102.438 58.0816 102.533 57.9064 102.627 57.7639 102.674 57.654 102.674 57.5785 102.674 57.5115 102.651 57.4532 102.604 57.3948 102.556 57.3468 102.489 57.3089 102.401 57.2711 102.314 57.242 102.206 57.2213 102.078 57.2008 101.95 57.1904 101.809 57.1904 101.654 57.1904 101.445 57.2076 101.28 57.242 101.159 57.2763 101.037 57.3416 100.928 57.4377 100.83 57.5339 100.732 57.7021 100.625 57.9425 100.507 58.1829 100.389 58.4645 100.279 58.7873 100.178 59.1101 100.077 59.4621 99.9948 59.8433 99.9309 60.2245 99.8669 60.6176 99.8349 61.0229 99.8349ZM54.8759 99.8349C54.9652 99.8349 55.0613 99.84 55.1644 99.85 55.2674 99.8601 55.3739 99.877 55.4838 99.9006 55.5937 99.9242 55.6898 99.9511 55.7723 99.9814 55.8546 100.012 55.9148 100.044 55.9525 100.077 55.9903 100.111 56.0177 100.148 56.0349 100.188 56.0521 100.229 56.0675 100.285 56.0813 100.355 56.095 100.426 56.1054 100.532 56.1122 100.674 56.1191 100.815 56.1224 101.007 56.1224 101.25 56.1224 101.492 56.1156 101.691 56.1019 101.846 56.0882 102.001 56.0675 102.122 56.0401 102.209 56.0126 102.297 55.9766 102.358 55.9318 102.391 55.8872 102.425 55.8306 102.442 55.7619 102.442 55.707 102.442 55.6451 102.43 55.5765 102.407 55.5078 102.383 55.4305 102.358 55.3446 102.331 55.2588 102.304 55.1644 102.278 55.0613 102.255 54.9584 102.231 54.845 102.22 54.7213 102.22 54.5772 102.22 54.433 102.248 54.2887 102.305 54.1445 102.363 53.9951 102.452 53.8406 102.573 53.6861 102.694 53.5247 102.856 53.3563 103.058 53.1881 103.26 53.0078 103.51 52.8155 103.806L52.8155 109.424C52.8155 109.491 52.7948 109.55 52.7537 109.601 52.7125 109.651 52.6421 109.694 52.5425 109.727 52.4429 109.761 52.3107 109.786 52.1458 109.803 51.9811 109.82 51.7716 109.828 51.5174 109.828 51.2633 109.828 51.0538 109.82 50.889 109.803 50.7242 109.786 50.592 109.761 50.4924 109.727 50.3927 109.694 50.3224 109.651 50.2811 109.601 50.24 109.55 50.2193 109.491 50.2193 109.424L50.2193 100.411C50.2193 100.343 50.2365 100.285 50.2709 100.234 50.3052 100.184 50.367 100.141 50.4563 100.108 50.5456 100.074 50.6607 100.049 50.8015 100.032 50.9422 100.015 51.1191 100.007 51.3319 100.007 51.5518 100.007 51.7338 100.015 51.878 100.032 52.0222 100.049 52.1338 100.074 52.2128 100.108 52.2918 100.141 52.3484 100.184 52.3828 100.234 52.4171 100.285 52.4343 100.343 52.4343 100.411L52.4343 101.532C52.6747 101.196 52.9014 100.918 53.1142 100.699 53.3272 100.48 53.5297 100.306 53.7221 100.178 53.9144 100.05 54.1067 99.9612 54.299 99.9106 54.4913 99.8601 54.6836 99.8349 54.8759 99.8349ZM34.3752 99.8349C34.6636 99.8349 34.9435 99.8551 35.2148 99.8955 35.4861 99.936 35.7316 99.9865 35.9514 100.047 36.1712 100.108 36.3566 100.173 36.5077 100.244 36.6588 100.315 36.7669 100.375 36.8322 100.426 36.8974 100.477 36.9438 100.527 36.9712 100.578 36.9988 100.628 37.0193 100.689 37.0331 100.759 37.0469 100.83 37.0588 100.918 37.0691 101.022 37.0795 101.127 37.0846 101.256 37.0846 101.411 37.0846 101.593 37.0795 101.741 37.0691 101.856 37.0588 101.97 37.0417 102.061 37.0177 102.129 36.9936 102.196 36.961 102.241 36.9198 102.265 36.8785 102.289 36.8305 102.3 36.7756 102.3 36.7138 102.3 36.6176 102.265 36.4871 102.194 36.3566 102.124 36.1934 102.048 35.9978 101.967 35.802 101.886 35.5753 101.81 35.3178 101.74 35.0603 101.669 34.7666 101.633 34.437 101.633 34.2034 101.633 34.0008 101.657 33.8291 101.704 33.6575 101.751 33.5166 101.819 33.4067 101.906 33.2968 101.994 33.2144 102.097 33.1595 102.215 33.1045 102.332 33.0771 102.459 33.0771 102.593 33.0771 102.802 33.1423 102.977 33.2728 103.119 33.4034 103.26 33.575 103.385 33.7879 103.493 34.0008 103.601 34.2429 103.702 34.5142 103.796 34.7855 103.89 35.0603 103.993 35.3384 104.104 35.6166 104.215 35.8912 104.345 36.1625 104.493 36.4338 104.641 36.676 104.823 36.8889 105.039 37.1017 105.254 37.2735 105.512 37.4039 105.812 37.5345 106.111 37.5997 106.467 37.5997 106.878 37.5997 107.39 37.5018 107.841 37.3062 108.232 37.1104 108.622 36.8339 108.949 36.4768 109.212 36.1196 109.475 35.6973 109.672 35.2096 109.803 34.722 109.934 34.1931 110 33.6231 110 33.2796 110 32.9517 109.975 32.6393 109.924 32.3267 109.874 32.0469 109.81 31.7996 109.732 31.5524 109.655 31.3463 109.576 31.1815 109.495 31.0166 109.414 30.8965 109.338 30.8209 109.267 30.7453 109.197 30.687 109.086 30.6458 108.934 30.6045 108.782 30.584 108.558 30.584 108.262 30.584 108.067 30.5908 107.91 30.6045 107.792 30.6182 107.674 30.6389 107.58 30.6663 107.509 30.6939 107.438 30.7282 107.391 30.7694 107.368 30.8106 107.344 30.8621 107.332 30.9239 107.332 30.9995 107.332 31.1111 107.375 31.2587 107.459 31.4064 107.543 31.5901 107.636 31.8099 107.737 32.0297 107.838 32.2856 107.932 32.5774 108.02 32.8693 108.107 33.2007 108.151 33.5716 108.151 33.8051 108.151 34.0128 108.127 34.1949 108.08 34.3768 108.033 34.5349 107.966 34.6687 107.878 34.8027 107.791 34.904 107.679 34.9727 107.545 35.0414 107.41 35.0757 107.255 35.0757 107.08 35.0757 106.878 35.0122 106.704 34.885 106.559 34.7581 106.415 34.5898 106.288 34.3803 106.181 34.1708 106.073 33.9338 105.972 33.6695 105.877 33.4051 105.783 33.1338 105.679 32.8556 105.564 32.5774 105.45 32.3062 105.318 32.0417 105.17 31.7773 105.022 31.5404 104.84 31.3309 104.624 31.1214 104.409 30.9531 104.149 30.826 103.846 30.6989 103.543 30.6354 103.179 30.6354 102.755 30.6354 102.324 30.7213 101.928 30.893 101.568 31.0647 101.207 31.312 100.899 31.6348 100.643 31.9575 100.387 32.3508 100.188 32.8144 100.047 33.2779 99.9056 33.7982 99.8349 34.3752 99.8349ZM25.4868 99.8349C26.1118 99.8349 26.639 99.936 27.0682 100.138 27.4975 100.34 27.8443 100.615 28.1088 100.962 28.3732 101.308 28.5638 101.714 28.6806 102.179 28.7972 102.644 28.8557 103.203 28.8557 103.856L28.8557 109.424C28.8557 109.491 28.8351 109.55 28.7938 109.601 28.7526 109.651 28.6839 109.694 28.5878 109.727 28.4916 109.761 28.3594 109.786 28.1911 109.803 28.0229 109.82 27.8151 109.828 27.5678 109.828 27.3137 109.828 27.1026 109.82 26.9343 109.803 26.766 109.786 26.6338 109.761 26.5376 109.727 26.4415 109.694 26.3729 109.651 26.3316 109.601 26.2904 109.55 26.2698 109.491 26.2698 109.424L26.2698 104.281C26.2698 103.843 26.2372 103.499 26.1719 103.25 26.1067 103.001 26.0122 102.787 25.8886 102.609 25.765 102.43 25.6053 102.292 25.4096 102.194 25.2138 102.097 24.9855 102.048 24.7245 102.048 24.3948 102.048 24.0617 102.166 23.7252 102.401 23.3886 102.637 23.0384 102.981 22.6744 103.432L22.6744 109.424C22.6744 109.491 22.6537 109.55 22.6126 109.601 22.5713 109.651 22.501 109.694 22.4014 109.727 22.3017 109.761 22.1696 109.786 22.0047 109.803 21.8399 109.82 21.6304 109.828 21.3763 109.828 21.1221 109.828 20.9126 109.82 20.7479 109.803 20.583 109.786 20.4508 109.761 20.3513 109.727 20.2516 109.694 20.1812 109.651 20.14 109.601 20.0989 109.55 20.0782 109.491 20.0782 109.424L20.0782 100.411C20.0782 100.343 20.0954 100.285 20.1298 100.234 20.164 100.184 20.2259 100.141 20.3152 100.108 20.4044 100.074 20.5195 100.049 20.6603 100.032 20.801 100.015 20.9779 100.007 21.1909 100.007 21.4106 100.007 21.5927 100.015 21.7369 100.032 21.8811 100.049 21.9927 100.074 22.0717 100.108 22.1507 100.141 22.2073 100.184 22.2417 100.234 22.276 100.285 22.2932 100.343 22.2932 100.411L22.2932 101.452C22.8014 100.913 23.3182 100.508 23.8436 100.239 24.369 99.9696 24.9168 99.8349 25.4868 99.8349ZM15.5644 96.6317C15.8323 96.6317 16.0521 96.6419 16.2237 96.662 16.3954 96.6822 16.5328 96.7092 16.6358 96.7428 16.7389 96.7766 16.8127 96.8203 16.8573 96.8742 16.9019 96.9281 16.9243 96.9888 16.9243 97.0561L16.9243 109.404C16.9243 109.471 16.9019 109.532 16.8573 109.586 16.8127 109.64 16.7389 109.683 16.6358 109.717 16.5328 109.751 16.3954 109.778 16.2237 109.798 16.0521 109.818 15.8323 109.828 15.5644 109.828 15.3034 109.828 15.0854 109.818 14.9103 109.798 14.7351 109.778 14.596 109.751 14.493 109.717 14.3899 109.683 14.3161 109.64 14.2715 109.586 14.2268 109.532 14.2045 109.471 14.2045 109.404L14.2045 97.0561C14.2045 96.9888 14.2268 96.9281 14.2715 96.8742 14.3161 96.8203 14.3917 96.7766 14.4981 96.7428 14.6046 96.7092 14.7437 96.6822 14.9153 96.662 15.087 96.6419 15.3034 96.6317 15.5644 96.6317ZM51.5012 79.9732C51.0823 79.9732 50.7251 80.0035 50.4299 80.0641 50.1345 80.1248 49.8941 80.2157 49.7087 80.337 49.5233 80.4582 49.3876 80.6047 49.3017 80.7766 49.2159 80.9483 49.173 81.1454 49.173 81.3676 49.173 81.7449 49.2949 82.0412 49.5387 82.2568 49.7825 82.4724 50.1207 82.5801 50.5535 82.5801 50.9175 82.5801 51.2523 82.4892 51.5579 82.3073 51.8636 82.1254 52.1743 81.8593 52.4902 81.5091L52.4902 79.9732ZM29.3977 79.9732C28.9788 79.9732 28.6216 80.0035 28.3264 80.0641 28.031 80.1248 27.7906 80.2157 27.6052 80.337 27.4198 80.4582 27.2841 80.6047 27.1982 80.7766 27.1124 80.9483 27.0695 81.1454 27.0695 81.3676 27.0695 81.7449 27.1914 82.0412 27.4352 82.2568 27.679 82.4724 28.0173 82.5801 28.45 82.5801 28.814 82.5801 29.1488 82.4892 29.4544 82.3073 29.7601 82.1254 30.0708 81.8593 30.3867 81.5091L30.3867 79.9732ZM61.9913 76.3861C61.8196 76.3861 61.6513 76.4097 61.4865 76.4568 61.3216 76.504 61.1517 76.5848 60.9765 76.6993 60.8014 76.8138 60.6211 76.9621 60.4357 77.144 60.2502 77.3258 60.0545 77.5515 59.8485 77.821L59.8485 80.8118C60.2125 81.2699 60.561 81.6186 60.8941 81.8577 61.2272 82.0969 61.5758 82.2164 61.9397 82.2164 62.2763 82.2164 62.5613 82.1322 62.7948 81.9638 63.0284 81.7954 63.2224 81.5765 63.3769 81.307 63.5314 81.0376 63.643 80.731 63.7117 80.3875 63.7805 80.044 63.8147 79.7004 63.8147 79.3568 63.8147 78.9729 63.7855 78.6024 63.7272 78.2454 63.6688 77.8883 63.5675 77.5716 63.4233 77.2955 63.279 77.0193 63.0919 76.7987 62.8618 76.6337 62.6318 76.4686 62.3416 76.3861 61.9913 76.3861ZM116.601 76.0122C116.271 76.0122 115.985 76.0729 115.741 76.1941 115.497 76.3154 115.294 76.4787 115.133 76.6842 114.972 76.8896 114.848 77.1322 114.762 77.4117 114.676 77.6912 114.626 77.9893 114.613 78.306L118.486 78.306C118.507 77.5919 118.361 77.0311 118.048 76.6236 117.736 76.216 117.253 76.0122 116.601 76.0122ZM77.4175 76.0122C77.0878 76.0122 76.8011 76.0729 76.5572 76.1941 76.3135 76.3154 76.1109 76.4787 75.9495 76.6842 75.7881 76.8896 75.6645 77.1322 75.5786 77.4117 75.4927 77.6912 75.4429 77.9893 75.4292 78.306L79.3028 78.306C79.3234 77.5919 79.1775 77.0311 78.865 76.6236 78.5524 76.216 78.0699 76.0122 77.4175 76.0122ZM101.753 74.3854C102.007 74.3854 102.216 74.3955 102.381 74.4157 102.546 74.436 102.678 74.4645 102.778 74.5015 102.877 74.5387 102.948 74.5824 102.989 74.6329 103.03 74.6835 103.051 74.7424 103.051 74.8097L103.051 83.8028C103.051 83.8701 103.03 83.9291 102.989 83.9797 102.948 84.0302 102.877 84.0723 102.778 84.1059 102.678 84.1396 102.546 84.1649 102.381 84.1818 102.216 84.1986 102.007 84.207 101.753 84.207 101.498 84.207 101.289 84.1986 101.124 84.1818 100.959 84.1649 100.827 84.1396 100.728 84.1059 100.628 84.0723 100.558 84.0302 100.516 83.9797 100.475 83.9291 100.455 83.8701 100.455 83.8028L100.455 74.8097C100.455 74.7424 100.475 74.6835 100.516 74.6329 100.558 74.5824 100.628 74.5387 100.728 74.5015 100.827 74.4645 100.959 74.436 101.124 74.4157 101.289 74.3955 101.498 74.3854 101.753 74.3854ZM43.4798 74.3854C43.7339 74.3854 43.9434 74.3955 44.1082 74.4157 44.2731 74.436 44.4052 74.4645 44.5049 74.5015 44.6045 74.5387 44.6748 74.5824 44.7161 74.6329 44.7573 74.6835 44.7779 74.7424 44.7779 74.8097L44.7779 83.8028C44.7779 83.8701 44.7573 83.9291 44.7161 83.9797 44.6748 84.0302 44.6045 84.0723 44.5049 84.1059 44.4052 84.1396 44.2731 84.1649 44.1082 84.1818 43.9434 84.1986 43.7339 84.207 43.4798 84.207 43.2256 84.207 43.0163 84.1986 42.8514 84.1818 42.6865 84.1649 42.5544 84.1396 42.4548 84.1059 42.3551 84.0723 42.2847 84.0302 42.2435 83.9797 42.2024 83.9291 42.1817 83.8701 42.1817 83.8028L42.1817 74.8097C42.1817 74.7424 42.2024 74.6835 42.2435 74.6329 42.2847 74.5824 42.3551 74.5387 42.4548 74.5015 42.5544 74.4645 42.6865 74.436 42.8514 74.4157 43.0163 74.3955 43.2256 74.3854 43.4798 74.3854ZM116.663 74.2136C117.432 74.2136 118.09 74.3247 118.636 74.5471 119.182 74.7694 119.63 75.0776 119.98 75.4717 120.33 75.8657 120.588 76.3322 120.753 76.8711 120.918 77.41 121 77.996 121 78.6293L121 79.0335C121 79.3434 120.93 79.5724 120.789 79.7206 120.648 79.8688 120.454 79.9429 120.207 79.9429L114.613 79.9429C114.613 80.3268 114.659 80.6755 114.752 80.9887 114.844 81.3019 114.992 81.568 115.195 81.7869 115.397 82.0059 115.658 82.1726 115.978 82.2871 116.297 82.4017 116.68 82.4589 117.126 82.4589 117.58 82.4589 117.978 82.4269 118.321 82.363 118.665 82.2989 118.962 82.2282 119.213 82.1508 119.463 82.0733 119.671 82.0025 119.836 81.9385 120.001 81.8745 120.135 81.8426 120.238 81.8426 120.299 81.8426 120.351 81.8544 120.392 81.8779 120.433 81.9014 120.468 81.9436 120.495 82.0042 120.523 82.0648 120.542 82.1508 120.552 82.2619 120.562 82.373 120.567 82.5128 120.567 82.6812 120.567 82.8295 120.564 82.9557 120.557 83.0602 120.55 83.1646 120.54 83.2538 120.526 83.3279 120.512 83.402 120.492 83.4643 120.464 83.5149 120.437 83.5654 120.401 83.6142 120.356 83.6614 120.312 83.7085 120.19 83.7725 119.99 83.8534 119.791 83.9342 119.537 84.0133 119.228 84.0908 118.919 84.1683 118.565 84.2357 118.167 84.2929 117.769 84.3502 117.343 84.3787 116.889 84.3787 116.072 84.3787 115.356 84.2778 114.741 84.0756 114.127 83.8736 113.613 83.567 113.201 83.1562 112.789 82.7452 112.482 82.2265 112.279 81.6001 112.077 80.9735 111.975 80.2393 111.975 79.3973 111.975 78.5956 112.082 77.8731 112.295 77.2298 112.508 76.5865 112.817 76.0409 113.222 75.5929 113.627 75.1449 114.12 74.803 114.7 74.5672 115.281 74.3315 115.935 74.2136 116.663 74.2136ZM77.4794 74.2136C78.2485 74.2136 78.9062 74.3247 79.4522 74.5471 79.9982 74.7694 80.4463 75.0776 80.7966 75.4717 81.1469 75.8657 81.4044 76.3322 81.5693 76.8711 81.7341 77.41 81.8165 77.996 81.8165 78.6293L81.8165 79.0335C81.8165 79.3434 81.7462 79.5724 81.6053 79.7206 81.4645 79.8688 81.2705 79.9429 81.0233 79.9429L75.4292 79.9429C75.4292 80.3268 75.4755 80.6755 75.5683 80.9887 75.661 81.3019 75.8086 81.568 76.0113 81.7869 76.2139 82.0059 76.4749 82.1726 76.7943 82.2871 77.1135 82.4017 77.4964 82.4589 77.9429 82.4589 78.3962 82.4589 78.7946 82.4269 79.1379 82.363 79.4814 82.2989 79.7784 82.2282 80.0291 82.1508 80.2798 82.0733 80.4876 82.0025 80.6524 81.9385 80.8172 81.8745 80.9511 81.8426 81.0542 81.8426 81.116 81.8426 81.1675 81.8544 81.2087 81.8779 81.2499 81.9014 81.2843 81.9436 81.3117 82.0042 81.3392 82.0648 81.3581 82.1508 81.3684 82.2619 81.3787 82.373 81.3838 82.5128 81.3838 82.6812 81.3838 82.8295 81.3804 82.9557 81.3735 83.0602 81.3666 83.1646 81.3564 83.2538 81.3426 83.3279 81.3289 83.402 81.3083 83.4643 81.2808 83.5149 81.2534 83.5654 81.2173 83.6142 81.1727 83.6614 81.128 83.7085 81.0061 83.7725 80.807 83.8534 80.6077 83.9342 80.3536 84.0133 80.0445 84.0908 79.7355 84.1683 79.3818 84.2357 78.9834 84.2929 78.5851 84.3502 78.1593 84.3787 77.7059 84.3787 76.8887 84.3787 76.1727 84.2778 75.558 84.0756 74.9433 83.8736 74.4299 83.567 74.0178 83.1562 73.6057 82.7452 73.2984 82.2265 73.0958 81.6001 72.8932 80.9735 72.7919 80.2393 72.7919 79.3973 72.7919 78.5956 72.8983 77.8731 73.1112 77.2298 73.3242 76.5865 73.6332 76.0409 74.0384 75.5929 74.4436 75.1449 74.9364 74.803 75.5168 74.5672 76.0971 74.3315 76.7513 74.2136 77.4794 74.2136ZM50.9758 74.2136C51.697 74.2136 52.3134 74.2826 52.825 74.4207 53.3367 74.5589 53.7574 74.771 54.0871 75.0573 54.4167 75.3437 54.6571 75.7124 54.8083 76.1638 54.9593 76.6152 55.0348 77.1507 55.0348 77.7704L55.0348 83.8331C55.0348 83.9275 55.0006 84.0015 54.9319 84.0554 54.8632 84.1093 54.755 84.148 54.6073 84.1716 54.4597 84.1952 54.2416 84.207 53.9531 84.207 53.6441 84.207 53.4192 84.1952 53.2784 84.1716 53.1376 84.148 53.038 84.1093 52.9795 84.0554 52.9212 84.0015 52.892 83.9275 52.892 83.8331L52.892 83.1157C52.5143 83.5132 52.0833 83.8231 51.5991 84.0453 51.115 84.2676 50.5774 84.3787 49.9868 84.3787 49.4992 84.3787 49.051 84.3165 48.6424 84.1919 48.2338 84.0672 47.8801 83.8819 47.5812 83.6361 47.2825 83.3902 47.0507 83.0854 46.8859 82.7217 46.7211 82.3579 46.6387 81.9335 46.6387 81.4485 46.6387 80.923 46.7434 80.4666 46.9528 80.0792 47.1623 79.692 47.4748 79.372 47.8903 79.1194 48.3059 78.8667 48.8227 78.6798 49.4408 78.5585 50.0589 78.4373 50.7767 78.3766 51.5939 78.3766L52.4902 78.3766 52.4902 77.831C52.4902 77.5482 52.4611 77.3006 52.4027 77.0884 52.3443 76.8762 52.2481 76.6993 52.1142 76.5579 51.9803 76.4164 51.8017 76.3119 51.5785 76.2446 51.3552 76.1772 51.0789 76.1436 50.7492 76.1436 50.3165 76.1436 49.9302 76.1907 49.5902 76.285 49.2502 76.3794 48.9498 76.4838 48.6888 76.5983 48.4277 76.7128 48.2097 76.8172 48.0346 76.9115 47.8594 77.0058 47.7169 77.053 47.607 77.053 47.5315 77.053 47.4645 77.0294 47.4061 76.9822 47.3477 76.9351 47.2997 76.8677 47.262 76.7802 47.2241 76.6926 47.195 76.5848 47.1743 76.4568 47.1537 76.3288 47.1434 76.1874 47.1434 76.0324 47.1434 75.8236 47.1606 75.6586 47.195 75.5374 47.2293 75.416 47.2945 75.3065 47.3906 75.2089 47.4868 75.1112 47.6551 75.0034 47.8955 74.8856 48.1359 74.7676 48.4175 74.6582 48.7403 74.5572 49.063 74.4561 49.415 74.3736 49.7962 74.3096 50.1774 74.2456 50.5706 74.2136 50.9758 74.2136ZM39.8053 74.2136C39.8946 74.2136 39.9908 74.2187 40.0938 74.2287 40.1969 74.2389 40.3033 74.2557 40.4132 74.2793 40.5231 74.3029 40.6192 74.3298 40.7017 74.3601 40.7841 74.3904 40.8442 74.4224 40.882 74.4561 40.9197 74.4899 40.9471 74.5269 40.9643 74.5672 40.9815 74.6077 40.997 74.6632 41.0107 74.734 41.0245 74.8048 41.0348 74.9108 41.0416 75.0522 41.0485 75.1938 41.0519 75.3857 41.0519 75.6283 41.0519 75.8708 41.045 76.0694 41.0313 76.2244 41.0176 76.3794 40.997 76.5006 40.9695 76.5882 40.9421 76.6757 40.906 76.7363 40.8614 76.7701 40.8167 76.8038 40.76 76.8205 40.6913 76.8205 40.6364 76.8205 40.5746 76.8087 40.5059 76.7853 40.4372 76.7617 40.3599 76.7363 40.2741 76.7094 40.1882 76.6825 40.0938 76.6572 39.9908 76.6337 39.8878 76.6101 39.7744 76.5983 39.6508 76.5983 39.5066 76.5983 39.3624 76.6269 39.2181 76.6842 39.0739 76.7414 38.9245 76.8307 38.77 76.9519 38.6155 77.0732 38.4541 77.2349 38.2858 77.4369 38.1175 77.6391 37.9372 77.8883 37.7449 78.1847L37.7449 83.8028C37.7449 83.8701 37.7243 83.9291 37.6831 83.9797 37.6419 84.0302 37.5715 84.0723 37.472 84.1059 37.3723 84.1396 37.2401 84.1649 37.0753 84.1818 36.9105 84.1986 36.701 84.207 36.4469 84.207 36.1927 84.207 35.9832 84.1986 35.8185 84.1818 35.6536 84.1649 35.5214 84.1396 35.4218 84.1059 35.3222 84.0723 35.2518 84.0302 35.2106 83.9797 35.1694 83.9291 35.1488 83.8701 35.1488 83.8028L35.1488 74.7896C35.1488 74.7222 35.1659 74.6632 35.2003 74.6128 35.2346 74.5623 35.2964 74.5202 35.3858 74.4864 35.475 74.4527 35.5901 74.4275 35.7309 74.4106 35.8716 74.3938 36.0485 74.3854 36.2615 74.3854 36.4812 74.3854 36.6632 74.3938 36.8074 74.4106 36.9516 74.4275 37.0632 74.4527 37.1422 74.4864 37.2212 74.5202 37.2779 74.5623 37.3123 74.6128 37.3465 74.6632 37.3637 74.7222 37.3637 74.7896L37.3637 75.9111C37.6041 75.5744 37.8308 75.2965 38.0437 75.0776 38.2566 74.8586 38.4592 74.6852 38.6516 74.5572 38.8438 74.4292 39.0361 74.3399 39.2284 74.2895 39.4207 74.2389 39.613 74.2136 39.8053 74.2136ZM28.8723 74.2136C29.5935 74.2136 30.2099 74.2826 30.7215 74.4207 31.2332 74.5589 31.6539 74.771 31.9836 75.0573 32.3132 75.3437 32.5536 75.7124 32.7048 76.1638 32.8558 76.6152 32.9313 77.1507 32.9313 77.7704L32.9313 83.8331C32.9313 83.9275 32.8971 84.0015 32.8284 84.0554 32.7597 84.1093 32.6515 84.148 32.5038 84.1716 32.3561 84.1952 32.1381 84.207 31.8496 84.207 31.5406 84.207 31.3157 84.1952 31.1749 84.1716 31.0341 84.148 30.9345 84.1093 30.8761 84.0554 30.8177 84.0015 30.7885 83.9275 30.7885 83.8331L30.7885 83.1157C30.4108 83.5132 29.9798 83.8231 29.4956 84.0453 29.0115 84.2676 28.4739 84.3787 27.8833 84.3787 27.3957 84.3787 26.9475 84.3165 26.5389 84.1919 26.1302 84.0672 25.7766 83.8819 25.4777 83.6361 25.179 83.3902 24.9472 83.0854 24.7824 82.7217 24.6175 82.3579 24.5352 81.9335 24.5352 81.4485 24.5352 80.923 24.6399 80.4666 24.8493 80.0792 25.0588 79.692 25.3713 79.372 25.7868 79.1194 26.2024 78.8667 26.7191 78.6798 27.3373 78.5585 27.9554 78.4373 28.6732 78.3766 29.4904 78.3766L30.3867 78.3766 30.3867 77.831C30.3867 77.5482 30.3576 77.3006 30.2992 77.0884 30.2408 76.8762 30.1446 76.6993 30.0107 76.5579 29.8768 76.4164 29.6982 76.3119 29.475 76.2446 29.2517 76.1772 28.9754 76.1436 28.6457 76.1436 28.213 76.1436 27.8267 76.1907 27.4867 76.285 27.1468 76.3794 26.8463 76.4838 26.5853 76.5983 26.3242 76.7128 26.1062 76.8172 25.9311 76.9115 25.7559 77.0058 25.6134 77.053 25.5035 77.053 25.428 77.053 25.361 77.0294 25.3026 76.9822 25.2442 76.9351 25.1962 76.8677 25.1583 76.7802 25.1206 76.6926 25.0915 76.5848 25.0708 76.4568 25.0502 76.3288 25.0399 76.1874 25.0399 76.0324 25.0399 75.8236 25.0571 75.6586 25.0915 75.5374 25.1258 75.416 25.191 75.3065 25.2871 75.2089 25.3833 75.1112 25.5516 75.0034 25.792 74.8856 26.0324 74.7676 26.314 74.6582 26.6368 74.5572 26.9595 74.4561 27.3115 74.3736 27.6927 74.3096 28.0739 74.2456 28.4671 74.2136 28.8723 74.2136ZM92.9267 71.0105C93.1945 71.0105 93.4143 71.0206 93.586 71.0408 93.7577 71.061 93.895 71.088 93.9981 71.1216 94.1011 71.1553 94.175 71.1991 94.2196 71.253 94.2642 71.3069 94.2866 71.3675 94.2866 71.4349L94.2866 81.9537 98.4795 81.9537C98.5482 81.9537 98.6083 81.9722 98.6598 82.0092 98.7113 82.0463 98.7542 82.1069 98.7886 82.1911 98.8229 82.2753 98.8487 82.3865 98.8658 82.5246 98.883 82.6627 98.8916 82.8328 98.8916 83.0349 98.8916 83.237 98.883 83.4071 98.8658 83.5452 98.8487 83.6833 98.8229 83.7977 98.7886 83.8887 98.7542 83.9797 98.7113 84.0453 98.6598 84.0857 98.6083 84.1262 98.5482 84.1464 98.4795 84.1464L92.3703 84.1464C92.1437 84.1464 91.9531 84.0807 91.7986 83.9493 91.6441 83.818 91.5667 83.6041 91.5667 83.3077L91.5667 71.4349C91.5667 71.3675 91.5891 71.3069 91.6337 71.253 91.6783 71.1991 91.7522 71.1553 91.8552 71.1216 91.9583 71.088 92.0973 71.061 92.2725 71.0408 92.4476 71.0206 92.6656 71.0105 92.9267 71.0105ZM14.4106 71.0105C14.7265 71.0105 14.9738 71.0172 15.1523 71.0306 15.3309 71.0442 15.4683 71.0678 15.5644 71.1014 15.6605 71.1351 15.7275 71.1856 15.7653 71.253 15.803 71.3203 15.8391 71.4045 15.8735 71.5056L19.1186 81.5899 19.129 81.5899 22.3123 71.5561C22.3398 71.4416 22.3741 71.349 22.4153 71.2782 22.4566 71.2076 22.5269 71.1519 22.6265 71.1115 22.7261 71.0711 22.8687 71.0442 23.0541 71.0306 23.2395 71.0172 23.4937 71.0105 23.8164 71.0105 24.1323 71.0105 24.3779 71.0206 24.553 71.0408 24.7282 71.061 24.8483 71.1098 24.9136 71.1873 24.9788 71.2648 24.9995 71.3742 24.9754 71.5157 24.9514 71.6572 24.8981 71.8458 24.8157 72.0816L20.8391 83.6815C20.8047 83.7961 20.7601 83.8887 20.7052 83.9594 20.6502 84.0302 20.561 84.0841 20.4373 84.1211 20.3137 84.1582 20.1455 84.1818 19.9325 84.1919 19.7197 84.2019 19.4414 84.207 19.0981 84.207 18.8233 84.207 18.5881 84.2053 18.3924 84.2019 18.1966 84.1986 18.0301 84.1901 17.8927 84.1767 17.7553 84.1632 17.6437 84.143 17.5578 84.1161 17.4721 84.0892 17.3999 84.0554 17.3415 84.015 17.2832 83.9746 17.2385 83.9258 17.2076 83.8685 17.1767 83.8113 17.1475 83.7389 17.1201 83.6512L13.1537 72.0614C13.0713 71.8189 13.0215 71.6269 13.0043 71.4854 12.9871 71.3439 13.0215 71.2379 13.1074 71.1671 13.1932 71.0963 13.3391 71.0526 13.5452 71.0357 13.7512 71.0189 14.0397 71.0105 14.4106 71.0105ZM101.763 70.4244C102.34 70.4244 102.731 70.5204 102.937 70.7124 103.143 70.9044 103.246 71.2462 103.246 71.738 103.246 72.25 103.14 72.6036 102.927 72.7989 102.714 72.9944 102.319 73.092 101.742 73.092 101.159 73.092 100.765 72.9977 100.563 72.8091 100.36 72.6205 100.259 72.2803 100.259 71.7886 100.259 71.2766 100.364 70.9212 100.573 70.7224 100.782 70.5238 101.179 70.4244 101.763 70.4244ZM43.4901 70.4244C44.067 70.4244 44.4585 70.5204 44.6645 70.7124 44.8706 70.9044 44.9736 71.2462 44.9736 71.738 44.9736 72.25 44.8671 72.6036 44.6543 72.7989 44.4413 72.9944 44.0464 73.092 43.4695 73.092 42.8857 73.092 42.4925 72.9977 42.2899 72.8091 42.0873 72.6205 41.986 72.2803 41.986 71.7886 41.986 71.2766 42.0908 70.9212 42.3002 70.7224 42.5096 70.5238 42.9063 70.4244 43.4901 70.4244ZM69.6022 70.0809C69.8563 70.0809 70.0658 70.0909 70.2305 70.1112 70.3954 70.1314 70.5275 70.16 70.6272 70.1971 70.7268 70.2341 70.7971 70.2795 70.8384 70.3334 70.8795 70.3873 70.9002 70.448 70.9002 70.5153L70.9002 83.8028C70.9002 83.8701 70.8795 83.9291 70.8384 83.9797 70.7971 84.0302 70.7268 84.0723 70.6272 84.1059 70.5275 84.1396 70.3954 84.1649 70.2305 84.1818 70.0658 84.1986 69.8563 84.207 69.6022 84.207 69.3479 84.207 69.1385 84.1986 68.9737 84.1818 68.8088 84.1649 68.6767 84.1396 68.5771 84.1059 68.4774 84.0723 68.4071 84.0302 68.3658 83.9797 68.3247 83.9291 68.304 83.8701 68.304 83.8028L68.304 70.5153C68.304 70.448 68.3247 70.3873 68.3658 70.3334 68.4071 70.2795 68.4774 70.2341 68.5771 70.1971 68.6767 70.16 68.8088 70.1314 68.9737 70.1112 69.1385 70.0909 69.3479 70.0809 69.6022 70.0809ZM58.5504 70.0809C58.8045 70.0809 59.014 70.0909 59.1788 70.1112 59.3436 70.1314 59.4758 70.16 59.5755 70.1971 59.675 70.2341 59.7454 70.2795 59.7866 70.3334 59.8278 70.3873 59.8485 70.448 59.8485 70.5153L59.8485 75.4969C60.082 75.2679 60.3154 75.0725 60.549 74.9108 60.7825 74.7491 61.016 74.6161 61.2496 74.5117 61.483 74.4073 61.7234 74.3315 61.9706 74.2844 62.218 74.2372 62.4789 74.2136 62.7536 74.2136 63.4335 74.2136 64.0105 74.3467 64.4844 74.6128 64.9583 74.8789 65.3446 75.2375 65.6434 75.6889 65.9422 76.1402 66.1602 76.6673 66.2975 77.2703 66.4349 77.8731 66.5037 78.508 66.5037 79.1749 66.5037 79.9766 66.4143 80.6974 66.2357 81.3373 66.0572 81.9773 65.7997 82.5229 65.4631 82.9742 65.1266 83.4256 64.7128 83.7725 64.2217 84.015 63.7306 84.2575 63.1726 84.3787 62.5476 84.3787 62.2385 84.3787 61.9501 84.3502 61.6822 84.2929 61.4143 84.2357 61.1585 84.143 60.9147 84.015 60.6709 83.887 60.4305 83.7254 60.1936 83.53 59.9566 83.3346 59.7145 83.0989 59.4672 82.8226L59.4672 83.8028C59.4672 83.877 59.4484 83.9392 59.4106 83.9897 59.3728 84.0403 59.311 84.0824 59.2252 84.1161 59.1393 84.1498 59.0242 84.1734 58.88 84.1868 58.7358 84.2003 58.5606 84.207 58.3546 84.207 58.1417 84.207 57.9649 84.2003 57.8241 84.1868 57.6833 84.1734 57.57 84.1498 57.4841 84.1161 57.3982 84.0824 57.3381 84.0403 57.3038 83.9897 57.2694 83.9392 57.2523 83.877 57.2523 83.8028L57.2523 70.5153C57.2523 70.448 57.2729 70.3873 57.3141 70.3334 57.3553 70.2795 57.4257 70.2341 57.5252 70.1971 57.6249 70.16 57.7571 70.1314 57.922 70.1112 58.0867 70.0909 58.2962 70.0809 58.5504 70.0809ZM109.207 70C109.475 70 109.729 70.0219 109.97 70.0657 110.21 70.1095 110.399 70.1566 110.537 70.2071 110.674 70.2577 110.767 70.3049 110.815 70.3487 110.863 70.3924 110.902 70.4565 110.933 70.5406 110.964 70.6248 110.986 70.7326 111 70.864 111.014 70.9954 111.021 71.1587 111.021 71.354 111.021 71.5494 111.014 71.706 111 71.8239 110.986 71.9418 110.966 72.0327 110.938 72.0967 110.911 72.1607 110.88 72.2045 110.846 72.2281 110.811 72.2516 110.773 72.2634 110.732 72.2634 110.684 72.2634 110.631 72.2516 110.572 72.2281 110.514 72.2045 110.442 72.1792 110.356 72.1523 110.27 72.1253 110.169 72.1001 110.052 72.0765 109.935 72.0529 109.798 72.0411 109.64 72.0411 109.455 72.0411 109.295 72.0698 109.161 72.127 109.027 72.1843 108.916 72.2752 108.826 72.3998 108.737 72.5245 108.672 72.6862 108.631 72.8849 108.589 73.0835 108.569 73.3278 108.569 73.6175L108.569 74.446 110.248 74.446C110.31 74.446 110.366 74.4628 110.418 74.4966 110.47 74.5302 110.512 74.5858 110.547 74.6632 110.581 74.7407 110.607 74.8469 110.624 74.9816 110.641 75.1163 110.65 75.2813 110.65 75.4767 110.65 75.8472 110.615 76.1115 110.547 76.2698 110.478 76.4282 110.379 76.5074 110.248 76.5074L108.569 76.5074 108.569 83.8028C108.569 83.8701 108.548 83.9291 108.507 83.9797 108.466 84.0302 108.397 84.0723 108.301 84.1059 108.205 84.1396 108.071 84.1649 107.899 84.1818 107.727 84.1986 107.518 84.207 107.271 84.207 107.023 84.207 106.816 84.1986 106.647 84.1818 106.479 84.1649 106.345 84.1396 106.246 84.1059 106.146 84.0723 106.077 84.0302 106.04 83.9797 106.002 83.9291 105.983 83.8701 105.983 83.8028L105.983 76.5074 104.829 76.5074C104.699 76.5074 104.601 76.4282 104.535 76.2698 104.47 76.1115 104.438 75.8472 104.438 75.4767 104.438 75.2813 104.446 75.1163 104.463 74.9816 104.481 74.8469 104.505 74.7407 104.535 74.6632 104.566 74.5858 104.608 74.5302 104.659 74.4966 104.711 74.4628 104.771 74.446 104.839 74.446L105.983 74.446 105.983 73.6882C105.983 73.0752 106.045 72.5379 106.168 72.0765 106.292 71.6151 106.486 71.2311 106.75 70.9246 107.015 70.6181 107.351 70.3873 107.76 70.2325 108.169 70.0775 108.651 70 109.207 70Z" fill="#404040" fill-rule="evenodd"/><path d="M131 108 407.667 108" stroke="#7C7C7B" stroke-width="2" stroke-miterlimit="8" fill="none" fill-rule="evenodd"/><path d="M344.24 48.0016C343.258 48.0143 342.316 48.0881 341.496 48.2326 339.586 48.5695 338.119 49.1192 337.607 49.6901 337.214 50.1271 337.263 50.3706 338.642 54.8674 339.152 56.5299 339.551 57.9084 339.53 57.9304 339.507 57.9526 338.865 56.736 338.102 55.2267 336.776 52.604 336.692 52.4881 336.231 52.604 335.173 52.8702 333.228 54.408 332.736 55.3672 332.588 55.6559 332.467 56.1925 332.467 56.5593 332.467 57.1477 332.846 57.6792 335.682 61.0603 337.45 63.1691 338.957 64.9631 339.031 65.0472 339.105 65.1313 339.7 65.0186 340.353 64.7967 341.315 64.4704 341.9 64.4034 343.428 64.4464L345.315 64.4993 346.623 62.5801C347.343 61.5248 347.955 60.6851 347.983 60.7135 348.011 60.7421 347.697 61.6024 347.284 62.6251 346.872 63.6478 346.534 64.5352 346.534 64.5973 346.534 64.6594 346.977 64.8485 347.519 65.017L347.519 65.017C348.06 65.1855 348.514 65.3332 348.528 65.3455 348.589 65.4 354.685 58.2596 355.086 57.6624 355.886 56.4741 355.594 55.0874 354.259 53.7376 353.034 52.4997 353.067 52.4915 351.659 54.3877 350.965 55.3221 350.374 56.0638 350.346 56.036 350.295 55.9843 350.842 54.6074 352.047 51.7563 352.419 50.8753 352.724 50.0613 352.724 49.9472 352.724 49.8332 352.399 49.5556 352.002 49.3305 350.508 48.4843 347.189 47.9648 344.24 48.0019ZM343.953 66.1241C343.452 66.1241 342.909 66.2304 342.745 66.3604 342.582 66.4903 341.717 67.5969 340.823 68.8192 339.929 70.0413 339.166 71.0413 339.127 71.0413 339.089 71.0413 339.6 70.0485 340.264 68.8352 340.927 67.6217 341.433 66.5918 341.388 66.5462 341.206 66.3625 339.13 67.4933 337.765 68.5204 335.105 70.5218 330.635 75.1545 328.217 78.4172 324.096 83.9769 321.483 89.8 321.065 94.3526 320.889 96.2712 321.08 98.7052 321.513 100.068 322.326 102.624 324.688 105.497 326.557 106.202 328.656 106.994 332.381 107.584 337.384 107.917 340.809 108.145 350.732 107.989 354.037 107.655 357.133 107.342 360.135 106.768 361.641 106.199 363.643 105.444 365.854 102.612 366.718 99.6938 367.128 98.3106 367.177 94.4199 366.806 92.696 365.371 86.0253 360.777 78.3392 354.429 71.9865 352.023 69.5791 349.996 67.9637 348.277 67.0828 346.861 66.3572 346.45 66.3278 346.608 66.9641 346.941 68.3004 347.614 71.6265 347.536 71.5479 347.487 71.4979 346.865 70.2572 346.155 68.7905L344.863 66.1241Z" fill="#D68D87" fill-rule="evenodd"/><path d="M352 83.1628C348.757 83.1628 348.757 83.1628 348.757 83.1628 348.486 82.1861 348.081 81.3488 347.676 80.6512 351.865 80.6512 351.865 80.6512 351.865 80.6512 351.865 78 351.865 78 351.865 78 337.135 78 337.135 78 337.135 78 337.135 81.0698 337.135 81.0698 337.135 81.0698 340.108 81.0698 340.108 81.0698 340.108 81.0698 342.405 81.0698 343.892 81.907 344.432 83.1628 337.135 83.1628 337.135 83.1628 337.135 83.1628 337.135 86.093 337.135 86.093 337.135 86.093 344.703 86.093 344.703 86.093 344.703 86.093 344.432 87.0698 343.892 87.7674 342.946 88.1861 340.649 89.3023 337 89.1628 337 89.1628 337 91.6744 337 91.6744 337 91.6744 345.514 102 345.514 102 345.514 102 349.703 102 349.703 102 349.703 102 349.703 102 343.757 94.0465 342 92.093 343.892 91.8139 345.378 91.1163 346.595 90.1395 347.811 89.0233 348.486 87.7674 348.757 86.093 352 86.093 352 86.093 352 86.093 352 83.1628 352 83.1628 352 83.1628" fill="#FFFFFF" fill-rule="evenodd"/><path d="M378.5 100.539C373.575 100.539 369.423 99.3121 367.5 97.5001L367.5 100.642C368.108 102.585 372.37 104.5 378.5 104.5 384.63 104.5 388.892 102.585 389.5 100.642L389.5 97.5001C387.577 99.3121 383.425 100.539 378.5 100.539Z" stroke="#FFFFFF" stroke-miterlimit="8" fill="#6A4742" fill-rule="evenodd"/><path d="M378.5 69.5001C372.425 69.5001 367.5 71.6257 367.5 74.248L367.5 74.7129C368.108 76.6198 372.37 78.5002 378.5 78.5002 384.63 78.5002 388.892 76.6199 389.5 74.7131L389.5 74.248C389.5 71.6257 384.575 69.5001 378.5 69.5001Z" stroke="#FFFFFF" stroke-miterlimit="8" fill="#6A4742" fill-rule="evenodd"/><path d="M378.5 91.6149C373.575 91.6149 369.423 90.3571 367.5 88.5001L367.5 91.5461C368.108 93.5369 372.37 95.5001 378.5 95.5001 384.63 95.5001 388.892 93.537 389.5 91.5462L389.5 88.5001C387.577 90.3571 383.425 91.6149 378.5 91.6149Z" stroke="#FFFFFF" stroke-miterlimit="8" fill="#6A4742" fill-rule="evenodd"/><path d="M378.5 87.5393C373.575 87.5393 369.423 86.3121 367.5 84.5001L367.5 87.6419C368.108 89.5846 372.37 91.5002 378.5 91.5002 384.63 91.5002 388.892 89.5847 389.5 87.642L389.5 84.5001C387.577 86.3121 383.425 87.5393 378.5 87.5393Z" stroke="#FFFFFF" stroke-miterlimit="8" fill="#6A4742" fill-rule="evenodd"/><path d="M378.5 95.816C373.575 95.816 369.423 94.4771 367.5 92.5001L367.5 95.2225C367.5 98.1372 372.425 100.5 378.5 100.5 384.575 100.5 389.5 98.1372 389.5 95.2225L389.5 92.5001C387.577 94.4771 383.425 95.816 378.5 95.816Z" stroke="#FFFFFF" stroke-miterlimit="8" fill="#6A4742" fill-rule="evenodd"/><path d="M378.5 83.6149C373.575 83.6149 369.423 82.3571 367.5 80.5001L367.5 83.5461C368.108 85.5369 372.37 87.5001 378.5 87.5001 384.63 87.5001 388.892 85.537 389.5 83.5462L389.5 80.5001C387.577 82.3571 383.425 83.6149 378.5 83.6149Z" stroke="#FFFFFF" stroke-miterlimit="8" fill="#6A4742" fill-rule="evenodd"/><path d="M378.5 78.9735C373.575 78.9735 369.423 77.5709 367.5 75.5001L367.5 79.0907C368.108 81.311 372.37 83.5002 378.5 83.5002 384.63 83.5002 388.892 81.3111 389.5 79.0908L389.5 75.5001C387.577 77.5709 383.425 78.9735 378.5 78.9735Z" stroke="#FFFFFF" stroke-miterlimit="8" fill="#6A4742" fill-rule="evenodd"/><path d="M364 82.5001C358.201 82.5001 353.5 84.6257 353.5 87.248L353.5 87.7129C354.08 89.6198 358.148 91.5002 364 91.5002 369.852 91.5002 373.92 89.6199 374.5 87.7131L374.5 87.248C374.5 84.6257 369.799 82.5001 364 82.5001Z" stroke="#FFFFFF" stroke-miterlimit="8" fill="#6A4742" fill-rule="evenodd"/><path d="M364 104.615C359.299 104.615 355.335 103.357 353.5 101.5L353.5 104.546C354.08 106.537 358.148 108.5 364 108.5 369.852 108.5 373.92 106.537 374.5 104.546L374.5 101.5C372.665 103.357 368.701 104.615 364 104.615Z" stroke="#FFFFFF" stroke-miterlimit="8" fill="#6A4742" fill-rule="evenodd"/><path d="M364 100.539C359.299 100.539 355.335 99.3121 353.5 97.5001L353.5 100.642C354.08 102.585 358.148 104.5 364 104.5 369.852 104.5 373.92 102.585 374.5 100.642L374.5 97.5001C372.665 99.3121 368.701 100.539 364 100.539Z" stroke="#FFFFFF" stroke-miterlimit="8" fill="#6A4742" fill-rule="evenodd"/><path d="M364 96.0599C359.299 96.0599 355.335 94.6224 353.5 92.5001L353.5 95.9812C354.08 98.2564 358.148 100.5 364 100.5 369.852 100.5 373.92 98.2565 374.5 95.9813L374.5 92.5001C372.665 94.6224 368.701 96.0599 364 96.0599Z" stroke="#FFFFFF" stroke-miterlimit="8" fill="#6A4742" fill-rule="evenodd"/><path d="M364 91.9735C359.299 91.9735 355.335 90.5709 353.5 88.5001L353.5 92.0907C354.08 94.311 358.148 96.5002 364 96.5002 369.852 96.5002 373.92 94.3111 374.5 92.0908L374.5 88.5001C372.665 90.5709 368.701 91.9735 364 91.9735Z" stroke="#FFFFFF" stroke-miterlimit="8" fill="#6A4742" fill-rule="evenodd"/><path d="M365.055 84.0008C364.256 84.3295 364.256 84.3295 364.256 84.3295 364.093 84.1225 363.91 83.9627 363.741 83.8364 364.774 83.4117 364.774 83.4117 364.774 83.4117 364.512 82.7755 364.512 82.7755 364.512 82.7755 360.882 84.2686 360.882 84.2686 360.882 84.2686 361.184 85.0053 361.184 85.0053 361.184 85.0053 361.917 84.7039 361.917 84.7039 361.917 84.7039 362.484 84.4711 362.933 84.5213 363.19 84.7679 361.391 85.5076 361.391 85.5076 361.391 85.5076 361.68 86.2108 361.68 86.2108 361.68 86.2108 363.546 85.4437 363.546 85.4437 363.546 85.4437 363.575 85.7054 363.511 85.9277 363.319 86.124 362.863 86.6248 361.95 86.9611 361.95 86.9611 362.198 87.5639 362.198 87.5639 362.198 87.5639 365.315 89.1788 365.315 89.1788 365.315 89.1788 366.348 88.7541 366.348 88.7541 366.348 88.7541 366.348 88.7541 364.097 87.4482 363.471 87.1575 363.91 86.8987 364.208 86.5806 364.411 86.2229 364.601 85.8318 364.643 85.4619 364.545 85.0327 365.344 84.7039 365.344 84.7039 365.344 84.7039 365.055 84.0008 365.055 84.0008 365.055 84.0008" fill="#6A4742" fill-rule="evenodd"/><path d="M384 82.5001C378.201 82.5001 373.5 84.6257 373.5 87.248L373.5 87.7129C374.08 89.6198 378.148 91.5002 384 91.5002 389.852 91.5002 393.92 89.6199 394.5 87.7131L394.5 87.248C394.5 84.6257 389.799 82.5001 384 82.5001Z" stroke="#FFFFFF" stroke-miterlimit="8" fill="#6A4742" fill-rule="evenodd"/><path d="M384 104.615C379.299 104.615 375.335 103.357 373.5 101.5L373.5 104.546C374.08 106.537 378.148 108.5 384 108.5 389.852 108.5 393.92 106.537 394.5 104.546L394.5 101.5C392.665 103.357 388.701 104.615 384 104.615Z" stroke="#FFFFFF" stroke-miterlimit="8" fill="#6A4742" fill-rule="evenodd"/><path d="M384 100.539C379.299 100.539 375.335 99.3121 373.5 97.5001L373.5 100.642C374.08 102.585 378.148 104.5 384 104.5 389.852 104.5 393.92 102.585 394.5 100.642L394.5 97.5001C392.665 99.3121 388.701 100.539 384 100.539Z" stroke="#FFFFFF" stroke-miterlimit="8" fill="#6A4742" fill-rule="evenodd"/><path d="M384 96.0599C379.299 96.0599 375.335 94.6224 373.5 92.5001L373.5 95.9812C374.08 98.2564 378.148 100.5 384 100.5 389.852 100.5 393.92 98.2565 394.5 95.9813L394.5 92.5001C392.665 94.6224 388.701 96.0599 384 96.0599Z" stroke="#FFFFFF" stroke-miterlimit="8" fill="#6A4742" fill-rule="evenodd"/><path d="M384 91.9735C379.299 91.9735 375.335 90.5709 373.5 88.5001L373.5 92.0907C374.08 94.311 378.148 96.5002 384 96.5002 389.852 96.5002 393.92 94.3111 394.5 92.0908L394.5 88.5001C392.665 90.5709 388.701 91.9735 384 91.9735Z" stroke="#FFFFFF" stroke-miterlimit="8" fill="#6A4742" fill-rule="evenodd"/><path d="M385.123 84.0008C384.324 84.3295 384.324 84.3295 384.324 84.3295 384.161 84.1225 383.978 83.9627 383.81 83.8364 384.842 83.4117 384.842 83.4117 384.842 83.4117 384.581 82.7755 384.581 82.7755 384.581 82.7755 380.95 84.2686 380.95 84.2686 380.95 84.2686 381.253 85.0053 381.253 85.0053 381.253 85.0053 381.985 84.7039 381.985 84.7039 381.985 84.7039 382.552 84.4711 383.001 84.5213 383.258 84.7679 381.459 85.5076 381.459 85.5076 381.459 85.5076 381.748 86.2108 381.748 86.2108 381.748 86.2108 383.614 85.4437 383.614 85.4437 383.614 85.4437 383.643 85.7054 383.579 85.9277 383.387 86.124 382.931 86.6248 382.018 86.9611 382.018 86.9611 382.266 87.5639 382.266 87.5639 382.266 87.5639 385.383 89.1788 385.383 89.1788 385.383 89.1788 386.416 88.7541 386.416 88.7541 386.416 88.7541 386.416 88.7541 384.165 87.4482 383.54 87.1575 383.978 86.8987 384.276 86.5806 384.479 86.2229 384.669 85.8318 384.712 85.4619 384.613 85.0327 385.412 84.7039 385.412 84.7039 385.412 84.7039 385.123 84.0008 385.123 84.0008 385.123 84.0008" fill="#6A4742" fill-rule="evenodd"/><path d="M379.603 71.2367C378.803 71.5654 378.803 71.5654 378.803 71.5654 378.64 71.3584 378.458 71.1986 378.289 71.0723 379.322 70.6476 379.322 70.6476 379.322 70.6476 379.06 70.0114 379.06 70.0114 379.06 70.0114 375.429 71.5045 375.429 71.5045 375.429 71.5045 375.732 72.2412 375.732 72.2412 375.732 72.2412 376.465 71.9398 376.465 71.9398 376.465 71.9398 377.031 71.707 377.48 71.7572 377.737 72.0038 375.939 72.7435 375.939 72.7435 375.939 72.7435 376.228 73.4467 376.228 73.4467 376.228 73.4467 378.093 72.6796 378.093 72.6796 378.093 72.6796 378.123 72.9414 378.058 73.1636 377.867 73.3599 377.41 73.8607 376.497 74.197 376.497 74.197 376.745 74.7998 376.745 74.7998 376.745 74.7998 379.863 76.4147 379.863 76.4147 379.863 76.4147 380.895 75.99 380.895 75.99 380.895 75.99 380.895 75.99 378.645 74.6841 378.019 74.3934 378.458 74.1346 378.755 73.8165 378.959 73.4589 379.148 73.0677 379.191 72.6978 379.092 72.2686 379.892 71.9399 379.892 71.9399 379.892 71.9399 379.603 71.2367 379.603 71.2367 379.603 71.2367" fill="#6A4742" fill-rule="evenodd"/><path d="M314.683 63.0012C313.935 63.0108 313.218 63.0661 312.595 63.1745 311.142 63.4271 310.025 63.8394 309.635 64.2676 309.337 64.5953 309.374 64.778 310.424 68.1505 310.812 69.3975 311.115 70.4313 311.099 70.4478 311.082 70.4645 310.593 69.552 310.012 68.42 309.003 66.453 308.94 66.3661 308.589 66.453 307.784 66.6527 306.304 67.806 305.93 68.5254 305.817 68.7419 305.725 69.1444 305.725 69.4195 305.725 69.8608 306.014 70.2594 308.171 72.7952 309.516 74.3768 310.663 75.7223 310.719 75.7854 310.776 75.8485 311.229 75.7639 311.725 75.5976 312.457 75.3528 312.902 75.3026 314.065 75.3348L315.5 75.3745 316.496 73.9351C317.043 73.1436 317.509 72.5138 317.531 72.5351 317.552 72.5566 317.313 73.2018 316.999 73.9688 316.685 74.7359 316.428 75.4014 316.428 75.448 316.428 75.4946 316.765 75.6364 317.177 75.7628L317.177 75.7628C317.589 75.8891 317.935 75.9999 317.945 76.0091 317.992 76.05 322.63 70.6947 322.935 70.2468 323.544 69.3555 323.322 68.3155 322.306 67.3032 321.374 66.3748 321.399 66.3686 320.327 67.7907 319.799 68.4916 319.35 69.0479 319.329 69.027 319.29 68.9882 319.706 67.9556 320.623 65.8172 320.906 65.1565 321.137 64.546 321.137 64.4604 321.137 64.3749 320.89 64.1667 320.588 63.9979 319.452 63.3632 316.926 62.9736 314.683 63.0014ZM314.464 76.5931C314.083 76.5931 313.67 76.6728 313.545 76.7703 313.421 76.8678 312.763 77.6977 312.083 78.6144 311.402 79.531 310.822 80.281 310.792 80.281 310.763 80.281 311.152 79.5364 311.657 78.6264 312.162 77.7163 312.547 76.9438 312.513 76.9097 312.374 76.7719 310.795 77.62 309.756 78.3903 307.732 79.8914 304.331 83.3658 302.491 85.8129 299.355 89.9827 297.367 94.35 297.05 97.7645 296.916 99.2034 297.061 101.029 297.391 102.051 298.009 103.968 299.806 106.122 301.228 106.651 302.825 107.245 305.659 107.688 309.466 107.938 312.072 108.109 319.622 107.992 322.137 107.741 324.493 107.507 326.776 107.076 327.923 106.649 329.446 106.083 331.128 103.959 331.786 101.77 332.098 100.733 332.135 97.8149 331.853 96.522 330.761 91.5189 327.265 85.7544 322.435 80.9899 320.604 79.1844 319.062 77.9728 317.754 77.3121 316.677 76.7679 316.364 76.7458 316.485 77.2231 316.738 78.2253 317.25 80.7199 317.191 80.661 317.153 80.6234 316.68 79.6929 316.14 78.5929L315.157 76.5931Z" fill="#6A4742" fill-rule="evenodd"/><path d="M321 89.0872C318.405 89.0872 318.405 89.0872 318.405 89.0872 318.189 88.3139 317.865 87.6512 317.541 87.0988 320.892 87.0988 320.892 87.0988 320.892 87.0988 320.892 85 320.892 85 320.892 85 309.108 85 309.108 85 309.108 85 309.108 87.4302 309.108 87.4302 309.108 87.4302 311.486 87.4302 311.486 87.4302 311.486 87.4302 313.324 87.4302 314.514 88.093 314.946 89.0872 309.108 89.0872 309.108 89.0872 309.108 89.0872 309.108 91.407 309.108 91.407 309.108 91.407 315.162 91.407 315.162 91.407 315.162 91.407 314.946 92.1802 314.514 92.7326 313.757 93.0639 311.919 93.9477 309 93.8372 309 93.8372 309 95.8256 309 95.8256 309 95.8256 315.811 104 315.811 104 315.811 104 319.162 104 319.162 104 319.162 104 319.162 104 314.405 97.7035 313 96.157 314.514 95.9361 315.703 95.3837 316.676 94.6105 317.649 93.7267 318.189 92.7326 318.405 91.407 321 91.407 321 91.407 321 91.407 321 89.0872 321 89.0872 321 89.0872" fill="#FFFFFF" fill-rule="evenodd"/><path d="M250.5 56C250.93 56 251.288 56.0266 251.574 56.0799 251.86 56.1332 252.09 56.2079 252.264 56.3039 252.438 56.3998 252.566 56.517 252.648 56.6557 252.73 56.7943 252.77 56.9489 252.77 57.1194L252.77 68.7612 262.865 68.7612C263.028 68.7612 263.177 68.8038 263.31 68.8892 263.443 68.9744 263.565 69.113 263.678 69.3049 263.79 69.4968 263.872 69.7367 263.923 70.0245 263.974 70.3123 264 70.6482 264 71.032 264 71.4371 263.969 71.7836 263.908 72.0714 263.847 72.3592 263.765 72.5992 263.662 72.7911 263.56 72.983 263.438 73.1215 263.294 73.2068 263.151 73.2921 262.998 73.3348 262.834 73.3348L252.77 73.3348 252.77 84.9765C252.77 85.1471 252.73 85.291 252.648 85.4083 252.566 85.5255 252.438 85.6268 252.264 85.7121 252.09 85.7975 251.86 85.8667 251.574 85.9201 251.288 85.9734 250.93 86 250.5 86 250.091 86 249.738 85.9734 249.441 85.9201 249.145 85.8667 248.91 85.7975 248.736 85.7121 248.562 85.6268 248.434 85.5255 248.352 85.4083 248.27 85.291 248.23 85.1471 248.23 84.9765L248.23 73.3348 238.166 73.3348C237.982 73.3348 237.823 73.2921 237.69 73.2068 237.557 73.1215 237.44 72.983 237.337 72.7911 237.235 72.5992 237.153 72.3592 237.092 72.0714 237.031 71.7836 237 71.4371 237 71.032 237 70.6482 237.031 70.3123 237.092 70.0245 237.153 69.7367 237.235 69.4968 237.337 69.3049 237.44 69.113 237.557 68.9744 237.69 68.8892 237.823 68.8038 237.972 68.7612 238.135 68.7612L248.23 68.7612 248.23 57.1194C248.23 56.9489 248.27 56.7943 248.352 56.6557 248.434 56.517 248.562 56.3998 248.736 56.3039 248.91 56.2079 249.145 56.1332 249.441 56.0799 249.738 56.0266 250.091 56 250.5 56Z" fill="#404040" fill-rule="evenodd"/><path d="M4.97306 10.8239C3.68914 10.5533 3.59926 8.69349 2.86743 8.16088 1.63914 7.26319 0 8.33699 0.475052 10.0851 1.96868 15.5959 10.4897 16.1199 11.7351 9.98205 11.949 8.92114 12.0518 1.32722 11.8549 0.283483L10.2072 0C10.4811 1.25849 10.2885 1.22413 9.86481 2.11324 11.1701 3.52207 10.9561 3.61227 10.0874 5.14565 10.4511 5.74269 10.8449 5.84148 10.7079 6.94534 10.6009 7.7915 10.2928 7.9676 9.67222 8.3284 11.0888 11.2234 8.9789 11.5369 6.76628 11.4252 5.83329 11.378 5.39248 11.3823 4.97306 10.8239Z" fill="#6A4742" fill-rule="evenodd" transform="matrix(-0.645755 0.763544 0.763544 0.645755 227.655 90.695)"/><path d="M0.00426559 51.027 2.23517 51.1593 2.23517 0.275524C1.80435 0.165314 1.28821 0.0991886 0.887243 0.12123 0.268732 0.154293 0.127968 0 0 1.34456L0.00426559 51.027Z" fill="#6A4742" fill-rule="evenodd" transform="matrix(-0.645755 0.763544 0.763544 0.645755 188.849 70.5826)"/><path d="M2.1593 29.9125C2.62772 29.9714 6.52741 29.0843 7.44901 28.8998 9.26176 28.5425 11.124 28.2952 12.9939 28.0872 16.3147 27.7221 21.5168 27.4355 24.8491 27.9576 27.0122 28.0008 29.7961 28.5072 31.7649 28.8958 32.9303 29.1235 36.293 29.728 37.3631 30.0774L38.0791 30.3483C38.1019 30.3601 38.1476 30.3836 38.1819 30.4072L39.1873 30.4818 38.9245 29.1314C38.7798 28.8998 37.9077 25.355 37.7249 24.7034 36.4986 20.2675 34.8839 15.9965 32.8084 11.9101 30.6605 7.68226 26.0335 1.42497 20.5457 0.875393 11.7981 0 5.98282 11.7609 3.43508 18.6895 2.84479 20.3068 0.754041 26.3717 0.742616 27.8085 0.460803 28.1068 0.0533161 30.0931 0 30.5053 0.456995 30.4975 1.77085 30.2266 2.1593 29.9125Z" fill="#D68D87" fill-rule="evenodd" transform="matrix(-0.645755 0.763544 0.763544 0.645755 178.334 38.8865)"/><path d="M14.1712 26.7944 14.5555 27.8297C14.643 28.1983 14.7114 28.7198 14.8598 29.01 16.0087 28.4414 16.8 27.4101 18.2115 26.9356 18.5006 26.2062 23.412 24.8965 24.7473 24.7083 29.3088 24.0613 30.8876 25.0494 32.8012 25.0102 32.0365 22.8339 28.9626 17.6381 27.5854 15.799 25.3218 12.7874 23.1571 10.5327 20.3913 8.40732 15.7767 4.85852 11.6033 2.82336 6.01088 1.22738 4.8924 0.905827 1.1375 0 0 0.0470559 6.04132 4.81147 9.3473 11.0856 11.9723 18.7479 12.406 20.0105 14.2854 25.771 14.1712 26.7944Z" fill="#D68D87" fill-rule="evenodd" transform="matrix(-0.645755 0.763544 0.763544 0.645755 162.752 59.1632)"/><path d="M14.588 26.9875C15.1966 27.1915 15.733 27.6543 16.2237 27.7838 16.372 27.9799 16.2731 27.8544 16.4443 28.0152 16.471 28.0427 16.6269 28.18 16.6688 28.2153 16.9046 28.4153 16.9084 28.4271 17.1633 28.5957L17.9164 29.1096 18.0876 28.5565 20.3814 20.1622C21.3095 17.3536 22.1844 14.9412 23.4093 12.317 26.0074 6.74295 28.4152 3.85199 32.8012 0.0902198 30.2754 0 23.7174 2.17312 21.5416 3.08316 13.4202 6.46444 6.79379 12.3601 2.45733 20.1975 1.80306 21.3821 0.475489 23.7121 0 25.0654 1.164 25.0889 2.57145 24.6457 3.84576 24.5908 5.29885 24.528 6.75956 24.5672 8.12516 24.7477 9.41088 24.9203 14.3331 26.301 14.588 26.9875Z" fill="#D68D87" fill-rule="evenodd" transform="matrix(-0.645755 0.763544 0.763544 0.645755 191.543 24.9665)"/><path d="M0.883771 1.06778 0.887516 6.07178C0.895006 8.25463 0 6.6234 0.108599 8.25463L2.91719 8.27433C2.99958 6.95438 2.65506 7.80545 2.2993 7.04106 1.6552 6.03238 2.64757 1.24509 1.85367 0.0275811L1.17212 0C0.973646 0.327033 0.883771 0.559502 0.883771 1.06778Z" fill="#6A4742" fill-rule="evenodd" transform="matrix(-0.645755 0.763544 0.763544 0.645755 160.256 47.2945)"/><path d="M200.637 147.451 199.208 151.845 202.075 151.845 200.645 147.451ZM190.058 147.084 190.058 150.016 191.105 150.016C191.397 150.016 191.652 149.98 191.871 149.908 192.09 149.836 192.272 149.735 192.418 149.604 192.564 149.474 192.673 149.318 192.746 149.137 192.819 148.956 192.855 148.754 192.855 148.53 192.855 148.189 192.78 147.901 192.629 147.667 192.478 147.433 192.23 147.268 191.887 147.172 191.782 147.145 191.664 147.124 191.531 147.108 191.398 147.092 191.215 147.084 190.98 147.084ZM226.617 145.478 231.664 145.478C231.711 145.478 231.753 145.491 231.789 145.518 231.826 145.545 231.857 145.591 231.883 145.658 231.909 145.724 231.928 145.809 231.941 145.913 231.954 146.017 231.961 146.149 231.961 146.309 231.961 146.458 231.954 146.585 231.941 146.688 231.928 146.792 231.909 146.876 231.883 146.94 231.857 147.004 231.826 147.051 231.789 147.08 231.753 147.109 231.711 147.124 231.664 147.124L228.054 147.124 228.054 149.648 231.109 149.648C231.156 149.648 231.199 149.663 231.238 149.692 231.277 149.722 231.31 149.767 231.336 149.828 231.362 149.889 231.381 149.972 231.394 150.076 231.408 150.18 231.414 150.306 231.414 150.455 231.414 150.61 231.408 150.738 231.394 150.839 231.381 150.94 231.362 151.021 231.336 151.083 231.31 151.144 231.277 151.188 231.238 151.214 231.199 151.241 231.156 151.254 231.109 151.254L228.054 151.254 228.054 154.17 231.695 154.17C231.742 154.17 231.785 154.185 231.824 154.214 231.863 154.244 231.896 154.29 231.922 154.354 231.948 154.418 231.967 154.502 231.98 154.606 231.993 154.71 232 154.839 232 154.993 232 155.148 231.993 155.277 231.98 155.381 231.967 155.485 231.948 155.569 231.922 155.632 231.896 155.696 231.863 155.743 231.824 155.772 231.785 155.802 231.742 155.816 231.695 155.816L226.617 155.816C226.445 155.816 226.3 155.764 226.183 155.66 226.066 155.557 226.007 155.387 226.007 155.153L226.007 146.141C226.007 145.907 226.066 145.738 226.183 145.634 226.3 145.53 226.445 145.478 226.617 145.478ZM188.613 145.478 191.23 145.478C191.496 145.478 191.715 145.483 191.887 145.494 192.058 145.505 192.215 145.518 192.355 145.534 192.762 145.593 193.128 145.694 193.453 145.838 193.779 145.981 194.055 146.169 194.281 146.401 194.508 146.632 194.681 146.907 194.801 147.224 194.921 147.541 194.981 147.904 194.981 148.314 194.981 148.66 194.938 148.976 194.852 149.261 194.766 149.546 194.639 149.8 194.473 150.024 194.306 150.248 194.1 150.442 193.855 150.607 193.611 150.772 193.332 150.905 193.019 151.007 193.17 151.081 193.312 151.172 193.445 151.278 193.578 151.385 193.703 151.514 193.82 151.666 193.938 151.818 194.048 151.991 194.152 152.185 194.257 152.379 194.358 152.599 194.457 152.844L195.309 154.881C195.387 155.084 195.439 155.232 195.465 155.325 195.491 155.418 195.504 155.491 195.504 155.545 195.504 155.603 195.494 155.652 195.473 155.692 195.452 155.732 195.402 155.766 195.324 155.792 195.246 155.819 195.132 155.838 194.981 155.848 194.83 155.859 194.624 155.864 194.363 155.864 194.145 155.864 193.97 155.859 193.84 155.848 193.71 155.838 193.607 155.817 193.531 155.788 193.456 155.759 193.402 155.722 193.371 155.676 193.34 155.631 193.314 155.577 193.293 155.513L192.387 153.204C192.277 152.943 192.17 152.711 192.066 152.509 191.962 152.306 191.846 152.137 191.719 152.001 191.591 151.865 191.444 151.763 191.277 151.694 191.11 151.625 190.918 151.59 190.699 151.59L190.058 151.59 190.058 155.529C190.058 155.582 190.041 155.63 190.007 155.672 189.974 155.715 189.918 155.75 189.839 155.776 189.761 155.803 189.657 155.824 189.527 155.84 189.397 155.856 189.23 155.864 189.027 155.864 188.829 155.864 188.664 155.856 188.531 155.84 188.398 155.824 188.292 155.803 188.214 155.776 188.136 155.75 188.081 155.715 188.05 155.672 188.019 155.63 188.003 155.582 188.003 155.529L188.003 146.141C188.003 145.907 188.062 145.738 188.179 145.634 188.296 145.53 188.441 145.478 188.613 145.478ZM214.443 145.446C214.621 145.446 214.769 145.453 214.889 145.466 215.009 145.479 215.101 145.502 215.166 145.534 215.231 145.566 215.277 145.603 215.303 145.646 215.329 145.688 215.342 145.736 215.342 145.79L215.342 155.081C215.342 155.204 215.321 155.313 215.279 155.409 215.238 155.505 215.182 155.585 215.112 155.648 215.041 155.712 214.958 155.759 214.861 155.788 214.765 155.817 214.667 155.832 214.569 155.832L213.693 155.832C213.511 155.832 213.354 155.814 213.221 155.776 213.088 155.739 212.966 155.671 212.854 155.572 212.741 155.474 212.633 155.341 212.529 155.173 212.425 155.005 212.308 154.788 212.178 154.522L209.662 149.688C209.516 149.401 209.367 149.091 209.216 148.758 209.065 148.425 208.93 148.101 208.81 147.787L208.795 147.787C208.815 148.17 208.831 148.553 208.841 148.933 208.852 149.314 208.857 149.707 208.857 150.112L208.857 155.521C208.857 155.574 208.843 155.622 208.814 155.664 208.785 155.707 208.736 155.743 208.666 155.772 208.595 155.802 208.5 155.824 208.38 155.84 208.261 155.856 208.107 155.864 207.919 155.864 207.737 155.864 207.586 155.856 207.466 155.84 207.346 155.824 207.253 155.802 207.185 155.772 207.117 155.743 207.07 155.707 207.044 155.664 207.018 155.622 207.005 155.574 207.005 155.521L207.005 146.229C207.005 145.979 207.077 145.791 207.22 145.666 207.363 145.541 207.539 145.478 207.747 145.478L208.849 145.478C209.047 145.478 209.214 145.495 209.349 145.53 209.485 145.564 209.606 145.622 209.712 145.702 209.819 145.782 209.92 145.892 210.013 146.033 210.107 146.174 210.203 146.349 210.302 146.557L212.271 150.336C212.386 150.565 212.499 150.79 212.611 151.011 212.723 151.232 212.831 151.453 212.936 151.674 213.04 151.895 213.141 152.112 213.24 152.325 213.339 152.538 213.436 152.751 213.529 152.964L213.537 152.964C213.521 152.591 213.51 152.202 213.502 151.798 213.494 151.393 213.49 151.007 213.49 150.639L213.49 145.79C213.49 145.736 213.506 145.688 213.537 145.646 213.568 145.603 213.62 145.566 213.693 145.534 213.766 145.502 213.863 145.479 213.983 145.466 214.102 145.453 214.256 145.446 214.443 145.446ZM166.439 145.446C166.616 145.446 166.764 145.453 166.884 145.466 167.004 145.479 167.096 145.502 167.161 145.534 167.227 145.566 167.272 145.603 167.298 145.646 167.324 145.688 167.337 145.736 167.337 145.79L167.337 155.081C167.337 155.204 167.316 155.313 167.275 155.409 167.233 155.505 167.177 155.585 167.107 155.648 167.036 155.712 166.953 155.759 166.857 155.788 166.76 155.817 166.663 155.832 166.564 155.832L165.689 155.832C165.506 155.832 165.349 155.814 165.216 155.776 165.083 155.739 164.961 155.671 164.849 155.572 164.737 155.474 164.629 155.341 164.524 155.173 164.42 155.005 164.303 154.788 164.173 154.522L161.657 149.688C161.511 149.401 161.363 149.091 161.212 148.758 161.06 148.425 160.925 148.101 160.805 147.787L160.79 147.787C160.81 148.17 160.826 148.553 160.836 148.933 160.847 149.314 160.852 149.707 160.852 150.112L160.852 155.521C160.852 155.574 160.838 155.622 160.809 155.664 160.781 155.707 160.731 155.743 160.661 155.772 160.59 155.802 160.495 155.824 160.376 155.84 160.256 155.856 160.102 155.864 159.915 155.864 159.732 155.864 159.581 155.856 159.461 155.84 159.342 155.824 159.248 155.802 159.18 155.772 159.112 155.743 159.066 155.707 159.039 155.664 159.013 155.622 159 155.574 159 155.521L159 146.229C159 145.979 159.072 145.791 159.215 145.666 159.359 145.541 159.534 145.478 159.743 145.478L160.844 145.478C161.042 145.478 161.209 145.495 161.344 145.53 161.48 145.564 161.601 145.622 161.708 145.702 161.814 145.782 161.915 145.892 162.008 146.033 162.102 146.174 162.199 146.349 162.298 146.557L164.267 150.336C164.381 150.565 164.494 150.79 164.606 151.011 164.718 151.232 164.827 151.453 164.931 151.674 165.035 151.895 165.136 152.112 165.235 152.325 165.334 152.538 165.431 152.751 165.525 152.964L165.532 152.964C165.517 152.591 165.505 152.202 165.497 151.798 165.489 151.393 165.485 151.007 165.485 150.639L165.485 145.79C165.485 145.736 165.501 145.688 165.532 145.646 165.564 145.603 165.616 145.566 165.689 145.534 165.762 145.502 165.858 145.479 165.978 145.466 166.098 145.453 166.251 145.446 166.439 145.446ZM200.669 145.43C200.976 145.43 201.221 145.434 201.403 145.442 201.585 145.45 201.727 145.469 201.829 145.498 201.931 145.527 202.003 145.571 202.048 145.63 202.092 145.688 202.13 145.768 202.161 145.87L205.286 155.033C205.349 155.225 205.388 155.377 205.404 155.489 205.419 155.6 205.398 155.684 205.341 155.74 205.284 155.796 205.182 155.831 205.036 155.844 204.89 155.858 204.69 155.864 204.435 155.864 204.169 155.864 203.962 155.86 203.814 155.852 203.665 155.844 203.552 155.828 203.474 155.804 203.396 155.78 203.341 155.747 203.31 155.704 203.278 155.662 203.252 155.606 203.231 155.537L202.552 153.459 198.754 153.459 198.114 155.481C198.093 155.555 198.066 155.618 198.032 155.668 197.998 155.719 197.943 155.759 197.868 155.788 197.792 155.817 197.685 155.838 197.547 155.848 197.409 155.859 197.228 155.864 197.004 155.864 196.765 155.864 196.577 155.856 196.442 155.84 196.306 155.824 196.212 155.786 196.16 155.724 196.108 155.663 196.09 155.577 196.106 155.465 196.121 155.353 196.16 155.204 196.223 155.017L199.34 145.845C199.372 145.755 199.408 145.682 199.45 145.626 199.492 145.57 199.558 145.527 199.649 145.498 199.74 145.469 199.866 145.45 200.028 145.442 200.189 145.434 200.403 145.43 200.669 145.43ZM179.026 145.43C179.224 145.43 179.388 145.438 179.518 145.454 179.648 145.47 179.753 145.491 179.831 145.518 179.909 145.545 179.965 145.579 179.999 145.622 180.032 145.664 180.049 145.712 180.049 145.766L180.049 151.87C180.049 152.28 180.099 152.635 180.198 152.936 180.297 153.237 180.439 153.486 180.624 153.683 180.809 153.88 181.03 154.028 181.288 154.126 181.546 154.225 181.833 154.274 182.151 154.274 182.474 154.274 182.763 154.224 183.018 154.122 183.274 154.021 183.49 153.873 183.667 153.679 183.844 153.485 183.981 153.245 184.077 152.96 184.174 152.675 184.222 152.351 184.222 151.989L184.222 145.766C184.222 145.712 184.237 145.664 184.269 145.622 184.3 145.579 184.355 145.545 184.433 145.518 184.511 145.491 184.616 145.47 184.749 145.454 184.882 145.438 185.047 145.43 185.245 145.43 185.443 145.43 185.606 145.438 185.734 145.454 185.861 145.47 185.964 145.491 186.042 145.518 186.12 145.545 186.175 145.579 186.206 145.622 186.237 145.664 186.253 145.712 186.253 145.766L186.253 151.965C186.253 152.599 186.162 153.166 185.98 153.667 185.797 154.168 185.529 154.591 185.175 154.937 184.821 155.284 184.383 155.547 183.862 155.728 183.341 155.909 182.742 156 182.065 156 181.43 156 180.859 155.919 180.354 155.756 179.849 155.594 179.422 155.347 179.073 155.017 178.724 154.687 178.457 154.276 178.272 153.783 178.087 153.29 177.995 152.714 177.995 152.053L177.995 145.766C177.995 145.712 178.01 145.664 178.041 145.622 178.073 145.579 178.129 145.545 178.209 145.518 178.29 145.491 178.396 145.47 178.526 145.454 178.656 145.438 178.823 145.43 179.026 145.43ZM156.031 145.43C156.234 145.43 156.401 145.438 156.531 145.454 156.662 145.47 156.766 145.491 156.844 145.518 156.922 145.545 156.978 145.579 157.012 145.622 157.046 145.664 157.063 145.712 157.063 145.766L157.063 155.529C157.063 155.582 157.046 155.63 157.012 155.672 156.978 155.715 156.922 155.75 156.844 155.776 156.766 155.803 156.662 155.824 156.531 155.84 156.401 155.856 156.234 155.864 156.031 155.864 155.833 155.864 155.668 155.856 155.535 155.84 155.402 155.824 155.297 155.803 155.219 155.776 155.141 155.75 155.085 155.715 155.051 155.672 155.017 155.63 155 155.582 155 155.529L155 145.766C155 145.712 155.017 145.664 155.051 145.622 155.085 145.579 155.142 145.545 155.223 145.518 155.303 145.491 155.409 145.47 155.539 145.454 155.669 145.438 155.833 145.43 156.031 145.43ZM222.21 145.31C222.491 145.31 222.762 145.334 223.023 145.382 223.283 145.43 223.524 145.493 223.745 145.57 223.967 145.647 224.166 145.736 224.343 145.838 224.52 145.939 224.644 146.025 224.714 146.097 224.784 146.169 224.833 146.229 224.859 146.277 224.885 146.325 224.906 146.386 224.921 146.461 224.937 146.535 224.948 146.623 224.956 146.724 224.964 146.825 224.968 146.951 224.968 147.1 224.968 147.26 224.963 147.395 224.952 147.507 224.942 147.619 224.924 147.71 224.898 147.779 224.872 147.848 224.84 147.899 224.804 147.931 224.767 147.963 224.726 147.979 224.679 147.979 224.601 147.979 224.502 147.932 224.382 147.839 224.262 147.746 224.107 147.642 223.917 147.527 223.727 147.413 223.5 147.309 223.237 147.216 222.974 147.122 222.66 147.076 222.296 147.076 221.895 147.076 221.537 147.16 221.221 147.328 220.906 147.495 220.638 147.735 220.417 148.047 220.195 148.358 220.027 148.735 219.913 149.177 219.798 149.619 219.741 150.117 219.741 150.671 219.741 151.278 219.802 151.804 219.925 152.249 220.047 152.694 220.221 153.06 220.448 153.347 220.675 153.635 220.948 153.85 221.268 153.991 221.589 154.132 221.949 154.202 222.351 154.202 222.715 154.202 223.03 154.158 223.296 154.071 223.562 153.983 223.79 153.885 223.98 153.779 224.17 153.672 224.326 153.576 224.448 153.491 224.571 153.406 224.666 153.363 224.734 153.363 224.786 153.363 224.827 153.374 224.859 153.395 224.89 153.417 224.916 153.459 224.937 153.523 224.958 153.587 224.973 153.676 224.984 153.791 224.994 153.905 224.999 154.059 224.999 154.25 224.999 154.383 224.995 154.497 224.988 154.59 224.98 154.683 224.968 154.763 224.952 154.83 224.937 154.896 224.916 154.953 224.89 155.001 224.864 155.049 224.822 155.104 224.765 155.165 224.708 155.226 224.597 155.305 224.433 155.401 224.269 155.497 224.068 155.588 223.831 155.676 223.594 155.764 223.323 155.838 223.019 155.896 222.714 155.955 222.384 155.984 222.03 155.984 221.337 155.984 220.712 155.875 220.155 155.656 219.598 155.438 219.124 155.112 218.733 154.678 218.342 154.244 218.043 153.702 217.834 153.052 217.626 152.402 217.522 151.646 217.522 150.783 217.522 149.904 217.637 149.124 217.866 148.442 218.095 147.76 218.415 147.188 218.827 146.724 219.238 146.261 219.732 145.909 220.307 145.67 220.883 145.43 221.517 145.31 222.21 145.31ZM172.955 145.294C173.195 145.294 173.434 145.313 173.674 145.35 173.913 145.387 174.137 145.438 174.346 145.502 174.554 145.566 174.739 145.638 174.9 145.718 175.062 145.798 175.169 145.864 175.221 145.917 175.273 145.971 175.308 146.016 175.326 146.053 175.345 146.09 175.36 146.14 175.373 146.201 175.386 146.262 175.395 146.34 175.4 146.433 175.406 146.526 175.408 146.642 175.408 146.78 175.408 146.935 175.404 147.065 175.397 147.172 175.389 147.278 175.376 147.366 175.358 147.435 175.339 147.505 175.313 147.555 175.279 147.587 175.246 147.619 175.2 147.635 175.143 147.635 175.085 147.635 174.994 147.598 174.869 147.523 174.744 147.449 174.591 147.367 174.408 147.28 174.226 147.192 174.015 147.112 173.775 147.04 173.536 146.968 173.273 146.932 172.986 146.932 172.762 146.932 172.567 146.96 172.4 147.016 172.234 147.072 172.094 147.149 171.982 147.248 171.87 147.346 171.787 147.465 171.732 147.603 171.677 147.742 171.65 147.888 171.65 148.043 171.65 148.272 171.711 148.47 171.834 148.638 171.956 148.806 172.12 148.955 172.326 149.085 172.532 149.216 172.765 149.338 173.025 149.453 173.286 149.567 173.551 149.688 173.822 149.816 174.093 149.944 174.359 150.089 174.619 150.252 174.88 150.414 175.111 150.609 175.315 150.835 175.518 151.061 175.682 151.328 175.807 151.634 175.932 151.94 175.994 152.301 175.994 152.716 175.994 153.26 175.895 153.736 175.697 154.146 175.499 154.557 175.231 154.899 174.893 155.173 174.554 155.447 174.158 155.654 173.705 155.792 173.252 155.931 172.767 156 172.252 156 171.903 156 171.578 155.971 171.279 155.912 170.979 155.853 170.715 155.783 170.486 155.7 170.257 155.618 170.065 155.531 169.912 155.441 169.758 155.35 169.647 155.27 169.58 155.201 169.512 155.132 169.464 155.032 169.435 154.901 169.406 154.771 169.392 154.583 169.392 154.338 169.392 154.173 169.397 154.035 169.408 153.923 169.418 153.811 169.435 153.72 169.458 153.651 169.482 153.582 169.513 153.533 169.552 153.503 169.591 153.474 169.637 153.459 169.689 153.459 169.762 153.459 169.865 153.503 169.998 153.591 170.13 153.679 170.301 153.776 170.509 153.883 170.718 153.989 170.966 154.086 171.255 154.174 171.545 154.262 171.879 154.306 172.26 154.306 172.51 154.306 172.734 154.276 172.931 154.214 173.129 154.153 173.297 154.066 173.435 153.955 173.574 153.843 173.679 153.704 173.752 153.539 173.825 153.374 173.861 153.19 173.861 152.988 173.861 152.754 173.799 152.553 173.674 152.385 173.549 152.217 173.386 152.068 173.185 151.937 172.985 151.807 172.757 151.684 172.502 151.57 172.247 151.455 171.983 151.334 171.713 151.206 171.442 151.079 171.179 150.933 170.923 150.771 170.668 150.609 170.44 150.414 170.24 150.188 170.039 149.961 169.876 149.694 169.752 149.385 169.626 149.076 169.564 148.706 169.564 148.274 169.564 147.779 169.654 147.344 169.834 146.968 170.013 146.592 170.256 146.281 170.56 146.033 170.865 145.786 171.224 145.6 171.638 145.478 172.053 145.355 172.491 145.294 172.955 145.294ZM199.614 126.048 204.661 126.048C204.708 126.048 204.75 126.061 204.786 126.088 204.823 126.114 204.854 126.161 204.88 126.228 204.906 126.294 204.926 126.379 204.939 126.483 204.952 126.587 204.958 126.719 204.958 126.879 204.958 127.028 204.952 127.154 204.939 127.258 204.926 127.362 204.906 127.446 204.88 127.51 204.854 127.574 204.823 127.62 204.786 127.65 204.75 127.679 204.708 127.694 204.661 127.694L201.051 127.694 201.051 130.218 204.106 130.218C204.153 130.218 204.196 130.233 204.235 130.262 204.274 130.292 204.307 130.337 204.333 130.398 204.359 130.459 204.379 130.542 204.392 130.646 204.405 130.75 204.411 130.876 204.411 131.025 204.411 131.18 204.405 131.308 204.392 131.409 204.379 131.51 204.359 131.591 204.333 131.652 204.307 131.714 204.274 131.758 204.235 131.784 204.196 131.811 204.153 131.824 204.106 131.824L201.051 131.824 201.051 134.74 204.692 134.74C204.739 134.74 204.782 134.755 204.821 134.784 204.86 134.814 204.893 134.86 204.919 134.924 204.945 134.988 204.965 135.072 204.978 135.176 204.991 135.28 204.997 135.409 204.997 135.563 204.997 135.718 204.991 135.847 204.978 135.951 204.965 136.055 204.945 136.138 204.919 136.202 204.893 136.266 204.86 136.313 204.821 136.342 204.782 136.372 204.739 136.386 204.692 136.386L199.614 136.386C199.442 136.386 199.297 136.334 199.18 136.23 199.063 136.127 199.004 135.957 199.004 135.723L199.004 126.711C199.004 126.477 199.063 126.308 199.18 126.204 199.297 126.1 199.442 126.048 199.614 126.048ZM192.613 126.048 197.371 126.048C197.418 126.048 197.46 126.063 197.496 126.092 197.533 126.121 197.565 126.169 197.594 126.236 197.623 126.302 197.644 126.391 197.657 126.503 197.67 126.615 197.676 126.751 197.676 126.911 197.676 127.071 197.67 127.205 197.657 127.314 197.644 127.423 197.623 127.51 197.594 127.574 197.565 127.638 197.533 127.686 197.496 127.718 197.46 127.75 197.418 127.766 197.371 127.766L194.066 127.766 194.066 130.546 197.168 130.546C197.215 130.546 197.257 130.559 197.293 130.586 197.33 130.613 197.362 130.658 197.391 130.722 197.42 130.786 197.441 130.871 197.454 130.977 197.467 131.084 197.473 131.217 197.473 131.377 197.473 131.537 197.467 131.67 197.454 131.776 197.441 131.883 197.42 131.971 197.391 132.04 197.362 132.109 197.33 132.158 197.293 132.188 197.257 132.217 197.215 132.232 197.168 132.232L194.066 132.232 194.066 136.082C194.066 136.141 194.051 136.192 194.02 136.234 193.988 136.277 193.932 136.313 193.852 136.342 193.771 136.372 193.665 136.394 193.535 136.41 193.405 136.426 193.238 136.434 193.035 136.434 192.837 136.434 192.672 136.426 192.539 136.41 192.406 136.394 192.301 136.372 192.223 136.342 192.144 136.313 192.088 136.277 192.055 136.234 192.021 136.192 192.004 136.141 192.004 136.082L192.004 126.711C192.004 126.477 192.062 126.308 192.18 126.204 192.297 126.1 192.441 126.048 192.613 126.048ZM189.035 126C189.238 126 189.405 126.008 189.535 126.024 189.665 126.04 189.769 126.061 189.847 126.088 189.925 126.114 189.981 126.149 190.015 126.192 190.049 126.234 190.066 126.282 190.066 126.336L190.066 136.098C190.066 136.152 190.049 136.2 190.015 136.242 189.981 136.285 189.925 136.32 189.847 136.346 189.769 136.373 189.665 136.394 189.535 136.41 189.405 136.426 189.238 136.434 189.035 136.434 188.837 136.434 188.671 136.426 188.538 136.41 188.406 136.394 188.3 136.373 188.222 136.346 188.144 136.32 188.088 136.285 188.054 136.242 188.02 136.2 188.003 136.152 188.003 136.098L188.003 126.336C188.003 126.282 188.02 126.234 188.054 126.192 188.088 126.149 188.145 126.114 188.226 126.088 188.307 126.061 188.412 126.04 188.542 126.024 188.673 126.008 188.837 126 189.035 126ZM182.034 126C182.237 126 182.404 126.008 182.534 126.024 182.664 126.04 182.768 126.061 182.847 126.088 182.925 126.114 182.981 126.149 183.015 126.192 183.048 126.234 183.065 126.282 183.065 126.336L183.065 134.652 186.245 134.652C186.297 134.652 186.343 134.667 186.382 134.696 186.421 134.726 186.454 134.774 186.48 134.84 186.506 134.907 186.525 134.995 186.538 135.104 186.551 135.213 186.558 135.347 186.558 135.507 186.558 135.667 186.551 135.802 186.538 135.911 186.525 136.02 186.506 136.111 186.48 136.182 186.454 136.254 186.421 136.306 186.382 136.338 186.343 136.37 186.297 136.386 186.245 136.386L181.612 136.386C181.44 136.386 181.296 136.334 181.178 136.23 181.061 136.127 181.003 135.957 181.003 135.723L181.003 126.336C181.003 126.282 181.02 126.234 181.053 126.192 181.087 126.149 181.143 126.114 181.221 126.088 181.3 126.061 181.405 126.04 181.538 126.024 181.671 126.008 181.836 126 182.034 126Z" fill="#404040" fill-rule="evenodd"/><path d="M370.547 126.189 377.694 126.189C377.741 126.189 377.785 126.204 377.824 126.234 377.863 126.264 377.896 126.313 377.922 126.382 377.948 126.45 377.967 126.542 377.98 126.657 377.993 126.772 378 126.911 378 127.075 378 127.234 377.993 127.369 377.98 127.482 377.967 127.594 377.948 127.684 377.922 127.753 377.896 127.821 377.863 127.872 377.824 127.904 377.785 127.937 377.741 127.954 377.694 127.954L375.155 127.954 375.155 136.516C375.155 136.57 375.138 136.62 375.104 136.663 375.07 136.707 375.014 136.743 374.936 136.77 374.857 136.797 374.752 136.819 374.618 136.836 374.485 136.852 374.319 136.86 374.121 136.86 373.922 136.86 373.756 136.852 373.623 136.836 373.49 136.819 373.384 136.797 373.306 136.77 373.227 136.743 373.171 136.707 373.137 136.663 373.103 136.62 373.086 136.57 373.086 136.516L373.086 127.954 370.547 127.954C370.495 127.954 370.451 127.937 370.414 127.904 370.377 127.872 370.346 127.821 370.32 127.753 370.294 127.684 370.274 127.594 370.261 127.482 370.248 127.369 370.242 127.234 370.242 127.075 370.242 126.911 370.248 126.772 370.261 126.657 370.274 126.542 370.294 126.45 370.32 126.382 370.346 126.313 370.377 126.264 370.414 126.234 370.451 126.204 370.495 126.189 370.547 126.189ZM352.805 126.189 357.867 126.189C357.914 126.189 357.956 126.202 357.993 126.23 358.029 126.257 358.06 126.305 358.087 126.374 358.113 126.442 358.132 126.529 358.145 126.636 358.158 126.743 358.165 126.878 358.165 127.042 358.165 127.196 358.158 127.326 358.145 127.432 358.132 127.539 358.113 127.625 358.087 127.691 358.06 127.757 358.029 127.805 357.993 127.835 357.956 127.865 357.914 127.88 357.867 127.88L354.246 127.88 354.246 130.474 357.311 130.474C357.358 130.474 357.401 130.489 357.44 130.519 357.479 130.549 357.512 130.596 357.538 130.659 357.564 130.721 357.584 130.806 357.597 130.913 357.61 131.02 357.616 131.15 357.616 131.303 357.616 131.462 357.61 131.593 357.597 131.697 357.584 131.801 357.564 131.884 357.538 131.947 357.512 132.01 357.479 132.055 357.44 132.083 357.401 132.11 357.358 132.124 357.311 132.124L354.246 132.124 354.246 135.12 357.898 135.12C357.945 135.12 357.989 135.135 358.028 135.165 358.067 135.195 358.1 135.243 358.126 135.309 358.152 135.375 358.171 135.461 358.185 135.567 358.198 135.674 358.204 135.807 358.204 135.966 358.204 136.124 358.198 136.257 358.185 136.364 358.171 136.47 358.152 136.557 358.126 136.622 358.1 136.688 358.067 136.736 358.028 136.766 357.989 136.796 357.945 136.811 357.898 136.811L352.805 136.811C352.632 136.811 352.487 136.758 352.37 136.651 352.252 136.544 352.193 136.371 352.193 136.13L352.193 126.87C352.193 126.629 352.252 126.456 352.37 126.349 352.487 126.242 352.632 126.189 352.805 126.189ZM338.925 126.189 340.273 126.189C340.514 126.189 340.72 126.209 340.892 126.25 341.065 126.291 341.214 126.36 341.339 126.456 341.465 126.551 341.569 126.677 341.653 126.833 341.736 126.989 341.809 127.182 341.872 127.412L344.066 133.741 344.098 133.741 346.37 127.428C346.438 127.198 346.513 127.004 346.594 126.845 346.675 126.687 346.769 126.558 346.876 126.46 346.983 126.361 347.11 126.291 347.256 126.25 347.402 126.209 347.572 126.189 347.765 126.189L349.153 126.189C349.294 126.189 349.415 126.208 349.517 126.246 349.619 126.285 349.702 126.341 349.768 126.415 349.833 126.488 349.883 126.579 349.917 126.685 349.951 126.792 349.968 126.914 349.968 127.051L349.968 136.516C349.968 136.57 349.953 136.62 349.924 136.663 349.896 136.707 349.844 136.743 349.768 136.77 349.692 136.797 349.591 136.819 349.466 136.836 349.341 136.852 349.181 136.86 348.988 136.86 348.8 136.86 348.643 136.852 348.518 136.836 348.392 136.819 348.293 136.797 348.22 136.77 348.147 136.743 348.095 136.707 348.063 136.663 348.032 136.62 348.016 136.57 348.016 136.516L348.016 127.872 348.001 127.872 345.062 136.507C345.041 136.579 345.007 136.637 344.96 136.684 344.913 136.73 344.849 136.767 344.768 136.795 344.687 136.822 344.584 136.84 344.458 136.848 344.333 136.856 344.181 136.86 344.004 136.86 343.826 136.86 343.675 136.854 343.549 136.84 343.424 136.826 343.321 136.804 343.24 136.774 343.159 136.744 343.095 136.707 343.048 136.663 343.001 136.62 342.969 136.568 342.954 136.507L340.117 127.872 340.101 127.872 340.101 136.516C340.101 136.57 340.087 136.62 340.058 136.663 340.029 136.707 339.976 136.743 339.897 136.77 339.819 136.797 339.718 136.819 339.595 136.836 339.473 136.852 339.315 136.86 339.121 136.86 338.933 136.86 338.777 136.852 338.651 136.836 338.526 136.819 338.425 136.797 338.349 136.77 338.274 136.743 338.221 136.707 338.193 136.663 338.164 136.62 338.15 136.57 338.15 136.516L338.15 127.051C338.15 126.772 338.22 126.558 338.361 126.41 338.502 126.263 338.69 126.189 338.925 126.189ZM329.419 126.189 336.567 126.189C336.614 126.189 336.657 126.204 336.696 126.234 336.735 126.264 336.768 126.313 336.794 126.382 336.82 126.45 336.84 126.542 336.853 126.657 336.866 126.772 336.872 126.911 336.872 127.075 336.872 127.234 336.866 127.369 336.853 127.482 336.84 127.594 336.82 127.684 336.794 127.753 336.768 127.821 336.735 127.872 336.696 127.904 336.657 127.937 336.614 127.954 336.567 127.954L334.027 127.954 334.027 136.516C334.027 136.57 334.01 136.62 333.976 136.663 333.943 136.707 333.886 136.743 333.808 136.77 333.73 136.797 333.624 136.819 333.491 136.836 333.357 136.852 333.191 136.86 332.993 136.86 332.794 136.86 332.629 136.852 332.495 136.836 332.362 136.819 332.256 136.797 332.178 136.77 332.1 136.743 332.043 136.707 332.009 136.663 331.975 136.62 331.958 136.57 331.958 136.516L331.958 127.954 329.419 127.954C329.367 127.954 329.323 127.937 329.286 127.904 329.25 127.872 329.218 127.821 329.192 127.753 329.166 127.684 329.146 127.594 329.133 127.482 329.12 127.369 329.114 127.234 329.114 127.075 329.114 126.911 329.12 126.772 329.133 126.657 329.146 126.542 329.166 126.45 329.192 126.382 329.218 126.313 329.25 126.264 329.286 126.234 329.323 126.204 329.367 126.189 329.419 126.189ZM314.686 126.189 319.749 126.189C319.796 126.189 319.837 126.202 319.874 126.23 319.911 126.257 319.942 126.305 319.968 126.374 319.994 126.442 320.014 126.529 320.027 126.636 320.04 126.743 320.046 126.878 320.046 127.042 320.046 127.196 320.04 127.326 320.027 127.432 320.014 127.539 319.994 127.625 319.968 127.691 319.942 127.757 319.911 127.805 319.874 127.835 319.837 127.865 319.796 127.88 319.749 127.88L316.128 127.88 316.128 130.474 319.192 130.474C319.239 130.474 319.282 130.489 319.322 130.519 319.361 130.549 319.393 130.596 319.42 130.659 319.446 130.721 319.465 130.806 319.478 130.913 319.491 131.02 319.498 131.15 319.498 131.303 319.498 131.462 319.491 131.593 319.478 131.697 319.465 131.801 319.446 131.884 319.42 131.947 319.393 132.01 319.361 132.055 319.322 132.083 319.282 132.11 319.239 132.124 319.192 132.124L316.128 132.124 316.128 135.12 319.78 135.12C319.827 135.12 319.87 135.135 319.909 135.165 319.949 135.195 319.981 135.243 320.007 135.309 320.033 135.375 320.053 135.461 320.066 135.567 320.079 135.674 320.086 135.807 320.086 135.966 320.086 136.124 320.079 136.257 320.066 136.364 320.053 136.47 320.033 136.557 320.007 136.622 319.981 136.688 319.949 136.736 319.909 136.766 319.87 136.796 319.827 136.811 319.78 136.811L314.686 136.811C314.514 136.811 314.369 136.758 314.251 136.651 314.134 136.544 314.075 136.371 314.075 136.13L314.075 126.87C314.075 126.629 314.134 126.456 314.251 126.349 314.369 126.242 314.514 126.189 314.686 126.189ZM367.679 126.156C367.856 126.156 368.005 126.163 368.126 126.177 368.246 126.19 368.338 126.213 368.404 126.246 368.469 126.279 368.515 126.317 368.541 126.361 368.567 126.405 368.58 126.454 368.58 126.509L368.58 136.056C368.58 136.182 368.559 136.294 368.517 136.393 368.476 136.491 368.419 136.573 368.349 136.639 368.278 136.704 368.195 136.752 368.098 136.782 368.001 136.812 367.904 136.828 367.804 136.828L366.927 136.828C366.744 136.828 366.586 136.808 366.452 136.77 366.319 136.732 366.196 136.662 366.084 136.561 365.972 136.46 365.863 136.323 365.759 136.15 365.654 135.978 365.537 135.755 365.406 135.481L362.883 130.515C362.736 130.219 362.587 129.901 362.436 129.559 362.284 129.217 362.149 128.884 362.028 128.561L362.013 128.561C362.034 128.955 362.049 129.348 362.06 129.739 362.07 130.13 362.076 130.534 362.076 130.95L362.076 136.507C362.076 136.562 362.061 136.611 362.032 136.655 362.004 136.699 361.954 136.736 361.884 136.766 361.813 136.796 361.718 136.819 361.597 136.836 361.477 136.852 361.323 136.86 361.135 136.86 360.952 136.86 360.801 136.852 360.681 136.836 360.56 136.819 360.466 136.796 360.398 136.766 360.331 136.736 360.284 136.699 360.257 136.655 360.231 136.611 360.218 136.562 360.218 136.507L360.218 126.96C360.218 126.703 360.29 126.51 360.434 126.382 360.577 126.253 360.754 126.189 360.963 126.189L362.068 126.189C362.266 126.189 362.433 126.207 362.569 126.242 362.705 126.278 362.827 126.337 362.934 126.419 363.041 126.501 363.141 126.614 363.235 126.759 363.329 126.904 363.426 127.084 363.525 127.297L365.5 131.18C365.615 131.415 365.729 131.646 365.841 131.873 365.953 132.101 366.062 132.328 366.166 132.555 366.271 132.782 366.373 133.005 366.472 133.224 366.571 133.443 366.668 133.662 366.762 133.881L366.77 133.881C366.754 133.498 366.742 133.098 366.735 132.682 366.727 132.266 366.723 131.869 366.723 131.492L366.723 126.509C366.723 126.454 366.738 126.405 366.77 126.361 366.801 126.317 366.853 126.279 366.927 126.246 367 126.213 367.096 126.19 367.216 126.177 367.337 126.163 367.491 126.156 367.679 126.156ZM301.473 126.156C301.651 126.156 301.8 126.163 301.92 126.177 302.04 126.19 302.133 126.213 302.198 126.246 302.263 126.279 302.309 126.317 302.335 126.361 302.361 126.405 302.374 126.454 302.374 126.509L302.374 136.056C302.374 136.182 302.353 136.294 302.312 136.393 302.27 136.491 302.214 136.573 302.143 136.639 302.073 136.704 301.989 136.752 301.892 136.782 301.796 136.812 301.698 136.828 301.598 136.828L300.721 136.828C300.538 136.828 300.38 136.808 300.247 136.77 300.113 136.732 299.991 136.662 299.878 136.561 299.766 136.46 299.658 136.323 299.553 136.15 299.449 135.978 299.331 135.755 299.2 135.481L296.677 130.515C296.531 130.219 296.382 129.901 296.23 129.559 296.079 129.217 295.943 128.884 295.823 128.561L295.807 128.561C295.828 128.955 295.844 129.348 295.854 129.739 295.865 130.13 295.87 130.534 295.87 130.95L295.87 136.507C295.87 136.562 295.855 136.611 295.827 136.655 295.798 136.699 295.748 136.736 295.678 136.766 295.607 136.796 295.512 136.819 295.392 136.836 295.272 136.852 295.117 136.86 294.929 136.86 294.747 136.86 294.595 136.852 294.475 136.836 294.355 136.819 294.261 136.796 294.193 136.766 294.125 136.736 294.078 136.699 294.052 136.655 294.026 136.611 294.012 136.562 294.012 136.507L294.012 126.96C294.012 126.703 294.084 126.51 294.228 126.382 294.372 126.253 294.548 126.189 294.757 126.189L295.862 126.189C296.06 126.189 296.228 126.207 296.363 126.242 296.499 126.278 296.621 126.337 296.728 126.419 296.835 126.501 296.936 126.614 297.03 126.759 297.124 126.904 297.22 127.084 297.32 127.297L299.294 131.18C299.409 131.415 299.523 131.646 299.635 131.873 299.748 132.101 299.856 132.328 299.961 132.555 300.065 132.782 300.167 133.005 300.266 133.224 300.366 133.443 300.462 133.662 300.556 133.881L300.564 133.881C300.548 133.498 300.537 133.098 300.529 132.682 300.521 132.266 300.517 131.869 300.517 131.492L300.517 126.509C300.517 126.454 300.533 126.405 300.564 126.361 300.595 126.317 300.648 126.279 300.721 126.246 300.794 126.213 300.891 126.19 301.011 126.177 301.131 126.163 301.285 126.156 301.473 126.156ZM305.203 126.14C305.444 126.14 305.632 126.145 305.768 126.156 305.904 126.167 306.008 126.186 306.081 126.213 306.154 126.241 306.205 126.282 306.234 126.337 306.263 126.391 306.29 126.46 306.316 126.542L308.785 134.734 308.793 134.734 311.214 126.583C311.235 126.49 311.261 126.415 311.293 126.357 311.324 126.3 311.378 126.254 311.453 126.222 311.529 126.189 311.638 126.167 311.779 126.156 311.92 126.145 312.113 126.14 312.359 126.14 312.599 126.14 312.786 126.148 312.919 126.164 313.052 126.181 313.144 126.22 313.193 126.283 313.243 126.346 313.258 126.435 313.24 126.55 313.222 126.665 313.181 126.818 313.119 127.01L310.094 136.434C310.068 136.527 310.034 136.602 309.992 136.659 309.95 136.717 309.882 136.761 309.788 136.791 309.694 136.821 309.566 136.84 309.404 136.848 309.242 136.856 309.03 136.86 308.769 136.86 308.56 136.86 308.381 136.859 308.232 136.856 308.083 136.854 307.957 136.847 307.852 136.836 307.748 136.825 307.663 136.808 307.598 136.787 307.532 136.765 307.477 136.737 307.433 136.704 307.389 136.672 307.355 136.632 307.331 136.585 307.308 136.539 307.285 136.48 307.265 136.409L304.247 126.993C304.185 126.796 304.147 126.64 304.134 126.525 304.121 126.41 304.147 126.324 304.212 126.267 304.277 126.209 304.388 126.174 304.545 126.16 304.702 126.146 304.921 126.14 305.203 126.14ZM291.034 126.14C291.238 126.14 291.405 126.148 291.536 126.164 291.667 126.181 291.771 126.202 291.849 126.23 291.928 126.257 291.984 126.293 292.018 126.337 292.052 126.38 292.069 126.43 292.069 126.484L292.069 136.516C292.069 136.57 292.052 136.62 292.018 136.663 291.984 136.707 291.928 136.743 291.849 136.77 291.771 136.797 291.667 136.819 291.536 136.836 291.405 136.852 291.238 136.86 291.034 136.86 290.836 136.86 290.67 136.852 290.537 136.836 290.404 136.819 290.298 136.797 290.219 136.77 290.141 136.743 290.085 136.707 290.051 136.663 290.017 136.62 290 136.57 290 136.516L290 126.484C290 126.43 290.017 126.38 290.051 126.337 290.085 126.293 290.142 126.257 290.223 126.23 290.304 126.202 290.41 126.181 290.541 126.164 290.671 126.148 290.836 126.14 291.034 126.14ZM325.062 126C325.302 126 325.543 126.019 325.783 126.057 326.023 126.096 326.248 126.148 326.457 126.213 326.666 126.279 326.851 126.353 327.013 126.435 327.175 126.517 327.282 126.586 327.335 126.64 327.387 126.695 327.422 126.742 327.441 126.78 327.459 126.818 327.474 126.869 327.488 126.932 327.501 126.995 327.51 127.074 327.515 127.17 327.52 127.266 327.523 127.385 327.523 127.527 327.523 127.685 327.519 127.82 327.511 127.929 327.503 128.038 327.49 128.129 327.472 128.2 327.454 128.271 327.427 128.323 327.393 128.356 327.36 128.389 327.314 128.405 327.256 128.405 327.199 128.405 327.107 128.367 326.982 128.29 326.857 128.214 326.703 128.13 326.52 128.04 326.337 127.95 326.125 127.868 325.885 127.794 325.645 127.72 325.381 127.683 325.093 127.683 324.869 127.683 324.673 127.712 324.506 127.769 324.338 127.826 324.199 127.906 324.086 128.007 323.974 128.108 323.89 128.23 323.836 128.372 323.781 128.515 323.753 128.665 323.753 128.824 323.753 129.059 323.815 129.263 323.938 129.435 324.06 129.608 324.225 129.761 324.431 129.895 324.638 130.029 324.871 130.155 325.133 130.273 325.394 130.39 325.66 130.515 325.932 130.646 326.204 130.778 326.47 130.927 326.731 131.094 326.993 131.261 327.225 131.46 327.429 131.693 327.633 131.925 327.797 132.199 327.922 132.514 328.048 132.828 328.111 133.199 328.111 133.626 328.111 134.184 328.011 134.674 327.813 135.096 327.614 135.517 327.345 135.868 327.006 136.15 326.666 136.432 326.269 136.644 325.814 136.787 325.36 136.929 324.874 137 324.357 137 324.007 137 323.681 136.97 323.381 136.91 323.081 136.849 322.815 136.777 322.586 136.692 322.356 136.607 322.164 136.518 322.01 136.425 321.855 136.332 321.744 136.25 321.677 136.179 321.609 136.108 321.56 136.005 321.531 135.871 321.503 135.737 321.488 135.544 321.488 135.292 321.488 135.123 321.494 134.981 321.504 134.866 321.515 134.751 321.531 134.658 321.555 134.587 321.579 134.515 321.61 134.465 321.649 134.435 321.688 134.405 321.734 134.39 321.786 134.39 321.859 134.39 321.963 134.435 322.096 134.525 322.229 134.615 322.4 134.715 322.609 134.825 322.818 134.934 323.068 135.034 323.358 135.124 323.647 135.215 323.983 135.26 324.365 135.26 324.615 135.26 324.84 135.228 325.039 135.165 325.237 135.102 325.406 135.013 325.544 134.899 325.682 134.784 325.788 134.641 325.861 134.472 325.935 134.302 325.971 134.113 325.971 133.905 325.971 133.664 325.908 133.458 325.783 133.285 325.658 133.113 325.494 132.96 325.293 132.826 325.092 132.692 324.864 132.566 324.608 132.448 324.351 132.33 324.088 132.206 323.816 132.075 323.544 131.943 323.28 131.794 323.024 131.627 322.768 131.46 322.54 131.261 322.339 131.028 322.138 130.795 321.974 130.52 321.849 130.203 321.724 129.885 321.661 129.505 321.661 129.062 321.661 128.553 321.751 128.106 321.931 127.72 322.111 127.334 322.354 127.014 322.66 126.759 322.966 126.505 323.326 126.315 323.742 126.189 324.157 126.063 324.597 126 325.062 126Z" fill="#404040" fill-rule="evenodd"/></g></svg>